<?xml version="1.0" encoding="UTF-8"?>
<svg version="1.1" xmlns="http://www.w3.org/2000/svg" width="1024" height="1024">
<path d="M0 0 C2.15164295 1.13782324 4.25134757 2.34040983 6.34912109 3.57470703 C7.53078857 4.24796021 7.53078857 4.24796021 8.73632812 4.93481445 C11.89170289 6.73299488 15.03327811 8.55450247 18.17382812 10.37841797 C37.20843719 21.3910727 57.23978731 30.68088602 77.86694336 38.29663086 C80.48172949 39.30965085 83.04905245 40.41932047 85.62646484 41.52392578 C92.49257767 44.40361172 99.50582317 46.70006479 106.59912109 48.94970703 C107.86812042 49.36014621 109.13700124 49.770952 110.40576172 50.18212891 C116.60373648 52.33954827 116.60373648 52.33954827 123.03662109 53.13720703 C123.03662109 53.79720703 123.03662109 54.45720703 123.03662109 55.13720703 C124.06086182 55.26844971 125.08510254 55.39969238 126.14038086 55.53491211 C129.65914585 56.07885554 132.94798921 56.82892234 136.37646484 57.77392578 C137.58826416 58.10102539 138.80006348 58.428125 140.04858398 58.76513672 C140.68716339 58.93799194 141.3257428 59.11084717 141.9836731 59.28894043 C158.85820901 63.83103988 175.83378091 67.1100388 193.03662109 70.13720703 C196.32239913 70.72878562 199.60728166 71.32506237 202.8918457 71.92333984 C204.75804708 72.2626778 206.62471563 72.59946131 208.49194336 72.93310547 C209.30590576 73.0790918 210.11986816 73.22507812 210.95849609 73.37548828 C211.65555664 73.49964111 212.35261719 73.62379395 213.07080078 73.75170898 C213.71952148 73.87892334 214.36824219 74.0061377 215.03662109 74.13720703 C216.09864746 74.34446411 216.09864746 74.34446411 217.18212891 74.5559082 C219.03662109 75.13720703 219.03662109 75.13720703 220.78662109 77.19970703 C222.44402988 81.09461767 222.25075196 83.92596664 222.03662109 88.13720703 C222.69662109 88.46720703 223.35662109 88.79720703 224.03662109 89.13720703 C223.70662109 89.79720703 223.37662109 90.45720703 223.03662109 91.13720703 C222.94952019 93.38013727 222.92961522 95.62575998 222.93896484 97.87036133 C222.94039679 98.56662723 222.94182873 99.26289312 222.94330406 99.98025799 C222.94707545 101.50293236 222.95317567 103.02560228 222.96128464 104.54825974 C222.97429037 106.99324874 222.9814024 109.43819264 222.98696899 111.88320923 C222.99541238 115.37809296 223.00624458 118.87295724 223.01885986 122.36782837 C223.05026883 131.45499154 223.0572587 140.542183 223.06005859 149.62939453 C223.06051744 150.97580363 223.06051744 150.97580363 223.06098557 152.34941292 C223.06568434 185.30931904 222.58506572 218.26395355 220.03662109 251.13720703 C219.94155273 252.37486816 219.84648438 253.6125293 219.74853516 254.88769531 C217.79394349 279.10861073 213.88307118 303.17736845 206.77758789 326.45336914 C205.02639699 332.23784262 205.02639699 332.23784262 206.03662109 338.13720703 C205.04662109 338.46720703 204.05662109 338.79720703 203.03662109 339.13720703 C201.98970942 341.44336175 201.13917113 343.62057519 200.34912109 346.01220703 C200.12417969 346.65029297 199.89923828 347.28837891 199.66748047 347.94580078 C198.6861861 350.80318682 198.03662109 353.09577235 198.03662109 356.13720703 C197.37662109 356.13720703 196.71662109 356.13720703 196.03662109 356.13720703 C195.46041016 358.00119141 195.46041016 358.00119141 194.87255859 359.90283203 C184.52701078 390.8308291 164.37146296 418.84402657 143.03662109 443.13720703 C142.38048828 443.89259766 141.72435547 444.64798828 141.04833984 445.42626953 C139.92566175 446.71573129 138.79851508 448.00132564 137.66552734 449.28173828 C136.4715818 450.64174819 135.29416268 452.01631423 134.12646484 453.39892578 C133.49869141 454.13755859 132.87091797 454.87619141 132.22412109 455.63720703 C131.66080078 456.30751953 131.09748047 456.97783203 130.51708984 457.66845703 C129.03662109 459.13720703 129.03662109 459.13720703 127.03662109 459.13720703 C126.78138672 459.71857422 126.52615234 460.29994141 126.26318359 460.89892578 C122.8946361 467.04598857 116.48642545 471.70866422 111.22412109 476.23095703 C108.6815071 478.44666351 106.20551911 480.72819295 103.72412109 483.01220703 C98.32126288 487.93200365 92.75557432 492.59036389 87.03662109 497.13720703 C86.10978516 497.88228516 85.18294922 498.62736328 84.22802734 499.39501953 C62.42376222 516.57757436 38.64098275 531.1213192 14.24432373 544.29083252 C12.82777623 545.05607528 11.41321642 545.82501035 10.00079346 546.59783936 C8.01064994 547.68329145 6.01175528 548.75049908 4.00927734 549.81298828 C2.85693604 550.43085205 1.70459473 551.04871582 0.51733398 551.68530273 C-4.20073038 553.6533415 -8.46708805 554.70888558 -13.58056641 553.5378418 C-14.32564453 553.20067139 -15.07072266 552.86350098 -15.83837891 552.51611328 C-17.10488281 551.95174561 -17.10488281 551.95174561 -18.39697266 551.37597656 C-19.66734375 550.76278564 -19.66734375 550.76278564 -20.96337891 550.13720703 C-21.77935547 549.7451709 -22.59533203 549.35313477 -23.43603516 548.94921875 C-25.96620522 547.69465939 -28.46721411 546.39557843 -30.96337891 545.07470703 C-32.32849609 544.35408081 -32.32849609 544.35408081 -33.72119141 543.61889648 C-47.78099117 536.11291181 -61.08099949 527.53915396 -74.23681641 518.5559082 C-75.50912109 517.69316284 -75.50912109 517.69316284 -76.80712891 516.81298828 C-77.93924805 516.03822144 -77.93924805 516.03822144 -79.09423828 515.24780273 C-80.88757846 513.96693751 -80.88757846 513.96693751 -82.96337891 514.13720703 C-84.11935952 512.98552374 -85.27096216 511.82915933 -86.40185547 510.65283203 C-89.46210552 507.68253305 -92.94520605 505.21113905 -96.33837891 502.63720703 C-103.17623723 497.39928158 -109.77911729 491.97672654 -116.19140625 486.22509766 C-118.99846436 483.7288803 -121.57316704 481.74223487 -124.96337891 480.13720703 C-125.29671224 478.8038737 -125.63004557 477.47054036 -125.96337891 476.13720703 C-126.53685059 475.85804443 -127.11032227 475.57888184 -127.70117188 475.29125977 C-130.55989175 473.83289922 -132.39606899 471.94654588 -134.65869141 469.67236328 C-135.53912109 468.79 -136.41955078 467.90763672 -137.32666016 466.99853516 C-138.23802734 466.07492187 -139.14939453 465.15130859 -140.08837891 464.19970703 C-141.46703125 462.82008789 -141.46703125 462.82008789 -142.87353516 461.41259766 C-149.68226842 454.55887277 -149.68226842 454.55887277 -151.96337891 451.13720703 C-152.95337891 450.80720703 -153.94337891 450.47720703 -154.96337891 450.13720703 C-156.00073409 448.49353067 -156.99470406 446.82227285 -157.96337891 445.13720703 C-159.41451888 443.36389747 -160.8968945 441.61592474 -162.40087891 439.88720703 C-173.15251874 427.22518485 -182.01798118 413.18332377 -190.71166992 399.06567383 C-191.95928222 397.08904004 -191.95928222 397.08904004 -193.49560547 395.13500977 C-194.9093904 393.21069138 -195.93023446 391.37980194 -196.94384766 389.22314453 C-197.29906494 388.47186279 -197.65428223 387.72058105 -198.02026367 386.9465332 C-198.3933667 386.14320557 -198.76646973 385.33987793 -199.15087891 384.51220703 C-199.54525146 383.66827393 -199.93962402 382.82434082 -200.34594727 381.95483398 C-201.55782029 379.35172199 -202.76098874 376.74471015 -203.96337891 374.13720703 C-204.31625977 373.38004395 -204.66914063 372.62288086 -205.03271484 371.84277344 C-218.06828208 343.81192112 -226.96844162 314.32750184 -231.56640625 283.74853516 C-231.95200128 281.21205028 -232.36924511 278.68278012 -232.79541016 276.15283203 C-236.39232713 254.32326695 -237.38157453 232.22395581 -237.96337891 210.13720703 C-237.99625 208.92786499 -237.99625 208.92786499 -238.02978516 207.6940918 C-238.80678794 178.89912421 -239.08674651 150.10359674 -239.14460373 121.29933548 C-239.1508612 118.83168979 -239.16076405 116.36408308 -239.17166138 113.89645386 C-239.18831392 109.98514333 -239.19447166 106.07394957 -239.1926384 102.16260529 C-239.19343481 100.71291781 -239.1975541 99.26322775 -239.20524979 97.81356049 C-239.21509337 95.81168494 -239.21098481 93.80975559 -239.20629883 91.80786133 C-239.20772385 90.6834111 -239.20914886 89.55896088 -239.21061707 88.4004364 C-238.88614603 84.11783123 -238.12120529 79.96719437 -235.79931641 76.29736328 C-232.94819673 74.49569829 -229.86304715 74.09903808 -226.58837891 73.57470703 C-225.88028076 73.45248779 -225.17218262 73.33026855 -224.44262695 73.2043457 C-222.28476144 72.83603581 -220.12457805 72.48535312 -217.96337891 72.13720703 C-216.09746094 71.82396484 -216.09746094 71.82396484 -214.19384766 71.50439453 C-209.39931782 70.72631083 -204.83052052 70.02153456 -199.96337891 70.13720703 C-199.63337891 69.47720703 -199.30337891 68.81720703 -198.96337891 68.13720703 C-198.05587891 68.15783203 -197.14837891 68.17845703 -196.21337891 68.19970703 C-193.44876005 68.14654128 -191.58338453 67.82934142 -188.96337891 67.13720703 C-187.34032022 66.81225143 -185.71507249 66.49813567 -184.08837891 66.19189453 C-155.860391 60.78444057 -128.32290703 53.66395746 -101.44384766 43.43798828 C-97.66166099 42.02444377 -93.86091097 40.93547142 -89.96728516 39.88330078 C-87.77350176 39.32592999 -87.77350176 39.32592999 -86.96337891 37.13720703 C-84.92452639 36.47065909 -82.88415943 35.80854537 -80.83837891 35.16357422 C-75.50779208 33.26056921 -70.46687612 30.6894558 -65.38867188 28.20410156 C-63.469923 27.26540854 -61.54714281 26.33542721 -59.62353516 25.40673828 C-53.51477247 22.44438249 -47.47727269 19.41889352 -41.61767578 15.98046875 C-39.96337891 15.13720703 -39.96337891 15.13720703 -37.96337891 15.13720703 C-37.63337891 14.47720703 -37.30337891 13.81720703 -36.96337891 13.13720703 C-35.43435265 12.20494636 -33.86301276 11.34168721 -32.27587891 10.51220703 C-26.99626274 7.70978954 -21.81010199 4.77737478 -16.64819336 1.765625 C-10.74917651 -1.64336724 -6.55613522 -2.88104724 0 0 Z M-15.77587891 22.13720703 C-17.13846714 22.97167304 -18.501764 23.80498291 -19.86572266 24.63720703 C-20.5539209 25.05873047 -21.24211914 25.48025391 -21.95117188 25.91455078 C-52.92931167 44.7374729 -85.97278407 59.38675305 -120.50756836 70.3503418 C-122.29435633 70.92284579 -124.07424567 71.51701785 -125.84960938 72.12402344 C-131.73709317 74.03974068 -137.77174145 75.44856408 -143.77587891 76.94970703 C-144.48058319 77.12639923 -145.18528748 77.30309143 -145.91134644 77.48513794 C-160.47359959 81.12379569 -175.18823986 84.74388075 -190.08447266 86.70361328 C-192.85334368 86.82920154 -192.85334368 86.82920154 -193.96337891 88.13720703 C-197.19453764 88.43137322 -200.42673857 88.58605081 -203.66650391 88.75830078 C-207.38994934 89.020979 -211.04512601 89.58325415 -214.73193359 90.16088867 C-216.48361847 90.43419762 -216.48361847 90.43419762 -218.27069092 90.71302795 C-219.60357147 90.9229966 -219.60357147 90.9229966 -220.96337891 91.13720703 C-220.98701919 101.04200283 -221.00454741 110.94679145 -221.01519108 120.85161018 C-221.020311 125.45560864 -221.02719768 130.05958721 -221.03881836 134.66357422 C-221.10057292 159.83891708 -220.80953946 184.97536655 -219.96337891 210.13720703 C-219.92783905 211.19979736 -219.89229919 212.2623877 -219.85568237 213.35717773 C-219.6678615 218.76576118 -219.43847179 224.17051751 -219.15087891 229.57470703 C-219.11080719 230.33786224 -219.07073547 231.10101746 -219.02944946 231.88729858 C-217.71033374 256.26245261 -214.4085396 280.32750873 -208.96337891 304.13720703 C-208.63515137 305.57386719 -208.63515137 305.57386719 -208.30029297 307.03955078 C-198.5186112 348.8920876 -179.51538337 387.42511147 -152.96337891 421.13720703 C-152.29435547 422.00216797 -151.62533203 422.86712891 -150.93603516 423.75830078 C-146.40069437 429.55500423 -141.53112394 434.96822697 -136.52197266 440.35205078 C-134.41057671 442.65041003 -132.38794142 444.98232697 -130.40087891 447.38720703 C-129.59650391 448.29470703 -128.79212891 449.20220703 -127.96337891 450.13720703 C-127.30337891 450.13720703 -126.64337891 450.13720703 -125.96337891 450.13720703 C-125.96337891 450.79720703 -125.96337891 451.45720703 -125.96337891 452.13720703 C-125.30337891 452.13720703 -124.64337891 452.13720703 -123.96337891 452.13720703 C-123.96337891 452.79720703 -123.96337891 453.45720703 -123.96337891 454.13720703 C-122.4125882 455.70584785 -122.4125882 455.70584785 -120.40087891 457.32470703 C-117.68855277 459.62449405 -115.11371248 461.94775168 -112.65087891 464.51220703 C-108.98555664 468.23557739 -104.98835689 471.47441694 -100.92041016 474.74658203 C-97.89823005 477.18987691 -94.93078853 479.69030226 -91.96337891 482.19970703 C-84.37612269 488.53059999 -76.42668514 494.24922217 -68.16650391 499.66455078 C-65.95233794 501.14458725 -63.80642198 502.69830777 -61.65087891 504.26220703 C-49.37446238 512.86135593 -36.15963069 520.13816392 -23.02587891 527.32470703 C-21.48939697 528.17186279 -21.48939697 528.17186279 -19.921875 529.03613281 C-18.95717285 529.55804199 -17.9924707 530.07995117 -16.99853516 530.61767578 C-16.14654541 531.08069092 -15.29455566 531.54370605 -14.41674805 532.02075195 C-11.79908151 533.21197387 -9.83942541 533.94045536 -6.96337891 534.13720703 C-4.08546097 533.12971579 -4.08546097 533.12971579 -1.15869141 531.44580078 C0.53586182 530.53350708 0.53586182 530.53350708 2.26464844 529.6027832 C3.48078154 528.92761368 4.69642821 528.25156734 5.91162109 527.57470703 C7.16737419 526.88712236 8.42339958 526.20003474 9.6796875 525.51342773 C25.35006682 516.89874063 40.80232498 507.86015473 55.19677734 497.22314453 C57.21621774 495.73981417 59.29468099 494.33543074 61.40771484 492.98876953 C62.27525391 492.37775391 63.14279297 491.76673828 64.03662109 491.13720703 C64.03662109 490.47720703 64.03662109 489.81720703 64.03662109 489.13720703 C65.11943359 488.76595703 65.11943359 488.76595703 66.22412109 488.38720703 C69.32668658 487.00828904 71.41952877 485.29563369 74.03662109 483.13720703 C75.31279297 482.10853516 75.31279297 482.10853516 76.61474609 481.05908203 C81.86596449 476.79054778 87.01096546 472.44205301 92.04052734 467.91455078 C93.75979356 466.3836973 95.50410962 464.90565152 97.28662109 463.44970703 C100.05289275 461.19089068 100.05289275 461.19089068 102.47412109 458.69970703 C104.40951837 456.76430975 106.30937715 455.05706841 108.41162109 453.32470703 C111.59662914 450.62392933 114.27252882 447.69660665 116.97021484 444.51611328 C119.00678451 442.17155576 121.11666704 439.90835476 123.24731445 437.64941406 C129.98151267 430.48691871 136.13918222 422.99972699 142.03662109 415.13720703 C142.4565332 414.57952637 142.87644531 414.0218457 143.30908203 413.44726562 C153.91711426 399.25767685 163.16894744 384.00833766 171.03662109 368.13720703 C171.55772461 367.09234131 171.55772461 367.09234131 172.08935547 366.02636719 C191.49757355 326.53918021 200.23437998 281.81490267 203.03662109 238.13720703 C203.118396 236.94522705 203.2001709 235.75324707 203.28442383 234.52514648 C204.17646427 220.73440625 204.36722203 206.92933381 204.56904984 193.11422729 C204.59941203 191.05497521 204.63121153 188.9957493 204.66329956 186.93652344 C205.15575912 155.00402527 205.14211874 123.07261389 205.03662109 91.13720703 C203.94575195 90.94602295 202.85488281 90.75483887 201.73095703 90.55786133 C188.38168858 88.21321041 188.38168858 88.21321041 181.73974609 86.96923828 C180.82451172 86.7984375 179.90927734 86.62763672 178.96630859 86.45166016 C177.13244134 86.10814421 175.29913085 85.76164622 173.46630859 85.41259766 C172.11666016 85.16219727 172.11666016 85.16219727 170.73974609 84.90673828 C169.95245117 84.75825439 169.16515625 84.60977051 168.35400391 84.45678711 C166.01642634 84.06860298 166.01642634 84.06860298 163.55517578 84.21411133 C160.61539868 84.12434497 158.73901044 83.28203334 156.03662109 82.13720703 C153.61986429 81.46704886 151.19268256 80.83398115 148.75927734 80.22705078 C148.07030869 80.05468399 147.38134003 79.8823172 146.67149353 79.70472717 C145.22046416 79.34255253 143.76900285 78.9821045 142.31713867 78.62329102 C140.10856566 78.07704296 137.9016249 77.52455092 135.69482422 76.97119141 C125.73794523 73.53090789 125.73794523 73.53090789 116.03662109 74.13720703 C116.03662109 73.47720703 116.03662109 72.81720703 116.03662109 72.13720703 C115.07622925 71.83484131 115.07622925 71.83484131 114.09643555 71.52636719 C111.1800371 70.60695574 108.26457457 69.68461039 105.34912109 68.76220703 C104.34171875 68.44509766 103.33431641 68.12798828 102.29638672 67.80126953 C101.31992187 67.49189453 100.34345703 67.18251953 99.33740234 66.86376953 C97.99415894 66.4395874 97.99415894 66.4395874 96.6237793 66.00683594 C94.04922459 65.14144348 91.55212606 64.16045912 89.03662109 63.13720703 C87.27251129 62.46783547 85.50677993 61.80272729 83.73974609 61.14111328 C58.68713157 51.68996245 32.9777983 41.73326506 10.20849609 27.44189453 C6.99905437 25.51392054 3.64441799 23.91549514 0.26318359 22.31298828 C-1.96337891 21.13720703 -1.96337891 21.13720703 -4.06494141 19.49267578 C-8.43261016 16.37419624 -11.89301072 19.7066043 -15.77587891 22.13720703 Z " fill="#168BEE" transform="translate(519.96337890625,237.86279296875)"/>
<path d="M0 0 C1.13961088 3.88808419 1.84357926 6.35104129 -0.03515625 10.0234375 C-1.59173548 12.12378174 -3.25123969 14.05693298 -5 16 C-5.93585938 17.12921875 -5.93585938 17.12921875 -6.890625 18.28125 C-10.3133694 22.36553323 -10.3133694 22.36553323 -12 24 C-12.66 24 -13.32 24 -14 24 C-14.32291016 24.80050781 -14.32291016 24.80050781 -14.65234375 25.6171875 C-16.4972779 28.87924498 -18.99756677 31.42663783 -21.5625 34.125 C-22.65153299 35.28730026 -23.74007017 36.45006527 -24.828125 37.61328125 C-25.63540039 38.47300537 -25.63540039 38.47300537 -26.45898438 39.35009766 C-31.20273791 44.42904037 -35.81791041 49.62842168 -40.375 54.875 C-42.85030002 57.722741 -45.38541115 60.50727233 -47.95019531 63.2746582 C-51.99410918 67.63939663 -55.90192681 72.04016739 -59.625 76.6875 C-63.18960307 81.1320141 -67.01021925 85.11898995 -71.15234375 89.02734375 C-72.96357526 90.96111101 -73.84361553 92.64868491 -75 95 C-76.64453319 96.37603797 -78.29100911 97.74984909 -79.94921875 99.109375 C-83.24857021 102.15106282 -85.88975457 105.70306464 -88.6796875 109.20703125 C-90.83747694 111.80437039 -93.07857573 114.15029039 -95.5 116.5 C-98.65864885 119.57695966 -101.49525848 122.7440731 -104.25 126.1875 C-108.89210959 131.98606496 -113.91468655 137.36418351 -118.9921875 142.77734375 C-121.8422557 145.81794331 -124.60488811 148.92348424 -127.328125 152.078125 C-129.35758073 154.41105074 -131.427647 156.70511245 -133.5 159 C-140.2061743 166.43096675 -140.2061743 166.43096675 -146.6953125 174.05078125 C-147.49582031 175.01564453 -147.49582031 175.01564453 -148.3125 176 C-148.78300781 176.5775 -149.25351562 177.155 -149.73828125 177.75 C-151 179 -151 179 -153 179 C-153 179.66 -153 180.32 -153 181 C-156.23963532 183.76554235 -158.13163709 184.98421158 -162.4375 185.0625 C-170.1157882 182.77248422 -173.90705347 178.11509153 -178.609375 171.96875 C-182.05848073 167.68554681 -185.82609639 163.72369207 -189.60791016 159.73461914 C-190.14722168 159.16348389 -190.6865332 158.59234863 -191.2421875 158.00390625 C-191.7254248 157.49674072 -192.20866211 156.9895752 -192.70654297 156.46704102 C-194 155 -194 155 -196 152 C-196.99 151.34 -197.98 150.68 -199 150 C-199.95064979 148.98925166 -200.86512746 147.94380672 -201.75 146.875 C-202.27980469 146.24464844 -202.80960937 145.61429688 -203.35546875 144.96484375 C-203.89816406 144.31644531 -204.44085938 143.66804687 -205 143 C-209.91427985 137.23442758 -215.0546066 131.69096983 -220.22290039 126.15429688 C-223.74818145 122.37081901 -227.19717045 118.53705461 -230.56640625 114.61328125 C-231.96303292 113.04160056 -233.42218647 111.58154791 -234.9375 110.125 C-237 108 -237 108 -237 106 C-237.66 106 -238.32 106 -239 106 C-243.54579816 101.68932933 -247.45681808 96.72215931 -250 91 C-250.08307779 86.84611063 -249.33377461 85.4059421 -246.6875 82.1875 C-244.26419747 80.21504445 -243.04030971 79.33781219 -240 79 C-240 79.66 -240 80.32 -240 81 C-238.89785156 81.12181641 -238.89785156 81.12181641 -237.7734375 81.24609375 C-234.36288312 82.17318811 -233.04623609 83.5145205 -230.625 86.0625 C-229.84125 86.88234375 -229.0575 87.7021875 -228.25 88.546875 C-225.76964762 91.25114808 -223.33514886 93.985094 -220.9453125 96.76953125 C-217.65555285 100.54152475 -214.2399772 104.1990835 -210.84375 107.875 C-208.73939134 110.16680198 -206.68999695 112.50031323 -204.65234375 114.8515625 C-200.25830445 119.89492582 -195.62877666 124.70955525 -190.99023438 129.52734375 C-190.34505859 130.20667969 -189.69988281 130.88601563 -189.03515625 131.5859375 C-188.15935913 132.49931885 -188.15935913 132.49931885 -187.26586914 133.43115234 C-186 135 -186 135 -186 137 C-185.34 137 -184.68 137 -184 137 C-182.765625 138.22265625 -182.765625 138.22265625 -181.25 140.0625 C-177.50105336 144.45480401 -173.65348528 148.74516094 -169.75 153 C-169.13543945 153.68328369 -168.52087891 154.36656738 -167.88769531 155.07055664 C-167.30084961 155.70727295 -166.71400391 156.34398926 -166.109375 157 C-165.58311523 157.5775 -165.05685547 158.155 -164.51464844 158.75 C-162.94167158 160.31825435 -162.94167158 160.31825435 -160 160 C-158.19128274 158.2755491 -156.5715784 156.56628993 -154.9375 154.6875 C-153.95184452 153.58201199 -152.96616696 152.47654367 -151.98046875 151.37109375 C-151.48337402 150.8076123 -150.9862793 150.24413086 -150.47412109 149.66357422 C-148.2610869 147.16612225 -146.00372112 144.71080116 -143.75 142.25 C-140.99013596 139.21284978 -138.25260148 136.16154803 -135.5625 133.0625 C-132.60115815 129.65310643 -129.55819968 126.32231693 -126.5 123 C-119.92186001 115.84333014 -113.61568213 108.62438691 -107.69921875 100.90625 C-107.13847656 100.2771875 -106.57773437 99.648125 -106 99 C-105.34 99 -104.68 99 -104 99 C-103.7321167 98.40993164 -103.4642334 97.81986328 -103.18823242 97.21191406 C-101.98826517 94.97815542 -100.73387987 93.43726575 -98.98828125 91.609375 C-98.39877686 90.98635498 -97.80927246 90.36333496 -97.2019043 89.72143555 C-96.57840088 89.07086182 -95.95489746 88.42028809 -95.3125 87.75 C-94.03296904 86.39797253 -92.75431233 85.04511712 -91.4765625 83.69140625 C-90.86844727 83.0483252 -90.26033203 82.40524414 -89.63378906 81.74267578 C-87.2290742 79.1776945 -84.92028018 76.537525 -82.625 73.875 C-78.25480109 68.8324628 -73.75083364 63.90348733 -69.23828125 58.98828125 C-68.55342651 58.24058472 -68.55342651 58.24058472 -67.85473633 57.4777832 C-66.56125881 56.06682278 -65.26507084 54.65834856 -63.96875 53.25 C-61.97743103 51.16521364 -61.97743103 51.16521364 -61 49 C-60.34 49 -59.68 49 -59 49 C-58.7525 48.443125 -58.505 47.88625 -58.25 47.3125 C-56.77075182 44.57589087 -55.06532561 42.32349131 -53 40 C-52.34 40 -51.68 40 -51 40 C-50.73574219 39.40703125 -50.47148438 38.8140625 -50.19921875 38.203125 C-48.95629575 35.91970946 -47.69598354 34.52573277 -45.8125 32.75 C-42.70268451 29.72958372 -39.84501444 26.58261811 -37.015625 23.30078125 C-34.55519939 20.49227217 -32.03033553 17.74530058 -29.5 15 C-26.30975646 11.53762354 -23.14793916 8.05654923 -20.0625 4.5 C-13.86688596 -2.59545322 -13.86688596 -2.59545322 -11.125 -3.875 C-6.82111943 -4.12816945 -3.49840269 -2.33226846 0 0 Z " fill="#1589EC" transform="translate(636,409)"/>
<path d="M0 0 C5.20630219 1.51918912 9.64771991 3.85222975 14.375 6.4375 C47.1104414 23.93375303 81.72158703 35.86408341 117 47 C113.90226756 47.84062397 111.21667249 48.08935201 108 48 C108 47.34 108 46.68 108 46 C106.783125 45.7525 105.56625 45.505 104.3125 45.25 C77.18428695 39.25505308 50.68239838 26.80807537 25.75 14.8125 C24.56108154 14.24265381 23.37216309 13.67280762 22.1472168 13.08569336 C14.58185099 9.40425402 7.06697317 5.58483178 0 1 C0 0.67 0 0.34 0 0 Z " fill="#0D4B8C" transform="translate(528,264)"/>
<path d="M0 0 C0.99 0.495 0.99 0.495 2 1 C-6.92135504 6.93800801 -16.02786725 12.36023246 -25.4375 17.48828125 C-28.51063133 19.16495329 -31.5461051 20.89128615 -34.5625 22.66796875 C-35.28840332 23.09142578 -36.01430664 23.51488281 -36.76220703 23.95117188 C-38.13866787 24.75662573 -39.50977992 25.57131321 -40.87451172 26.39648438 C-45.47717498 29.06783403 -45.47717498 29.06783403 -47.87792969 28.75634766 C-50.45050636 27.83943066 -52.78901876 26.68200063 -55.2109375 25.41796875 C-56.20867187 24.89783203 -57.20640625 24.37769531 -58.234375 23.84179688 C-59.27078125 23.29587891 -60.3071875 22.74996094 -61.375 22.1875 C-62.40367187 21.65318359 -63.43234375 21.11886719 -64.4921875 20.56835938 C-69.5139115 17.93777844 -74.37460053 15.28228519 -79 12 C-78.34 11.67 -77.68 11.34 -77 11 C-74.46557617 12.15576172 -74.46557617 12.15576172 -71.29296875 13.9296875 C-70.14892578 14.56003906 -69.00488281 15.19039062 -67.82617188 15.83984375 C-66.61283379 16.51742853 -65.39994716 17.19582231 -64.1875 17.875 C-61.83098851 19.19281736 -59.46990732 20.50099369 -57.10546875 21.8046875 C-55.52995239 22.68616455 -55.52995239 22.68616455 -53.92260742 23.58544922 C-51.09453524 24.95424466 -49.13059806 25.84236605 -46 26 C-43.03936082 24.94313068 -43.03936082 24.94313068 -40.01953125 23.203125 C-38.86308105 22.57857422 -37.70663086 21.95402344 -36.51513672 21.31054688 C-35.28067131 20.62415305 -34.04646368 19.9372954 -32.8125 19.25 C-31.55269755 18.56232333 -30.29244096 17.87547802 -29.03173828 17.18945312 C-20.91227924 12.74425909 -12.92880879 8.09461125 -5.15551758 3.06347656 C-3.4709337 1.98727725 -1.73985877 0.98433697 0 0 Z " fill="#0C4B8C" transform="translate(559,745)"/>
<path d="M0 0 C0 3.9236215 -1.31283502 4.91143323 -3.8125 7.875 C-5.88132561 10.33950264 -7.80194958 12.66087257 -9.42578125 15.44140625 C-11.398405 18.64753169 -13.82173273 21.31946286 -16.375 24.0625 C-16.84421875 24.57876953 -17.3134375 25.09503906 -17.796875 25.62695312 C-20.66040487 28.73174725 -23.63562834 31.44919457 -27 34 C-26.53870238 29.33759905 -24.8933916 27.50655583 -21.5 24.375 C-16.98308011 20.04494271 -13.02095926 15.51209406 -9.1171875 10.62890625 C-6.18615804 6.98945454 -3.10834403 3.48814169 0 0 Z " fill="#136FB8" transform="translate(659,656)"/>
<path d="M0 0 C0.33 0 0.66 0 1 0 C1.08302368 1.77044678 1.08302368 1.77044678 1.16772461 3.57666016 C1.37475388 7.97136675 1.58646353 12.36583771 1.79956055 16.76025391 C1.89100001 18.65928171 1.98118386 20.55837042 2.07006836 22.45751953 C2.19832602 25.19320529 2.33115356 27.9286375 2.46484375 30.6640625 C2.50343002 31.50804596 2.5420163 32.35202942 2.58177185 33.22158813 C2.83322089 38.25722191 3.18616343 43.17582541 4.58984375 48.046875 C5.1184041 50.56382905 4.86422199 52.70212543 4.5625 55.25 C4.46066406 56.14203125 4.35882813 57.0340625 4.25390625 57.953125 C4.17011719 58.62859375 4.08632813 59.3040625 4 60 C3.67 60 3.34 60 3 60 C1.30213223 49.03351292 0.46054114 38.13262176 -0.06030273 27.05322266 C-0.18899512 24.34351923 -0.33125095 21.63474433 -0.47460938 18.92578125 C-0.56069687 17.18753949 -0.64601231 15.44925927 -0.73046875 13.7109375 C-0.77310349 12.90884857 -0.81573822 12.10675964 -0.85966492 11.28036499 C-1.03604042 7.33994888 -1.01872545 3.85450676 0 0 Z " fill="#0F5095" transform="translate(283,444)"/>
<path d="M0 0 C0 4.33174693 -2.65822583 6.22353653 -5.5 9.1875 C-6.02464844 9.74630859 -6.54929687 10.30511719 -7.08984375 10.88085938 C-8.38661613 12.26015364 -9.69246259 13.63090644 -11 15 C-14.37591285 13.87469572 -15.28446799 12.83946383 -17.5625 10.1875 C-18.16191406 9.50042969 -18.76132812 8.81335938 -19.37890625 8.10546875 C-20.89648749 6.13444155 -21.97902958 4.26035739 -23 2 C-22.32904297 2.58007812 -22.32904297 2.58007812 -21.64453125 3.171875 C-21.03996094 3.69265625 -20.43539063 4.2134375 -19.8125 4.75 C-18.92498047 5.51570312 -18.92498047 5.51570312 -18.01953125 6.296875 C-15.71488894 8.24044182 -13.35413857 10.11668914 -11 12 C-7.37 8.04 -3.74 4.08 0 0 Z " fill="#0D4988" transform="translate(486,558)"/>
<path d="M0 0 C4.29 0 8.58 0 13 0 C13 0.66 13 1.32 13 2 C13.80824219 2.06058594 14.61648438 2.12117188 15.44921875 2.18359375 C16.51785156 2.26738281 17.58648438 2.35117187 18.6875 2.4375 C19.74324219 2.51871094 20.79898438 2.59992188 21.88671875 2.68359375 C24.65086297 2.96451681 27.28945741 3.40156852 30 4 C30 4.33 30 4.66 30 5 C23.90662385 5.15461854 18.1979638 4.60093792 12.1875 3.625 C11.34251953 3.49867188 10.49753906 3.37234375 9.62695312 3.2421875 C8.81548828 3.11328125 8.00402344 2.984375 7.16796875 2.8515625 C6.07391724 2.67874756 6.07391724 2.67874756 4.95776367 2.50244141 C3 2 3 2 0 0 Z " fill="#0E5699" transform="translate(693,323)"/>
<path d="M0 0 C0.33 0 0.66 0 1 0 C1.82371066 6.11899346 2.13133003 12.20753734 2.1875 18.375 C2.20039063 19.06464844 2.21328125 19.75429688 2.2265625 20.46484375 C2.23377672 24.15131089 2.03101764 26.8691823 0 30 C-1.28736468 19.89913869 -0.73019395 10.11037781 0 0 Z " fill="#1162A5" transform="translate(300,461)"/>
<path d="M0 0 C1.24697084 3.60236019 0.62963914 6.30087007 0 10 C0.33 10.99 0.66 11.98 1 13 C0.01 13.33 -0.98 13.66 -2 14 C-3.24950052 16.55401848 -3.24950052 16.55401848 -4.1875 19.5625 C-4.53167969 20.57441406 -4.87585938 21.58632813 -5.23046875 22.62890625 C-5.48441406 23.41136719 -5.73835937 24.19382812 -6 25 C-7.49678501 20.50964498 -5.52319464 17.41966296 -3.91015625 13.10546875 C-2.97085434 9.9005545 -2.95779929 7.31510005 -3 4 C-1.5 1.625 -1.5 1.625 0 0 Z " fill="#11589A" transform="translate(725,563)"/>
<path d="M0 0 C5.88502111 1.32412975 9.96089209 4.6533458 14 9 C14 9.66 14 10.32 14 11 C9.88416276 10.46147924 7.7329259 8.25615375 4.75 5.5 C3.85796875 4.6853125 2.9659375 3.870625 2.046875 3.03125 C1.37140625 2.3609375 0.6959375 1.690625 0 1 C0 0.67 0 0.34 0 0 Z " fill="#136FBE" transform="translate(405,724)"/>
<path d="M0 0 C0.66 0 1.32 0 2 0 C2 0.66 2 1.32 2 2 C2.66 2 3.32 2 4 2 C4 2.66 4 3.32 4 4 C4.54140625 4.21398437 5.0828125 4.42796875 5.640625 4.6484375 C8.8392797 6.48077943 11.20964484 8.99796606 13.75 11.625 C14.25660156 12.140625 14.76320313 12.65625 15.28515625 13.1875 C16.52803902 14.45383339 17.76465276 15.7263144 19 17 C16 17 16 17 14.45703125 15.71484375 C13.91433594 15.12832031 13.37164062 14.54179688 12.8125 13.9375 C9.59656748 10.55699951 6.19673104 7.54865036 2.6015625 4.578125 C1 3 1 3 0 0 Z " fill="#0D5399" transform="translate(392,688)"/>
<path d="M0 0 C0.66 0.33 1.32 0.66 2 1 C0.10730953 2.91985828 -1.78899017 4.83591037 -3.6875 6.75 C-4.21794922 7.28882813 -4.74839844 7.82765625 -5.29492188 8.3828125 C-8.37931499 11.48612827 -11.51576273 14.33672402 -15 17 C-15.66 16.67 -16.32 16.34 -17 16 C-15.71034824 14.62437146 -14.37310707 13.29233607 -13 12 C-12.34 12 -11.68 12 -11 12 C-10.34 10.68 -9.68 9.36 -9 8 C-8.34 8 -7.68 8 -7 8 C-6.67 7.01 -6.34 6.02 -6 5 C-4.12382302 3.15500602 -2.07262391 1.6316401 0 0 Z " fill="#1159A0" transform="translate(627,691)"/>
<path d="M0 0 C-3.50929215 2.3395281 -6.74660285 2.9025015 -10.8125 3.625 C-11.51181641 3.7590625 -12.21113281 3.893125 -12.93164062 4.03125 C-17.00779124 4.77860783 -20.83709794 5.1437737 -25 5 C-17.71495614 1.09729793 -8.19250564 -0.44283814 0 0 Z " fill="#0C4B8A" transform="translate(348,303)"/>
<path d="M0 0 C0 0.99 0 1.98 0 3 C-0.66 3.66 -1.32 4.32 -2 5 C-2.0825 5.61875 -2.165 6.2375 -2.25 6.875 C-3.60404774 10.71146858 -7.50933202 12.25466601 -11 14 C-9.79618552 11.50638429 -8.54571278 9.31856917 -7 7 C-6.34 7 -5.68 7 -5 7 C-4.731875 6.401875 -4.46375 5.80375 -4.1875 5.1875 C-3.01506533 3.02775192 -1.80630718 1.64209744 0 0 Z " fill="#0D589F" transform="translate(537,501)"/>
<path d="M0 0 C0.33 0 0.66 0 1 0 C0.58955515 6.57791873 0.13391403 12.74051886 -2 19 C-2.33 19 -2.66 19 -3 19 C-2.67 13.72 -2.34 8.44 -2 3 C-1.34 3 -0.68 3 0 3 C0 2.01 0 1.02 0 0 Z " fill="#0F5191" transform="translate(733,528)"/>
<path d="M0 0 C2.34770643 3.52155964 2.37669614 5.50771843 2.625 9.6875 C2.69976562 10.86699219 2.77453125 12.04648437 2.8515625 13.26171875 C2.90054687 14.16535156 2.94953125 15.06898438 3 16 C2.34 16.33 1.68 16.66 1 17 C0.25983299 11.29014022 -0.10469338 5.75813575 0 0 Z " fill="#146EB3" transform="translate(305,514)"/>
<path d="M0 0 C0.33 0 0.66 0 1 0 C1 4.95 1 9.9 1 15 C0.01 15.495 0.01 15.495 -1 16 C-2.22485812 13.55028376 -2.16722808 11.85765539 -2.1875 9.125 C-2.20167969 8.26132812 -2.21585938 7.39765625 -2.23046875 6.5078125 C-1.98859252 3.8758712 -1.32983541 2.26019456 0 0 Z " fill="#1789F1" transform="translate(727,428)"/>
<path d="M0 0 C5.65020618 0.60108576 10.66164461 2.07528683 16 4 C16 4.66 16 5.32 16 6 C6.55106888 5.41448931 6.55106888 5.41448931 3 2 C2.01 1.34 1.02 0.68 0 0 Z " fill="#105AA1" transform="translate(604,299)"/>
<path d="M0 0 C2.375 0.4375 2.375 0.4375 5 2 C6.07001562 4.94119871 6.57343918 7.90584243 7 11 C4.0444623 8.24829249 1.88436685 5.58029701 0 2 C0 1.34 0 0.68 0 0 Z " fill="#0F62A6" transform="translate(331,638)"/>
<path d="M0 0 C0.99 0.33 1.98 0.66 3 1 C4.07421875 6.95703125 4.07421875 6.95703125 4 9 C2.51953125 10.76171875 2.51953125 10.76171875 1 12 C1.01740234 11.07767578 1.01740234 11.07767578 1.03515625 10.13671875 C1.04417969 9.32847656 1.05320312 8.52023437 1.0625 7.6875 C1.07410156 6.88699219 1.08570313 6.08648437 1.09765625 5.26171875 C1.09657855 2.83138666 1.09657855 2.83138666 0 0 Z " fill="#105498" transform="translate(633,408)"/>
<path d="M0 0 C0 3.58912412 -0.66436554 4.10857029 -3 6.6875 C-3.556875 7.31011719 -4.11375 7.93273437 -4.6875 8.57421875 C-5.120625 9.04472656 -5.55375 9.51523437 -6 10 C-6.33 9.01 -6.66 8.02 -7 7 C-4.69 4.69 -2.38 2.38 0 0 Z " fill="#0F5497" transform="translate(486,558)"/>
<path d="M0 0 C1.4540625 0.0309375 1.4540625 0.0309375 2.9375 0.0625 C2.9375 0.7225 2.9375 1.3825 2.9375 2.0625 C-0.6925 2.3925 -4.3225 2.7225 -8.0625 3.0625 C-6.7425 2.4025 -5.4225 1.7425 -4.0625 1.0625 C-3.0625 0.0625 -3.0625 0.0625 0 0 Z " fill="#105495" transform="translate(331.0625,304.9375)"/>
<path d="M0 0 C0.33 0 0.66 0 1 0 C1 2.31 1 4.62 1 7 C0.67 7 0.34 7 0 7 C0 4.69 0 2.38 0 0 Z " fill="#2695EF" transform="translate(280,417)"/>
<path d="M0 0 C0.33 0 0.66 0 1 0 C1 1.98 1 3.96 1 6 C0.67 6 0.34 6 0 6 C0 4.02 0 2.04 0 0 Z " fill="#2491EB" transform="translate(280,433)"/>
<path d="M0 0 C0.66 0.66 1.32 1.32 2 2 C1.01 2.495 1.01 2.495 0 3 C0 2.01 0 1.02 0 0 Z " fill="#2495F4" transform="translate(325,582)"/>
<path d="M0 0 C0.33 0.66 0.66 1.32 1 2 C0.34 1.67 -0.32 1.34 -1 1 C-0.67 0.67 -0.34 0.34 0 0 Z " fill="#2493F0" transform="translate(556,744)"/>
<path d="M0 0 C0.66 0.66 1.32 1.32 2 2 C1.34 2 0.68 2 0 2 C0 1.34 0 0.68 0 0 Z " fill="#258FEC" transform="translate(370,693)"/>
<path d="M0 0 C0.66 0 1.32 0 2 0 C1.67 0.66 1.34 1.32 1 2 C0.67 1.34 0.34 0.68 0 0 Z " fill="#248EEA" transform="translate(355,677)"/>
<path d="M0 0 C0.33 0.66 0.66 1.32 1 2 C0.34 1.67 -0.32 1.34 -1 1 C-0.67 0.67 -0.34 0.34 0 0 Z " fill="#2496F3" transform="translate(733,542)"/>
<path d="" fill="#2393ED" transform="translate(0,0)"/>
<path d="" fill="#2797F0" transform="translate(0,0)"/>
<path d="" fill="#279BF1" transform="translate(0,0)"/>
<path d="M0 0 C3 1 3 1 3 1 Z " fill="#2493F3" transform="translate(333,326)"/>
<path d="M0 0 C3 1 3 1 3 1 Z " fill="#2592F5" transform="translate(341,324)"/>
<path d="M0 0 C3 1 3 1 3 1 Z " fill="#2293F4" transform="translate(602,301)"/>
<path d="M0 0 C3 1 3 1 3 1 Z " fill="#1F92F0" transform="translate(540,248)"/>
<path d="M0 0 C2 1 2 1 2 1 Z " fill="#2390EB" transform="translate(434,750)"/>
<path d="M0 0 C2 1 2 1 2 1 Z " fill="#2392E8" transform="translate(569,736)"/>
<path d="" fill="#2591ED" transform="translate(0,0)"/>
<path d="" fill="#2393F1" transform="translate(0,0)"/>
<path d="" fill="#2393F3" transform="translate(0,0)"/>
<path d="M0 0 C2 1 2 1 2 1 Z " fill="#248FED" transform="translate(400,724)"/>
<path d="" fill="#2491F0" transform="translate(0,0)"/>
<path d="" fill="#2692EC" transform="translate(0,0)"/>
<path d="" fill="#2293EE" transform="translate(0,0)"/>
<path d="M0 0 C2 1 2 1 2 1 Z " fill="#2393F1" transform="translate(667,640)"/>
<path d="" fill="#2894F1" transform="translate(0,0)"/>
<path d="" fill="#2590EE" transform="translate(0,0)"/>
<path d="" fill="#2295F3" transform="translate(0,0)"/>
<path d="" fill="#2193F1" transform="translate(0,0)"/>
<path d="" fill="#2290EC" transform="translate(0,0)"/>
<path d="" fill="#2592EF" transform="translate(0,0)"/>
<path d="" fill="#2894F0" transform="translate(0,0)"/>
<path d="M0 0 C2 1 2 1 2 1 Z " fill="#2292EA" transform="translate(397,488)"/>
<path d="M0 0 C2 1 2 1 2 1 Z " fill="#238FEB" transform="translate(390,488)"/>
<path d="" fill="#1F91ED" transform="translate(0,0)"/>
<path d="" fill="#2590F0" transform="translate(0,0)"/>
<path d="" fill="#2594F2" transform="translate(0,0)"/>
<path d="M0 0 C2 1 2 1 2 1 Z " fill="#2492F1" transform="translate(629,431)"/>
<path d="" fill="#259AF3" transform="translate(0,0)"/>
<path d="" fill="#2999F0" transform="translate(0,0)"/>
<path d="M0 0 C2 1 2 1 2 1 Z " fill="#2593F1" transform="translate(324,327)"/>
<path d="M0 0 C2 1 2 1 2 1 Z " fill="#2295F5" transform="translate(699,326)"/>
<path d="M0 0 C2 1 2 1 2 1 Z " fill="#2295F4" transform="translate(696,326)"/>
<path d="M0 0 C2 1 2 1 2 1 Z " fill="#2392F3" transform="translate(685,324)"/>
<path d="M0 0 C2 1 2 1 2 1 Z " fill="#2592F2" transform="translate(681,323)"/>
<path d="" fill="#2692E8" transform="translate(0,0)"/>
<path d="M0 0 C2 1 2 1 2 1 Z " fill="#2792EC" transform="translate(281,314)"/>
<path d="M0 0 C2 1 2 1 2 1 Z " fill="#2593F4" transform="translate(715,307)"/>
<path d="M0 0 C2 1 2 1 2 1 Z " fill="#2191ED" transform="translate(700,304)"/>
<path d="M0 0 C2 1 2 1 2 1 Z " fill="#229AF3" transform="translate(329,304)"/>
<path d="M0 0 C2 1 2 1 2 1 Z " fill="#2497F4" transform="translate(344,301)"/>
<path d="" fill="#2395F7" transform="translate(0,0)"/>
<path d="M0 0 C2 1 2 1 2 1 Z " fill="#2394F0" transform="translate(459,286)"/>
<path d="" fill="#2395F5" transform="translate(0,0)"/>
<path d="M0 0 C2 1 2 1 2 1 Z " fill="#2497EE" transform="translate(417,280)"/>
<path d="M0 0 C2 1 2 1 2 1 Z " fill="#2491F3" transform="translate(452,264)"/>
<path d="M0 0 C2 1 2 1 2 1 Z " fill="#2393F3" transform="translate(464,259)"/>
<path d="" fill="#2392EF" transform="translate(0,0)"/>
<path d="" fill="#496783" transform="translate(0,0)"/>
<path d="" fill="#496685" transform="translate(0,0)"/>
<path d="" fill="#4D647C" transform="translate(0,0)"/>
<path d="" fill="#486787" transform="translate(0,0)"/>
<path d="" fill="#46688A" transform="translate(0,0)"/>
<path d="" fill="#4B637A" transform="translate(0,0)"/>
<path d="" fill="#4B657F" transform="translate(0,0)"/>
<path d="" fill="#4C6077" transform="translate(0,0)"/>
<path d="" fill="#476885" transform="translate(0,0)"/>
<path d="" fill="#4B6379" transform="translate(0,0)"/>
<path d="" fill="#4E6175" transform="translate(0,0)"/>
<path d="" fill="#4B6278" transform="translate(0,0)"/>
<path d="" fill="#506074" transform="translate(0,0)"/>
<path d="" fill="#486685" transform="translate(0,0)"/>
<path d="" fill="#486A88" transform="translate(0,0)"/>
<path d="" fill="#446C8F" transform="translate(0,0)"/>
<path d="" fill="#506274" transform="translate(0,0)"/>
<path d="" fill="#4B657A" transform="translate(0,0)"/>
<path d="" fill="#466A8A" transform="translate(0,0)"/>
<path d="" fill="#476683" transform="translate(0,0)"/>
<path d="" fill="#4E6277" transform="translate(0,0)"/>
<path d="" fill="#4D6377" transform="translate(0,0)"/>
<path d="" fill="#4D637B" transform="translate(0,0)"/>
<path d="" fill="#456A8E" transform="translate(0,0)"/>
<path d="" fill="#4A647F" transform="translate(0,0)"/>
<path d="" fill="#4D6478" transform="translate(0,0)"/>
<path d="" fill="#4F6277" transform="translate(0,0)"/>
<path d="" fill="#4C647F" transform="translate(0,0)"/>
<path d="" fill="#3D76AA" transform="translate(0,0)"/>
<path d="" fill="#4F6278" transform="translate(0,0)"/>
<path d="" fill="#4E6379" transform="translate(0,0)"/>
<path d="" fill="#268BE2" transform="translate(0,0)"/>
<path d="" fill="#228EE9" transform="translate(0,0)"/>
<path d="" fill="#238DEC" transform="translate(0,0)"/>
<path d="" fill="#2791E7" transform="translate(0,0)"/>
<path d="" fill="#248CE5" transform="translate(0,0)"/>
<path d="" fill="#248DEB" transform="translate(0,0)"/>
<path d="" fill="#258EEE" transform="translate(0,0)"/>
<path d="" fill="#2791EA" transform="translate(0,0)"/>
<path d="" fill="#2590EB" transform="translate(0,0)"/>
<path d="" fill="#2690E8" transform="translate(0,0)"/>
<path d="" fill="#2692ED" transform="translate(0,0)"/>
<path d="" fill="#4B6C8B" transform="translate(0,0)"/>
<path d="" fill="#258CEA" transform="translate(0,0)"/>
<path d="" fill="#249BF3" transform="translate(0,0)"/>
<path d="" fill="#248EEA" transform="translate(0,0)"/>
<path d="" fill="#2093F2" transform="translate(0,0)"/>
<path d="" fill="#2393E7" transform="translate(0,0)"/>
<path d="" fill="#248CEC" transform="translate(0,0)"/>
<path d="" fill="#268EEA" transform="translate(0,0)"/>
<path d="" fill="#218DEC" transform="translate(0,0)"/>
<path d="" fill="#2398F4" transform="translate(0,0)"/>
<path d="" fill="#228FEB" transform="translate(0,0)"/>
<path d="" fill="#2392F3" transform="translate(0,0)"/>
<path d="" fill="#2196EE" transform="translate(0,0)"/>
<path d="" fill="#2491F2" transform="translate(0,0)"/>
<path d="" fill="#1F90F1" transform="translate(0,0)"/>
<path d="" fill="#4C6984" transform="translate(0,0)"/>
<path d="" fill="#268EEA" transform="translate(0,0)"/>
<path d="" fill="#2394F2" transform="translate(0,0)"/>
<path d="" fill="#2594ED" transform="translate(0,0)"/>
<path d="" fill="#2593F1" transform="translate(0,0)"/>
<path d="" fill="#2390EF" transform="translate(0,0)"/>
<path d="" fill="#2394F2" transform="translate(0,0)"/>
<path d="" fill="#228FE6" transform="translate(0,0)"/>
<path d="" fill="#2790EB" transform="translate(0,0)"/>
<path d="" fill="#1D8EEF" transform="translate(0,0)"/>
<path d="" fill="#2090F0" transform="translate(0,0)"/>
<path d="" fill="#2091F2" transform="translate(0,0)"/>
<path d="" fill="#2094F2" transform="translate(0,0)"/>
<path d="" fill="#1F93F6" transform="translate(0,0)"/>
<path d="" fill="#2492EF" transform="translate(0,0)"/>
<path d="" fill="#248FEC" transform="translate(0,0)"/>
<path d="" fill="#2290ED" transform="translate(0,0)"/>
<path d="" fill="#2592EF" transform="translate(0,0)"/>
<path d="" fill="#2890EE" transform="translate(0,0)"/>
<path d="" fill="#1E93F0" transform="translate(0,0)"/>
<path d="" fill="#269AF3" transform="translate(0,0)"/>
<path d="" fill="#2591EF" transform="translate(0,0)"/>
<path d="" fill="#2696EC" transform="translate(0,0)"/>
<path d="" fill="#238EEE" transform="translate(0,0)"/>
<path d="" fill="#2495F1" transform="translate(0,0)"/>
<path d="" fill="#2593EF" transform="translate(0,0)"/>
<path d="" fill="#2392EC" transform="translate(0,0)"/>
<path d="" fill="#2590EC" transform="translate(0,0)"/>
<path d="" fill="#2592F2" transform="translate(0,0)"/>
<path d="" fill="#4B6988" transform="translate(0,0)"/>
<path d="" fill="#2790E6" transform="translate(0,0)"/>
<path d="" fill="#2591EE" transform="translate(0,0)"/>
<path d="" fill="#2393F0" transform="translate(0,0)"/>
<path d="" fill="#2397EF" transform="translate(0,0)"/>
<path d="" fill="#2593E9" transform="translate(0,0)"/>
<path d="" fill="#238FEF" transform="translate(0,0)"/>
<path d="" fill="#2892ED" transform="translate(0,0)"/>
<path d="" fill="#238EEE" transform="translate(0,0)"/>
<path d="" fill="#2396F5" transform="translate(0,0)"/>
<path d="" fill="#2293EC" transform="translate(0,0)"/>
<path d="" fill="#2090EC" transform="translate(0,0)"/>
<path d="" fill="#248EED" transform="translate(0,0)"/>
<path d="" fill="#2390EC" transform="translate(0,0)"/>
<path d="" fill="#2297F3" transform="translate(0,0)"/>
<path d="" fill="#2393F1" transform="translate(0,0)"/>
<path d="" fill="#2594ED" transform="translate(0,0)"/>
<path d="" fill="#2490EF" transform="translate(0,0)"/>
<path d="" fill="#2495F6" transform="translate(0,0)"/>
<path d="" fill="#208DEC" transform="translate(0,0)"/>
<path d="" fill="#248EEC" transform="translate(0,0)"/>
<path d="" fill="#1C92F0" transform="translate(0,0)"/>
<path d="" fill="#258EEC" transform="translate(0,0)"/>
<path d="" fill="#258FEE" transform="translate(0,0)"/>
<path d="" fill="#2491EA" transform="translate(0,0)"/>
<path d="" fill="#1D8DED" transform="translate(0,0)"/>
<path d="" fill="#2794EE" transform="translate(0,0)"/>
<path d="" fill="#2490EC" transform="translate(0,0)"/>
<path d="" fill="#2592EB" transform="translate(0,0)"/>
<path d="" fill="#258DEC" transform="translate(0,0)"/>
<path d="" fill="#259BF2" transform="translate(0,0)"/>
<path d="" fill="#229AF8" transform="translate(0,0)"/>
<path d="" fill="#2693F0" transform="translate(0,0)"/>
<path d="" fill="#2391F0" transform="translate(0,0)"/>
<path d="" fill="#218EEF" transform="translate(0,0)"/>
<path d="" fill="#278FED" transform="translate(0,0)"/>
<path d="" fill="#2493F2" transform="translate(0,0)"/>
<path d="" fill="#229CF6" transform="translate(0,0)"/>
<path d="" fill="#2592F0" transform="translate(0,0)"/>
<path d="" fill="#208FEC" transform="translate(0,0)"/>
<path d="" fill="#2591F0" transform="translate(0,0)"/>
<path d="" fill="#2391EA" transform="translate(0,0)"/>
<path d="" fill="#2491F0" transform="translate(0,0)"/>
<path d="" fill="#506882" transform="translate(0,0)"/>
<path d="" fill="#2291F0" transform="translate(0,0)"/>
<path d="" fill="#2493EC" transform="translate(0,0)"/>
<path d="" fill="#258EE8" transform="translate(0,0)"/>
<path d="" fill="#249FF5" transform="translate(0,0)"/>
<path d="" fill="#2698F3" transform="translate(0,0)"/>
<path d="" fill="#4A6F92" transform="translate(0,0)"/>
<path d="" fill="#2495F6" transform="translate(0,0)"/>
<path d="" fill="#51677F" transform="translate(0,0)"/>
<path d="" fill="#2392F4" transform="translate(0,0)"/>
<path d="" fill="#248EEC" transform="translate(0,0)"/>
<path d="" fill="#2891F1" transform="translate(0,0)"/>
<path d="" fill="#2491F2" transform="translate(0,0)"/>
<path d="" fill="#2297F1" transform="translate(0,0)"/>
<path d="" fill="#1E90ED" transform="translate(0,0)"/>
<path d="" fill="#2191F2" transform="translate(0,0)"/>
<path d="" fill="#258EEE" transform="translate(0,0)"/>
<path d="" fill="#2790EF" transform="translate(0,0)"/>
<path d="" fill="#2598F6" transform="translate(0,0)"/>
<path d="" fill="#268EEE" transform="translate(0,0)"/>
<path d="" fill="#219AF0" transform="translate(0,0)"/>
<path d="" fill="#2295ED" transform="translate(0,0)"/>
<path d="" fill="#2093F3" transform="translate(0,0)"/>
<path d="" fill="#2992EF" transform="translate(0,0)"/>
<path d="" fill="#2493F1" transform="translate(0,0)"/>
<path d="" fill="#1F8FEC" transform="translate(0,0)"/>
<path d="" fill="#2495F0" transform="translate(0,0)"/>
<path d="" fill="#2793F1" transform="translate(0,0)"/>
<path d="" fill="#2394F2" transform="translate(0,0)"/>
<path d="" fill="#2691EF" transform="translate(0,0)"/>
<path d="" fill="#2194F0" transform="translate(0,0)"/>
<path d="" fill="#1F91F0" transform="translate(0,0)"/>
<path d="" fill="#238FEA" transform="translate(0,0)"/>
<path d="" fill="#2199F6" transform="translate(0,0)"/>
<path d="" fill="#2593F1" transform="translate(0,0)"/>
<path d="" fill="#2593EE" transform="translate(0,0)"/>
<path d="" fill="#2795ED" transform="translate(0,0)"/>
<path d="" fill="#218FF2" transform="translate(0,0)"/>
<path d="" fill="#269CF0" transform="translate(0,0)"/>
<path d="" fill="#2397F0" transform="translate(0,0)"/>
<path d="" fill="#2397F7" transform="translate(0,0)"/>
<path d="" fill="#2995F1" transform="translate(0,0)"/>
<path d="" fill="#2494F0" transform="translate(0,0)"/>
<path d="" fill="#268FED" transform="translate(0,0)"/>
<path d="" fill="#2491F1" transform="translate(0,0)"/>
<path d="" fill="#4D6D8B" transform="translate(0,0)"/>
<path d="" fill="#2394F7" transform="translate(0,0)"/>
<path d="" fill="#248BE8" transform="translate(0,0)"/>
<path d="" fill="#2793F1" transform="translate(0,0)"/>
<path d="" fill="#238FF2" transform="translate(0,0)"/>
<path d="" fill="#248FEE" transform="translate(0,0)"/>
<path d="" fill="#2594F0" transform="translate(0,0)"/>
<path d="" fill="#2296ED" transform="translate(0,0)"/>
<path d="" fill="#2792EC" transform="translate(0,0)"/>
<path d="" fill="#2196EE" transform="translate(0,0)"/>
<path d="" fill="#2193EF" transform="translate(0,0)"/>
<path d="" fill="#2495ED" transform="translate(0,0)"/>
<path d="" fill="#2191EE" transform="translate(0,0)"/>
<path d="" fill="#2993F0" transform="translate(0,0)"/>
<path d="" fill="#2696F0" transform="translate(0,0)"/>
<path d="" fill="#2394F3" transform="translate(0,0)"/>
<path d="" fill="#2393F4" transform="translate(0,0)"/>
<path d="" fill="#238FF3" transform="translate(0,0)"/>
<path d="" fill="#2293EE" transform="translate(0,0)"/>
<path d="" fill="#2490F1" transform="translate(0,0)"/>
<path d="" fill="#2392EE" transform="translate(0,0)"/>
<path d="" fill="#2291F1" transform="translate(0,0)"/>
<path d="" fill="#248FE5" transform="translate(0,0)"/>
<path d="" fill="#2098F2" transform="translate(0,0)"/>
<path d="" fill="#1C97F1" transform="translate(0,0)"/>
<path d="" fill="#2298F7" transform="translate(0,0)"/>
<path d="" fill="#2390EF" transform="translate(0,0)"/>
<path d="" fill="#2697EE" transform="translate(0,0)"/>
<path d="" fill="#2790EC" transform="translate(0,0)"/>
<path d="" fill="#2393F4" transform="translate(0,0)"/>
<path d="" fill="#2392F4" transform="translate(0,0)"/>
<path d="" fill="#2492F1" transform="translate(0,0)"/>
<path d="" fill="#2290F2" transform="translate(0,0)"/>
<path d="" fill="#238FEE" transform="translate(0,0)"/>
<path d="" fill="#228EEE" transform="translate(0,0)"/>
<path d="" fill="#2593F6" transform="translate(0,0)"/>
<path d="" fill="#2390F1" transform="translate(0,0)"/>
<path d="" fill="#1D97F0" transform="translate(0,0)"/>
<path d="" fill="#2391F1" transform="translate(0,0)"/>
<path d="" fill="#228DEB" transform="translate(0,0)"/>
<path d="" fill="#2196EE" transform="translate(0,0)"/>
<path d="" fill="#2591EF" transform="translate(0,0)"/>
<path d="" fill="#2493F4" transform="translate(0,0)"/>
<path d="" fill="#1D97EE" transform="translate(0,0)"/>
<path d="" fill="#2091EF" transform="translate(0,0)"/>
<path d="" fill="#1A93EE" transform="translate(0,0)"/>
<path d="" fill="#1F8FF3" transform="translate(0,0)"/>
<path d="" fill="#258EF0" transform="translate(0,0)"/>
<path d="" fill="#2694F0" transform="translate(0,0)"/>
<path d="" fill="#2191F0" transform="translate(0,0)"/>
<path d="" fill="#2895F1" transform="translate(0,0)"/>
<path d="" fill="#2592F2" transform="translate(0,0)"/>
<path d="" fill="#2592EF" transform="translate(0,0)"/>
<path d="" fill="#2591EF" transform="translate(0,0)"/>
<path d="" fill="#2494F1" transform="translate(0,0)"/>
<path d="" fill="#268DE4" transform="translate(0,0)"/>
<path d="" fill="#219BF7" transform="translate(0,0)"/>
<path d="" fill="#258FEA" transform="translate(0,0)"/>
<path d="" fill="#2899F3" transform="translate(0,0)"/>
<path d="" fill="#2494EF" transform="translate(0,0)"/>
<path d="" fill="#2597F2" transform="translate(0,0)"/>
<path d="" fill="#2691F1" transform="translate(0,0)"/>
<path d="" fill="#269FF2" transform="translate(0,0)"/>
<path d="" fill="#2896F2" transform="translate(0,0)"/>
<path d="" fill="#2592F1" transform="translate(0,0)"/>
<path d="" fill="#2291EF" transform="translate(0,0)"/>
<path d="" fill="#2795F4" transform="translate(0,0)"/>
<path d="" fill="#2793F2" transform="translate(0,0)"/>
<path d="" fill="#2592EE" transform="translate(0,0)"/>
<path d="" fill="#2999F5" transform="translate(0,0)"/>
<path d="" fill="#2395F2" transform="translate(0,0)"/>
<path d="" fill="#2496F3" transform="translate(0,0)"/>
<path d="" fill="#248EEB" transform="translate(0,0)"/>
<path d="" fill="#427AAC" transform="translate(0,0)"/>
<path d="" fill="#2592EC" transform="translate(0,0)"/>
<path d="" fill="#2B93F0" transform="translate(0,0)"/>
<path d="" fill="#2392EE" transform="translate(0,0)"/>
<path d="" fill="#2499F4" transform="translate(0,0)"/>
<path d="" fill="#2594EC" transform="translate(0,0)"/>
<path d="" fill="#2690EB" transform="translate(0,0)"/>
<path d="" fill="#2498F3" transform="translate(0,0)"/>
<path d="" fill="#2694EE" transform="translate(0,0)"/>
<path d="" fill="#2791F0" transform="translate(0,0)"/>
<path d="" fill="#2691F0" transform="translate(0,0)"/>
<path d="" fill="#248EED" transform="translate(0,0)"/>
<path d="" fill="#4C6F8F" transform="translate(0,0)"/>
<path d="" fill="#2899F4" transform="translate(0,0)"/>
<path d="" fill="#2598F2" transform="translate(0,0)"/>
<path d="" fill="#2495F5" transform="translate(0,0)"/>
<path d="" fill="#2294EF" transform="translate(0,0)"/>
<path d="" fill="#2494F0" transform="translate(0,0)"/>
<path d="" fill="#2394F5" transform="translate(0,0)"/>
<path d="" fill="#2695F4" transform="translate(0,0)"/>
<path d="" fill="#2596F1" transform="translate(0,0)"/>
<path d="" fill="#2392F3" transform="translate(0,0)"/>
<path d="" fill="#2594F1" transform="translate(0,0)"/>
<path d="" fill="#2797F3" transform="translate(0,0)"/>
<path d="" fill="#2495F2" transform="translate(0,0)"/>
<path d="" fill="#2597F2" transform="translate(0,0)"/>
<path d="" fill="#2699F4" transform="translate(0,0)"/>
<path d="" fill="#2493EE" transform="translate(0,0)"/>
<path d="" fill="#2491EC" transform="translate(0,0)"/>
<path d="" fill="#238FF0" transform="translate(0,0)"/>
<path d="" fill="#2496F5" transform="translate(0,0)"/>
<path d="" fill="#2595F6" transform="translate(0,0)"/>
<path d="" fill="#2391EE" transform="translate(0,0)"/>
<path d="" fill="#289FF8" transform="translate(0,0)"/>
<path d="" fill="#2794F0" transform="translate(0,0)"/>
<path d="" fill="#279FF6" transform="translate(0,0)"/>
<path d="" fill="#2699F6" transform="translate(0,0)"/>
<path d="" fill="#2B9DF3" transform="translate(0,0)"/>
<path d="" fill="#4D6982" transform="translate(0,0)"/>
<path d="" fill="#4678A4" transform="translate(0,0)"/>
<path d="" fill="#2293F4" transform="translate(0,0)"/>
<path d="" fill="#2B99F8" transform="translate(0,0)"/>
<path d="" fill="#2491F0" transform="translate(0,0)"/>
<path d="" fill="#2792F8" transform="translate(0,0)"/>
<path d="" fill="#2296EE" transform="translate(0,0)"/>
<path d="" fill="#2693F9" transform="translate(0,0)"/>
<path d="" fill="#2296F8" transform="translate(0,0)"/>
<path d="" fill="#2693F6" transform="translate(0,0)"/>
<path d="" fill="#2592F2" transform="translate(0,0)"/>
<path d="" fill="#2396F5" transform="translate(0,0)"/>
<path d="" fill="#2795F6" transform="translate(0,0)"/>
<path d="" fill="#2393F3" transform="translate(0,0)"/>
<path d="" fill="#2594F6" transform="translate(0,0)"/>
<path d="" fill="#2393F6" transform="translate(0,0)"/>
<path d="" fill="#2594F1" transform="translate(0,0)"/>
<path d="" fill="#2096F4" transform="translate(0,0)"/>
<path d="" fill="#2396F6" transform="translate(0,0)"/>
<path d="" fill="#2194F3" transform="translate(0,0)"/>
<path d="" fill="#2496F4" transform="translate(0,0)"/>
<path d="" fill="#278FE9" transform="translate(0,0)"/>
<path d="" fill="#2694EA" transform="translate(0,0)"/>
<path d="" fill="#2990EB" transform="translate(0,0)"/>
<path d="" fill="#2693F1" transform="translate(0,0)"/>
<path d="" fill="#2393F5" transform="translate(0,0)"/>
<path d="" fill="#2493F3" transform="translate(0,0)"/>
<path d="" fill="#2292F2" transform="translate(0,0)"/>
<path d="" fill="#2595F6" transform="translate(0,0)"/>
<path d="" fill="#2590EF" transform="translate(0,0)"/>
<path d="" fill="#2994EE" transform="translate(0,0)"/>
<path d="" fill="#2992EE" transform="translate(0,0)"/>
<path d="" fill="#2694F5" transform="translate(0,0)"/>
<path d="" fill="#2395F4" transform="translate(0,0)"/>
<path d="" fill="#2597F6" transform="translate(0,0)"/>
<path d="" fill="#2391F3" transform="translate(0,0)"/>
<path d="" fill="#2594F2" transform="translate(0,0)"/>
<path d="" fill="#2296F3" transform="translate(0,0)"/>
<path d="" fill="#2594F3" transform="translate(0,0)"/>
<path d="" fill="#2395EE" transform="translate(0,0)"/>
<path d="" fill="#2290EE" transform="translate(0,0)"/>
<path d="" fill="#2293F2" transform="translate(0,0)"/>
<path d="" fill="#2693F0" transform="translate(0,0)"/>
<path d="" fill="#2592F4" transform="translate(0,0)"/>
<path d="" fill="#2192F3" transform="translate(0,0)"/>
<path d="" fill="#2591F4" transform="translate(0,0)"/>
<path d="" fill="#2796F4" transform="translate(0,0)"/>
<path d="" fill="#2593F3" transform="translate(0,0)"/>
<path d="" fill="#1E92F3" transform="translate(0,0)"/>
<path d="" fill="#2492F3" transform="translate(0,0)"/>
<path d="" fill="#2693F2" transform="translate(0,0)"/>
<path d="" fill="#2695F3" transform="translate(0,0)"/>
<path d="" fill="#2396F5" transform="translate(0,0)"/>
<path d="" fill="#2495F5" transform="translate(0,0)"/>
<path d="" fill="#2495F6" transform="translate(0,0)"/>
<path d="" fill="#1E96ED" transform="translate(0,0)"/>
<path d="" fill="#2693F0" transform="translate(0,0)"/>
<path d="" fill="#2498FB" transform="translate(0,0)"/>
<path d="" fill="#2094F4" transform="translate(0,0)"/>
<path d="" fill="#2493F6" transform="translate(0,0)"/>
<path d="" fill="#2493F4" transform="translate(0,0)"/>
<path d="" fill="#2495F7" transform="translate(0,0)"/>
<path d="" fill="#269CF8" transform="translate(0,0)"/>
<path d="" fill="#2397F1" transform="translate(0,0)"/>
<path d="" fill="#2395F5" transform="translate(0,0)"/>
<path d="" fill="#2494F4" transform="translate(0,0)"/>
<path d="" fill="#2192EB" transform="translate(0,0)"/>
<path d="" fill="#2391F2" transform="translate(0,0)"/>
<path d="" fill="#299BF9" transform="translate(0,0)"/>
<path d="" fill="#2192F1" transform="translate(0,0)"/>
<path d="" fill="#2293F1" transform="translate(0,0)"/>
<path d="" fill="#2595F3" transform="translate(0,0)"/>
<path d="" fill="#2998F8" transform="translate(0,0)"/>
<path d="" fill="#2694F8" transform="translate(0,0)"/>
<path d="" fill="#2393F5" transform="translate(0,0)"/>
<path d="" fill="#2691ED" transform="translate(0,0)"/>
<path d="" fill="#2492EA" transform="translate(0,0)"/>
<path d="" fill="#1D9AF1" transform="translate(0,0)"/>
<path d="" fill="#2292F5" transform="translate(0,0)"/>
<path d="" fill="#2496F3" transform="translate(0,0)"/>
<path d="" fill="#2499F4" transform="translate(0,0)"/>
<path d="" fill="#2595F1" transform="translate(0,0)"/>
<path d="" fill="#259EF9" transform="translate(0,0)"/>
<path d="" fill="#2794F2" transform="translate(0,0)"/>
<path d="" fill="#2594F4" transform="translate(0,0)"/>
<path d="" fill="#2694F4" transform="translate(0,0)"/>
<path d="" fill="#2190EE" transform="translate(0,0)"/>
<path d="" fill="#2693EF" transform="translate(0,0)"/>
<path d="" fill="#2295F3" transform="translate(0,0)"/>
<path d="" fill="#2694EF" transform="translate(0,0)"/>
<path d="" fill="#2295F6" transform="translate(0,0)"/>
<path d="" fill="#2194F3" transform="translate(0,0)"/>
<path d="" fill="#2196EE" transform="translate(0,0)"/>
<path d="" fill="#2494F2" transform="translate(0,0)"/>
<path d="" fill="#2491F2" transform="translate(0,0)"/>
<path d="" fill="#2694F0" transform="translate(0,0)"/>
<path d="" fill="#2496EE" transform="translate(0,0)"/>
<path d="" fill="#2390F0" transform="translate(0,0)"/>
<path d="" fill="#2793F1" transform="translate(0,0)"/>
<path d="" fill="#2792EF" transform="translate(0,0)"/>
<path d="" fill="#4B6E8F" transform="translate(0,0)"/>
<path d="" fill="#4C6A85" transform="translate(0,0)"/>
<path d="" fill="#4C6884" transform="translate(0,0)"/>
<path d="" fill="#477299" transform="translate(0,0)"/>
<path d="" fill="#4E6377" transform="translate(0,0)"/>
<path d="" fill="#4E697F" transform="translate(0,0)"/>
<path d="" fill="#4A6B8B" transform="translate(0,0)"/>
<path d="" fill="#4A6D8E" transform="translate(0,0)"/>
<path d="" fill="#506379" transform="translate(0,0)"/>
<path d="" fill="#4D6C89" transform="translate(0,0)"/>
<path d="" fill="#4E6175" transform="translate(0,0)"/>
<path d="" fill="#4C6B8B" transform="translate(0,0)"/>
<path d="" fill="#4D6B8A" transform="translate(0,0)"/>
<path d="" fill="#4C6989" transform="translate(0,0)"/>
<path d="" fill="#50647B" transform="translate(0,0)"/>
<path d="" fill="#4D677F" transform="translate(0,0)"/>
<path d="" fill="#4D6984" transform="translate(0,0)"/>
<path d="" fill="#4D6A84" transform="translate(0,0)"/>
<path d="" fill="#4E6B89" transform="translate(0,0)"/>
</svg>
