<?xml version="1.0" encoding="UTF-8"?>
<svg version="1.1" xmlns="http://www.w3.org/2000/svg" width="1024" height="1024">
<path d="M0 0 C1.88549564 -0.00599499 3.77098884 -0.01280274 5.65647888 -0.02035522 C10.74766975 -0.0379241 15.83879326 -0.04270675 20.93001151 -0.0439868 C24.11960078 -0.04541419 27.30917324 -0.04969487 30.49875832 -0.05498123 C41.65120138 -0.07345168 52.80359683 -0.08165563 63.95605469 -0.08007812 C74.31137273 -0.07887769 84.66648203 -0.09996863 95.02174729 -0.13156545 C103.94618247 -0.15781491 112.87054983 -0.16844179 121.79502326 -0.16716731 C127.1101704 -0.1666602 132.42513181 -0.17220319 137.7402401 -0.19352341 C142.74483788 -0.21305246 147.74907555 -0.21293116 152.7536869 -0.19849014 C154.57681436 -0.19641898 156.39996524 -0.20100023 158.22305298 -0.21321106 C183.23248873 -0.3696992 206.05165669 6.29292978 224.28637695 24.04052734 C229.47738816 29.2667902 233.52690832 34.82887623 237.09887695 41.29052734 C237.4959082 41.97630859 237.89293945 42.66208984 238.30200195 43.36865234 C246.8485676 59.05861614 246.40027797 78.27158557 246.35766602 95.64575195 C246.3603834 97.53183628 246.36394849 99.41791955 246.36828613 101.30400085 C246.37732423 106.37844012 246.37390149 111.45279713 246.36752796 116.52723765 C246.36242239 121.86838531 246.36717204 127.20952647 246.37030029 132.55067444 C246.37392708 141.51694996 246.36917511 150.48319241 246.35961914 159.44946289 C246.34874043 169.77526627 246.35226117 180.10099062 246.36327195 190.42679209 C246.37238565 199.33431987 246.37361014 208.24182404 246.36839461 217.14935499 C246.36529683 222.45096699 246.36480455 227.752542 246.37146759 233.05415154 C246.37730005 238.0423084 246.37313774 243.03036467 246.36167908 248.01851082 C246.35906358 249.83518432 246.35974336 251.65186647 246.36420441 253.46853638 C246.3970821 268.23329243 245.994843 283.16759996 241.47387695 297.35302734 C241.21517822 298.18390869 240.95647949 299.01479004 240.68994141 299.87084961 C228.77235603 336.5497884 197.63944775 362.91363022 171.11866236 389.33920431 C167.91442726 392.53331481 164.71355601 395.73079251 161.51242065 398.92800903 C153.41924451 407.01019496 145.32176547 415.08806338 137.22387695 423.16552734 C128.42849521 431.93882137 119.63391198 440.71290852 110.84415138 449.49183476 C107.04350032 453.2875104 103.24042775 457.08073779 99.4354651 460.87209105 C97.08040442 463.21970748 94.72740402 465.56938049 92.37496567 467.91962433 C91.28336184 469.0093531 90.19089241 470.09821557 89.09750366 471.18615341 C87.60786855 472.6685929 86.12133119 474.15407116 84.63552856 475.64035034 C83.80272936 476.47092894 82.96993015 477.30150753 82.11189461 478.15725517 C79.95762137 480.32083759 79.95762137 480.32083759 78.09887695 483.29052734 C77.43887695 483.29052734 76.77887695 483.29052734 76.09887695 483.29052734 C76.09887695 483.95052734 76.09887695 484.61052734 76.09887695 485.29052734 C74.77619968 486.30457992 73.44162864 487.30320993 72.09887695 488.29052734 C71.43887695 489.28052734 70.77887695 490.27052734 70.09887695 491.29052734 C67.48701062 494.04749736 64.78917556 496.5819667 61.84887695 498.97802734 C59.08145501 500.99475954 59.08145501 500.99475954 58.09887695 503.29052734 C57.43887695 503.29052734 56.77887695 503.29052734 56.09887695 503.29052734 C55.75856445 504.12583984 55.75856445 504.12583984 55.41137695 504.97802734 C53.72482214 507.9495763 51.54331589 509.89322634 49.09887695 512.29052734 C48.00957549 513.3991823 46.92243086 514.5099595 45.8371582 515.62255859 C44.6952939 516.78277663 43.55336596 517.94293205 42.41137695 519.10302734 C41.8306543 519.70050781 41.24993164 520.29798828 40.65161133 520.91357422 C39.17162119 522.41067407 37.63904913 523.85541466 36.09887695 525.29052734 C35.43887695 525.29052734 34.77887695 525.29052734 34.09887695 525.29052734 C34.09887695 525.95052734 34.09887695 526.61052734 34.09887695 527.29052734 C32.63793945 528.69287109 32.63793945 528.69287109 30.72387695 530.22802734 C28.25986172 532.21039351 26.89421259 533.59752389 25.09887695 536.29052734 C24.43887695 536.29052734 23.77887695 536.29052734 23.09887695 536.29052734 C23.09887695 536.95052734 23.09887695 537.61052734 23.09887695 538.29052734 C22.43887695 538.29052734 21.77887695 538.29052734 21.09887695 538.29052734 C21.09887695 538.95052734 21.09887695 539.61052734 21.09887695 540.29052734 C19.21899513 541.94906825 17.3462877 543.47190729 15.34887695 544.97802734 C14.46196167 545.64741333 14.46196167 545.64741333 13.55712891 546.33032227 C1.04986634 555.61938087 -12.9969366 562.81905937 -28.90112305 563.29052734 C-29.87952148 563.3659375 -29.87952148 563.3659375 -30.87768555 563.44287109 C-48.6376308 564.27432921 -65.28994612 557.23815721 -78.90112305 546.29052734 C-79.56499023 545.77876953 -80.22885742 545.26701172 -80.9128418 544.73974609 C-82.29188463 543.65001294 -83.60692872 542.479787 -84.90112305 541.29052734 C-84.90112305 540.63052734 -84.90112305 539.97052734 -84.90112305 539.29052734 C-85.47862305 539.04302734 -86.05612305 538.79552734 -86.65112305 538.54052734 C-89.23052284 537.10752746 -90.96233897 535.50628058 -92.90112305 533.29052734 C-92.90112305 532.63052734 -92.90112305 531.97052734 -92.90112305 531.29052734 C-93.44860703 531.06868774 -93.996091 530.84684814 -94.56016541 530.61828613 C-97.62798546 528.87826104 -99.90567931 526.54051456 -102.35644531 524.04638672 C-102.88865692 523.51286087 -103.42086853 522.97933502 -103.96920776 522.42964172 C-105.72329486 520.66907574 -107.47029843 518.90164548 -109.2175293 517.13427734 C-110.43722877 515.90830559 -111.65744607 514.68284882 -112.87815857 513.45788574 C-116.08864949 510.23409965 -119.29352553 507.00479381 -122.49682617 503.77386475 C-127.6263851 498.60116684 -132.76267715 493.43517634 -137.90223503 488.27241516 C-139.69663291 486.46779279 -141.48757939 484.65979647 -143.2782135 482.85144043 C-144.37709154 481.74573441 -145.47607954 480.64013767 -146.57519531 479.53466797 C-147.32102623 478.778731 -147.32102623 478.778731 -148.08192444 478.00752258 C-150.27012068 475.81213399 -152.30833733 474.01905115 -154.90112305 472.29052734 C-156.58875156 470.64508954 -158.25515794 468.97764158 -159.90112305 467.29052734 C-160.49924805 466.73365234 -161.09737305 466.17677734 -161.71362305 465.60302734 C-162.90112305 464.29052734 -162.90112305 464.29052734 -162.90112305 462.29052734 C-163.89112305 461.96052734 -164.88112305 461.63052734 -165.90112305 461.29052734 C-165.90112305 460.63052734 -165.90112305 459.97052734 -165.90112305 459.29052734 C-166.47099945 459.04629532 -167.04087585 458.80206329 -167.62802124 458.5504303 C-170.31165134 457.06298549 -172.11132948 455.31300357 -174.27075195 453.13208008 C-175.12488678 452.2745665 -175.97902161 451.41705292 -176.85903931 450.53355408 C-177.77269257 449.60644119 -178.68634583 448.67932831 -179.62768555 447.72412109 C-180.58073662 446.76479629 -181.53430689 445.80598704 -182.4883728 444.84767151 C-184.99398862 442.3287766 -187.49396961 439.8043693 -189.99237061 437.27832031 C-193.99707296 433.23042984 -198.00857141 429.1893015 -202.02329636 425.15135384 C-203.42495806 423.73945975 -204.8230501 422.32402479 -206.22109985 420.90855408 C-207.06893036 420.05419266 -207.91676086 419.19983124 -208.7902832 418.31958008 C-209.53766754 417.56394272 -210.28505188 416.80830536 -211.05508423 416.0297699 C-212.79428608 414.22401196 -212.79428608 414.22401196 -214.90112305 413.29052734 C-214.90112305 412.63052734 -214.90112305 411.97052734 -214.90112305 411.29052734 C-215.43914047 411.0781543 -215.9771579 410.86578125 -216.53147888 410.64697266 C-219.78263272 408.78592852 -222.20902751 406.23594169 -224.81542969 403.58740234 C-225.39640915 403.00510864 -225.97738861 402.42281494 -226.57597351 401.82287598 C-228.49238268 399.8999838 -230.40171894 397.97021889 -232.3112793 396.04052734 C-233.64308046 394.7024546 -234.97539886 393.3648965 -236.30821228 392.02783203 C-239.81461784 388.50812706 -243.31541362 384.98289933 -246.81463623 381.45605469 C-252.41796175 375.80960096 -258.02801252 370.16984891 -263.641325 364.5333252 C-265.60191248 362.56250825 -267.55905459 360.58831663 -269.5158844 358.61376953 C-270.71587756 357.40694876 -271.91598047 356.2002371 -273.11621094 354.99365234 C-273.66018524 354.44294067 -274.20415955 353.892229 -274.76461792 353.3248291 C-277.05391869 351.02863278 -279.191996 349.09661204 -281.90112305 347.29052734 C-284.07953829 344.76600874 -285.94923354 341.99220322 -287.90112305 339.29052734 C-288.69389648 338.23994141 -289.48666992 337.18935547 -290.3034668 336.10693359 C-302.22212523 320.1513102 -309.39734446 302.48951646 -307.90112305 282.29052734 C-304.25572018 260.30830884 -291.96608664 243.15972495 -276.734375 227.45043945 C-274.22520292 224.84819276 -272.46930137 222.52275516 -270.90112305 219.29052734 C-269.2019043 217.64990234 -269.2019043 217.64990234 -267.21362305 216.04052734 C-263.57809436 212.97798959 -260.54986716 209.68057965 -257.4831543 206.06005859 C-255.50123668 203.84324704 -253.2207899 202.14626083 -250.90112305 200.29052734 C-249.83858385 199.10851572 -248.79671917 197.90779458 -247.76879883 196.69555664 C-243.87533598 192.19995126 -239.73689965 187.99904995 -235.51831055 183.81005859 C-234.74101593 183.03417892 -233.96372131 182.25829926 -233.16287231 181.45890808 C-230.70298409 179.00456578 -228.2396303 176.55373653 -225.77612305 174.10302734 C-224.11573397 172.44766189 -222.45557564 170.79206495 -220.7956543 169.13623047 C-217.75264474 166.10134952 -214.70833818 163.06778356 -211.66235352 160.03588867 C-209.46344143 157.84714714 -207.26683494 155.65623924 -205.07299805 153.46240234 C-203.39900764 151.78841194 -201.72028116 150.11999625 -200.03393555 148.45849609 C-194.86814006 143.3453608 -189.81144611 138.25540035 -185.20581055 132.61865234 C-184.77526367 132.18037109 -184.3447168 131.74208984 -183.90112305 131.29052734 C-183.24112305 131.29052734 -182.58112305 131.29052734 -181.90112305 131.29052734 C-181.57112305 130.30052734 -181.24112305 129.31052734 -180.90112305 128.29052734 C-180.24112305 128.29052734 -179.58112305 128.29052734 -178.90112305 128.29052734 C-178.57112305 127.30052734 -178.24112305 126.31052734 -177.90112305 125.29052734 C-177.24112305 125.29052734 -176.58112305 125.29052734 -175.90112305 125.29052734 C-175.56081055 124.45521484 -175.56081055 124.45521484 -175.21362305 123.60302734 C-172.93832257 119.59416461 -169.58838278 116.84332322 -166.02612305 113.97802734 C-162.90078273 111.42672912 -160.38869974 108.48660811 -157.7722168 105.42724609 C-154.67135902 101.88618304 -151.46501328 98.37103936 -147.90112305 95.29052734 C-147.24112305 95.29052734 -146.58112305 95.29052734 -145.90112305 95.29052734 C-145.69082962 94.75589874 -145.48053619 94.22127014 -145.26387024 93.67044067 C-143.37205337 90.36655555 -140.77451837 87.87745125 -138.09716797 85.21191406 C-137.50328278 84.61291794 -136.90939758 84.01392181 -136.29751587 83.39677429 C-134.33069601 81.4160486 -132.35652592 79.44284788 -130.3815918 77.47021484 C-129.00289852 76.08763123 -127.62442805 74.70482539 -126.24617004 73.32180786 C-123.35013646 70.41830702 -120.45025109 67.51871879 -117.54785156 64.62158203 C-113.85916663 60.93864994 -110.18187793 57.2445763 -106.5077467 53.54713249 C-103.65854884 50.68306577 -100.80230701 47.82610221 -97.94411659 44.97101212 C-96.58763603 43.61402351 -95.23346891 42.25471768 -93.8818264 40.89291 C-83.46817143 30.41066462 -72.80079467 20.42046057 -59.65112305 13.41552734 C-58.6444458 12.86348633 -58.6444458 12.86348633 -57.61743164 12.30029297 C-52.81699268 9.69768726 -47.94876394 7.37920634 -42.90112305 5.29052734 C-42.24112305 4.96052734 -41.58112305 4.63052734 -40.90112305 4.29052734 C-38.57438424 3.73896974 -36.23608198 3.2986193 -33.88588428 2.85775185 C-32.05096716 2.5090439 -30.21860131 2.14611466 -28.39129925 1.75948143 C-18.93417489 -0.07904404 -9.59181267 -0.00612413 0 0 Z M-67.74487305 57.16943359 C-69.77146209 59.16298042 -71.85883297 61.01499864 -74.02612305 62.85302734 C-77.34765861 65.70379409 -80.15174439 68.77749838 -82.97924805 72.11083984 C-86.73921238 76.37518964 -90.85369176 80.30166017 -94.90112305 84.29052734 C-96.5678652 85.95711852 -98.23452376 87.6237933 -99.90112305 89.29052734 C-101.46655862 90.84684116 -103.0327445 92.40240058 -104.59960938 93.95727539 C-109.04153999 98.36736528 -113.47917211 102.78173477 -117.91359425 107.1993742 C-120.5896868 109.86497143 -123.26764579 112.52863977 -125.94970703 115.18823242 C-128.55336808 117.77023135 -131.15217311 120.3570257 -133.74762535 122.94727516 C-134.73669874 123.932648 -135.7275332 124.91625636 -136.72013283 125.89807701 C-138.10122552 127.26473882 -139.47559589 128.63818399 -140.84960938 130.01196289 C-141.63394852 130.79186081 -142.41828766 131.57175873 -143.22639465 132.37528992 C-145.12054262 134.11742801 -145.12054262 134.11742801 -144.90112305 136.29052734 C-145.56112305 136.29052734 -146.22112305 136.29052734 -146.90112305 136.29052734 C-149.4346118 138.62400383 -151.67548368 140.99719616 -153.77612305 143.72802734 C-155.53338734 145.84708134 -157.11381808 147.37267581 -159.21362305 149.10302734 C-161.73917093 151.20014189 -163.90487256 153.35951294 -166.01635742 155.87060547 C-170.3534964 160.88972058 -175.03430337 165.53050298 -179.74487305 170.19677734 C-181.16303955 171.60915667 -182.58120312 173.02153895 -183.99919891 174.43408966 C-186.9617875 177.38364758 -189.92896325 180.32859047 -192.89532471 183.27435303 C-195.34693336 185.70929841 -197.79749636 188.14527551 -200.2454834 190.5838623 C-202.07180734 192.40273348 -203.90037666 194.21935386 -205.73156738 196.0333252 C-210.12519297 200.40962726 -214.34642069 204.85461135 -218.38858032 209.55711365 C-220.45053163 211.92016401 -222.6538886 214.10359703 -224.90112305 216.29052734 C-226.16506585 217.53707246 -227.42816258 218.78447571 -228.69067383 220.0324707 C-229.39555939 220.72767319 -230.10044495 221.42287567 -230.82669067 222.1391449 C-234.05078136 225.32272583 -237.26664769 228.51456251 -240.48217773 231.70678711 C-242.16466797 233.37426088 -243.84984988 235.03902356 -245.5378418 236.70092773 C-269.61217076 259.1731496 -269.61217076 259.1731496 -280.0378418 289.25146484 C-279.81886986 298.77098174 -276.50157631 307.83730714 -270.29956055 315.18896484 C-268.93596885 316.49679073 -268.93596885 316.49679073 -266.90112305 316.29052734 C-266.81862305 316.90927734 -266.73612305 317.52802734 -266.65112305 318.16552734 C-266.08853845 320.47490302 -266.08853845 320.47490302 -263.83862305 321.54052734 C-262.87956055 321.91177734 -262.87956055 321.91177734 -261.90112305 322.29052734 C-261.90112305 322.95052734 -261.90112305 323.61052734 -261.90112305 324.29052734 C-260.40368725 325.80612897 -260.40368725 325.80612897 -258.43774414 327.38061523 C-253.81804227 331.31140085 -249.56916094 335.52939839 -245.31518555 339.84912109 C-243.70984544 341.46708729 -242.10437296 343.08492215 -240.4987793 344.70263672 C-237.99509472 347.23129385 -235.49305077 349.76153637 -232.9934082 352.29418945 C-230.56330519 354.75430832 -228.12717308 357.20832467 -225.69018555 359.66162109 C-224.9381485 360.42711777 -224.18611145 361.19261444 -223.4112854 361.98130798 C-222.71651093 362.67946121 -222.02173645 363.37761444 -221.3059082 364.09692383 C-220.69494293 364.71534653 -220.08397766 365.33376923 -219.45449829 365.97093201 C-217.98678278 367.50633669 -217.98678278 367.50633669 -215.90112305 367.29052734 C-215.90112305 367.95052734 -215.90112305 368.61052734 -215.90112305 369.29052734 C-215.24112305 369.29052734 -214.58112305 369.29052734 -213.90112305 369.29052734 C-213.40612305 370.77552734 -213.40612305 370.77552734 -212.90112305 372.29052734 C-212.24112305 372.29052734 -211.58112305 372.29052734 -210.90112305 372.29052734 C-210.40612305 373.77552734 -210.40612305 373.77552734 -209.90112305 375.29052734 C-209.24112305 375.29052734 -208.58112305 375.29052734 -207.90112305 375.29052734 C-207.90112305 375.95052734 -207.90112305 376.61052734 -207.90112305 377.29052734 C-207.24112305 377.29052734 -206.58112305 377.29052734 -205.90112305 377.29052734 C-205.90112305 377.95052734 -205.90112305 378.61052734 -205.90112305 379.29052734 C-204.57398663 380.63276631 -204.57398663 380.63276631 -202.75494385 382.06285095 C-196.21154138 387.63540725 -190.28157699 393.82963582 -184.23999023 399.93334961 C-182.86940194 401.31405641 -181.49853977 402.69449139 -180.12742615 404.07467651 C-177.18690399 407.03522624 -174.24773221 409.99710782 -171.30944061 412.95987129 C-166.65616958 417.65070003 -161.99626524 422.33490067 -157.33477783 427.01756287 C-156.54607984 427.80989824 -155.75738185 428.60223362 -154.94478393 429.41857916 C-153.33269339 431.03807471 -151.72058655 432.65755403 -150.10846376 434.27701747 C-139.26609819 445.16924648 -128.42803665 456.06566091 -117.60864258 466.98071289 C-110.29650392 474.35740032 -102.97368182 481.72329641 -95.63846898 489.07704204 C-91.76355474 492.9626032 -87.89424363 496.85339297 -84.03798676 500.75747871 C-80.40982157 504.43048355 -76.76768733 508.08904609 -73.11467171 511.73733139 C-71.78242658 513.0728046 -70.45526871 514.41337686 -69.13385582 515.75956917 C-58.25223156 526.83584024 -47.40336638 535.15608111 -31.1550293 535.31787109 C-15.50994113 534.45239813 -4.24532997 526.12482478 6.42948914 515.32740784 C7.20488582 514.55527999 7.9802825 513.78315215 8.77917606 512.98762649 C11.35082662 510.42320322 13.91169189 507.84828501 16.47265625 505.27319336 C18.32418247 503.42245876 20.17636262 501.57237816 22.02914429 499.72290039 C26.52282488 495.23482837 31.00853693 490.73887382 35.4915789 486.24017782 C40.72012522 480.99401927 45.95679525 475.75600067 51.19382653 470.51831459 C60.54138621 461.16907006 69.88188077 451.81279936 79.21826172 442.45239258 C88.26424985 433.38314304 97.31477396 424.31845417 106.37060547 415.2590332 C107.20754113 414.42176339 107.20754113 414.42176339 108.06138458 413.56757904 C109.18552318 412.44299781 110.30966208 411.31841689 111.43380128 410.19383627 C111.98841834 409.63899964 112.5430354 409.08416302 113.11445904 408.51251316 C113.66773712 407.95901909 114.22101521 407.40552502 114.7910593 406.8352584 C123.44105995 398.18155072 132.08723287 389.52401926 140.73287969 380.86596211 C143.8588287 377.73558982 146.98526756 374.60570776 150.11205085 371.47616882 C155.53747399 366.045883 160.96024059 360.61296304 166.38018417 355.17720795 C168.17762515 353.37525872 169.97589656 351.5741374 171.77506828 349.77391624 C174.23543811 347.31178966 176.69270724 344.84660882 179.1492157 342.38063049 C179.85739384 341.67331883 180.56557198 340.96600718 181.29521006 340.23726183 C185.75929015 335.74744034 189.98630035 331.10370405 194.09887695 326.29052734 C194.60078999 325.705535 195.10270302 325.12054266 195.61982554 324.51782328 C206.04472222 312.3044931 213.29852568 298.98108658 217.09887695 283.29052734 C217.34852675 282.38214756 217.34852675 282.38214756 217.60321999 281.45541668 C219.77252386 272.49333981 219.39509533 263.37591189 219.3894043 254.2175293 C219.39539615 252.28967531 219.4022032 250.36182371 219.40975952 248.43397522 C219.42736089 243.21883757 219.43211245 238.00376564 219.43339109 232.78860116 C219.4348167 229.52365904 219.43909407 226.25873341 219.44438553 222.99379539 C219.46286718 211.58431317 219.47105857 200.17487755 219.46948242 188.76538086 C219.46828189 178.1612665 219.48937182 167.55735596 219.52096975 156.95329314 C219.54719705 147.82341129 219.557847 138.69359574 219.5565716 129.56367654 C219.55606382 124.12225077 219.56164476 118.68100625 219.5829277 113.2396183 C219.60241885 108.11686404 219.60236073 102.9944619 219.58789444 97.87169456 C219.5858186 96.00257726 219.59043323 94.13343728 219.60261536 92.26435852 C219.70479658 75.48647221 217.83982498 57.94527725 205.88012695 45.00927734 C190.27339234 29.95014745 174.55411578 27.98316923 153.72265625 28.01586914 C151.88170161 28.011515 150.04074877 28.00632953 148.19979858 28.00038147 C143.22650744 27.98705501 138.2532926 27.98640574 133.2799871 27.98894477 C129.11533848 27.99001891 124.95070503 27.98511977 120.78605968 27.98033935 C110.95355286 27.9692659 101.12108425 27.96879442 91.28857422 27.97485352 C81.17466603 27.98089059 71.06089705 27.96858404 60.9470126 27.94728345 C52.23665635 27.92961924 43.52634421 27.92367371 34.81597072 27.92692119 C29.62557835 27.92872668 24.43528529 27.92617172 19.24490929 27.91220665 C14.36021002 27.89955442 9.4757264 27.90164179 4.59103012 27.91461754 C2.80857454 27.91696693 1.02610343 27.91430811 -0.7563343 27.90599442 C-29.22282935 27.7828974 -47.86508577 36.97464969 -67.74487305 57.16943359 Z " fill="#008DFA" transform="translate(534.901123046875,227.70947265625)"/>
<path d="M0 0 C5.93078664 0.40901977 10.0787612 6.0787612 14 10 C16.30428582 12.03489124 18.64454699 14.02467774 21 16 C20.50229111 20.30310813 17.75342927 22.95124927 15 26.0625 C13.98493104 27.23503164 12.9706176 28.40821774 11.95703125 29.58203125 C11.45252441 30.16291504 10.94801758 30.74379883 10.42822266 31.34228516 C8.47310059 33.61156359 6.57722184 35.92610479 4.6875 38.25 C1.92720678 41.64380314 -0.84582659 45.02581759 -3.63671875 48.39453125 C-4.27375732 49.16442383 -4.9107959 49.93431641 -5.56713867 50.72753906 C-6.84056055 52.26587516 -8.11542846 53.80301555 -9.3918457 55.33886719 C-9.97409912 56.04301758 -10.55635254 56.74716797 -11.15625 57.47265625 C-11.68025391 58.10437744 -12.20425781 58.73609863 -12.74414062 59.38696289 C-14.07657548 60.9893186 -14.07657548 60.9893186 -15 63 C-15.66 63 -16.32 63 -17 63 C-17.22558594 63.53496094 -17.45117188 64.06992187 -17.68359375 64.62109375 C-19.42648094 67.77070295 -21.71214386 70.35991065 -24.0625 73.0625 C-25.06455869 74.22981968 -26.06585029 75.39779826 -27.06640625 76.56640625 C-27.56414551 77.14664551 -28.06188477 77.72688477 -28.57470703 78.32470703 C-30.58525686 80.6879124 -32.54414643 83.09143529 -34.5 85.5 C-38.24852646 90.1053325 -42.07084246 94.64204444 -45.91625977 99.16625977 C-48.7954532 102.55954109 -51.63204237 105.98267786 -54.4375 109.4375 C-58.44356836 114.36749043 -62.56935001 119.18583969 -66.75170898 123.96655273 C-69.25717807 126.85637637 -71.56862055 129.76678616 -73.734375 132.921875 C-74.48203125 133.93765625 -75.2296875 134.9534375 -76 136 C-76.66 136 -77.32 136 -78 136 C-78.24234375 136.55171875 -78.4846875 137.1034375 -78.734375 137.671875 C-80.27611171 140.50790919 -82.17387281 142.77842001 -84.25 145.25 C-87.60555927 149.27559042 -90.79383081 153.35077371 -93.80859375 157.63671875 C-94.20175781 158.08660156 -94.59492188 158.53648437 -95 159 C-95.66 159 -96.32 159 -97 159 C-97.22816406 159.53753906 -97.45632813 160.07507813 -97.69140625 160.62890625 C-99.40148927 163.72747458 -101.62962602 166.27788908 -103.9375 168.9375 C-104.93367057 170.1001946 -105.92976209 171.26295694 -106.92578125 172.42578125 C-107.4357666 173.0182666 -107.94575195 173.61075195 -108.47119141 174.22119141 C-110.86908913 177.01120782 -113.24810377 179.81708877 -115.625 182.625 C-116.08318115 183.16568115 -116.5413623 183.7063623 -117.01342773 184.26342773 C-120.62196691 188.5307553 -124.15962223 192.85325017 -127.6875 197.1875 C-130.71755337 200.87270005 -133.79967369 204.51223616 -136.90087891 208.13769531 C-139.16690904 210.79507992 -141.38765133 213.47081244 -143.5234375 216.234375 C-144.29945313 217.22953125 -145.07546875 218.2246875 -145.875 219.25 C-146.55304688 220.14203125 -147.23109375 221.0340625 -147.9296875 221.953125 C-150 224 -150 224 -152.38671875 225.1171875 C-156.3394979 224.93993283 -158.29657706 222.55311903 -160.9375 219.875 C-161.94531378 218.89189391 -162.95442678 217.9101179 -163.96484375 216.9296875 C-164.45839355 216.43952148 -164.95194336 215.94935547 -165.46044922 215.44433594 C-167.02832799 213.97342398 -168.67320461 212.68949911 -170.37890625 211.3828125 C-171.24386719 210.59648438 -172.10882813 209.81015625 -173 209 C-173 207.68 -173 206.36 -173 205 C-172.34 205 -171.68 205 -171 205 C-170.75378906 204.44570313 -170.50757813 203.89140625 -170.25390625 203.3203125 C-166.06208853 195.56349092 -159.14615419 189.00572303 -153.2421875 182.51953125 C-150.17653739 179.07468052 -147.28400181 175.50149352 -144.3828125 171.91796875 C-141.79244345 168.74582829 -139.15324989 165.61949792 -136.5 162.5 C-133.16374993 158.57611498 -129.86728661 154.6273831 -126.625 150.625 C-122.45843577 145.50266476 -118.13798719 140.52582622 -113.79956055 135.54956055 C-109.88828836 131.05299789 -106.08734067 126.48133247 -102.34375 121.84375 C-100.51698367 119.62727352 -98.66595036 117.44777472 -96.78125 115.28125 C-96.22767822 114.64388916 -95.67410645 114.00652832 -95.10375977 113.34985352 C-94.00953788 112.09402347 -92.9111856 110.84177804 -91.80834961 109.59350586 C-88.9537298 106.71768076 -88.9537298 106.71768076 -88 103 C-86.34153927 101.65647345 -84.67335148 100.3249341 -83 99 C-81.57885764 97.39384099 -80.2054588 95.74454392 -78.875 94.0625 C-78.09898437 93.09441406 -77.32296875 92.12632812 -76.5234375 91.12890625 C-76.11448242 90.61859863 -75.70552734 90.10829102 -75.28417969 89.58251953 C-73.06734756 86.85067431 -70.78129372 84.17802315 -68.5 81.5 C-58.65865637 69.93995925 -58.65865637 69.93995925 -49.484375 57.8515625 C-47.50329304 55.38042343 -45.23923193 53.23923193 -43 51 C-41.22613372 48.97349216 -39.47721178 46.94007019 -37.75 44.875 C-37.03493286 44.02566895 -37.03493286 44.02566895 -36.30541992 43.15917969 C-32.53774664 38.67286807 -28.83898779 34.13193351 -25.1484375 29.58203125 C-22.34791574 26.21631328 -19.41098471 22.98688995 -16.43359375 19.77734375 C-14.79072689 18.12112189 -14.79072689 18.12112189 -15 16 C-13.33843775 14.66031106 -11.67080867 13.32813928 -10 12 C-8.55725554 10.3310956 -7.16020982 8.62154851 -5.8125 6.875 C-2.13245033 2.13245033 -2.13245033 2.13245033 0 0 Z " fill="#0090F9" transform="translate(592,400)"/>
<path d="M0 0 C21.71814412 -0.59531969 40.43591027 1.32975659 57 17 C68.85383869 29.52048691 72.66672546 43.42263324 72.3125 60.23046875 C72.01055075 66.58524236 70.49764948 72.15910185 68 78 C67.59910156 78.94101562 67.19820313 79.88203125 66.78515625 80.8515625 C60.05577811 94.70042766 47.74667405 103.85469942 33.5703125 109.1875 C17.40337806 114.29802031 2.18003162 112.13278594 -13 105 C-13.72316406 104.66613281 -14.44632812 104.33226562 -15.19140625 103.98828125 C-17.95466316 102.47833741 -19.83651175 100.26902426 -22 98 C-25.48327032 94.19792607 -25.48327032 94.19792607 -30 92 C-30.74853492 90.40085721 -31.47998212 88.7912041 -32.1171875 87.14453125 C-33.10096854 84.75472686 -34.28513948 82.53059145 -35.5 80.25 C-41.6865004 67.80223788 -43.17744944 54.38127042 -39.25 41 C-38.53534602 38.98709918 -37.78902298 36.9849289 -37 35 C-36.72285156 34.27554688 -36.44570313 33.55109375 -36.16015625 32.8046875 C-29.7278461 18.16154827 -17.06688988 8.78587484 -2.7109375 3.03125 C-1.36902344 2.52078125 -1.36902344 2.52078125 0 2 C0 1.34 0 0.68 0 0 Z M-6 36.8125 C-12.00552447 44.21465807 -13.65454025 49.98324178 -13.40234375 59.49609375 C-12.41551457 68.09013037 -8.04185035 73.97712244 -1.44921875 79.37109375 C5.53580513 84.01663595 13.7724593 85.06161815 22 84 C30.13154013 81.78948424 36.2270605 76.50266042 41.375 70 C44.9986878 63.31011484 46.21818193 56.62250656 44.27734375 49.2578125 C41.16044361 39.94496916 36.81084893 34.4987957 28 30 C16.02462139 25.25503866 2.86339496 27.38976459 -6 36.8125 Z " fill="#0091FA" transform="translate(430,392)"/>
<path d="M0 0 C0.91458984 0.82951172 0.91458984 0.82951172 1.84765625 1.67578125 C3.11609375 2.82046875 3.11609375 2.82046875 4.41015625 3.98828125 C5.21453125 4.87515625 6.01890625 5.76203125 6.84765625 6.67578125 C7.78931641 7.70251953 7.78931641 7.70251953 8.75 8.75 C19.35811775 21.01748812 21.85241123 34.89997321 20.84765625 50.67578125 C18.86467396 65.84832461 10.5649251 78.52803588 -1.3671875 87.71875 C-9.43688203 93.38904027 -17.2290336 96.3085757 -26.89697266 97.73950195 C-30.95344271 98.26315194 -30.95344271 98.26315194 -34.15234375 100.67578125 C-34.15234375 100.01578125 -34.15234375 99.35578125 -34.15234375 98.67578125 C-34.9515625 98.65 -35.75078125 98.62421875 -36.57421875 98.59765625 C-51.71394949 97.81579222 -63.71213154 92.66294325 -75.15234375 82.67578125 C-75.15234375 82.01578125 -75.15234375 81.35578125 -75.15234375 80.67578125 C-75.81234375 80.67578125 -76.47234375 80.67578125 -77.15234375 80.67578125 C-78.72516855 78.62321453 -80.13915148 76.59948719 -81.52734375 74.42578125 C-81.93146484 73.79478516 -82.33558594 73.16378906 -82.75195312 72.51367188 C-90.35828544 60.22272647 -92.96274512 46.16738436 -90.50390625 31.91796875 C-86.64217795 15.84393726 -78.34322372 3.44590721 -64.15234375 -5.26171875 C-44.16197853 -16.15390493 -17.71667466 -15.015766 0 0 Z M-58.15234375 25.67578125 C-63.56491607 33.12150256 -64.29863322 40.6737282 -63.15234375 49.67578125 C-62.21647889 52.98218705 -60.94601823 55.75322074 -59.15234375 58.67578125 C-58.61609375 59.56265625 -58.07984375 60.44953125 -57.52734375 61.36328125 C-50.07334481 68.62112233 -42.4736277 71.06442809 -32.3203125 70.953125 C-24.4167266 70.26119578 -17.34606159 66.68886425 -12.15234375 60.67578125 C-6.79862079 52.67996125 -4.76873437 45.16110797 -6.54296875 35.5625 C-8.75839638 28.47597188 -14.0443137 22.60275988 -20.27734375 18.73828125 C-21.22609375 18.38765625 -22.17484375 18.03703125 -23.15234375 17.67578125 C-24.01859375 17.28390625 -24.88484375 16.89203125 -25.77734375 16.48828125 C-37.66910546 13.62544973 -50.0074786 16.12520333 -58.15234375 25.67578125 Z " fill="#0091FA" transform="translate(616.15234375,536.32421875)"/>
<path d="M0 0 C7.10440181 6.77549432 10.99182364 15.53024799 11.546875 25.32421875 C11.16523702 34.68264585 7.9074397 44.42421358 1.109375 51.01171875 C-7.85765761 58.17879956 -17.54531993 62.04114995 -29.16015625 60.76171875 C-36.07083835 59.23509864 -42.73047816 55.84935641 -47.890625 51.01171875 C-47.890625 50.35171875 -47.890625 49.69171875 -47.890625 49.01171875 C-48.550625 49.01171875 -49.210625 49.01171875 -49.890625 49.01171875 C-56.81054719 39.66606297 -58.98714609 30.52519018 -57.890625 19.01171875 C-55.31522203 8.59304309 -48.91462264 0.61886291 -39.890625 -4.98828125 C-26.57616299 -12.16407551 -11.32694082 -9.31543236 0 0 Z M-30.328125 18.57421875 C-32.40921403 21.82071764 -32.82312457 24.16419414 -32.890625 28.01171875 C-31.30223566 31.58559477 -30.17428142 32.82261447 -26.890625 35.01171875 C-21.29812691 35.64180359 -21.29812691 35.64180359 -16.453125 33.32421875 C-14.67512611 30.69278039 -14.04172255 29.18476734 -13.890625 26.01171875 C-14.60437723 22.76739045 -15.33480709 20.65304711 -17.515625 18.13671875 C-21.91428205 16.05314436 -26.19487064 15.92469673 -30.328125 18.57421875 Z " fill="#0093FA" transform="translate(705.890625,301.98828125)"/>
<path d="M0 0 C0.66 0.33 1.32 0.66 2 1 C0.28032649 4.02990095 -1.29238306 6.76327296 -4 9 C-4.66 9 -5.32 9 -6 9 C-6.38671875 9.8971875 -6.38671875 9.8971875 -6.78125 10.8125 C-8.44030907 13.79029834 -10.68879151 15.36753237 -13.34375 17.4375 C-15.08620939 18.89249464 -15.08620939 18.89249464 -15.88354492 20.85668945 C-18.01210593 24.94298666 -21.58331749 27.9525665 -24.8125 31.1875 C-25.52470703 31.92419922 -26.23691406 32.66089844 -26.97070312 33.41992188 C-28.01581055 34.47083008 -28.01581055 34.47083008 -29.08203125 35.54296875 C-30.02912964 36.5023938 -30.02912964 36.5023938 -30.99536133 37.48120117 C-33.32726295 39.24794822 -35.12522801 39.638047 -38 40 C-35.29365264 35.37665659 -32.22653669 32.293505 -28.14453125 28.84765625 C-22.38052089 23.88157811 -17.28751251 18.32443374 -12.4453125 12.46875 C-11.96835937 11.9840625 -11.49140625 11.499375 -11 11 C-10.34 11 -9.68 11 -9 11 C-8.67 10.01 -8.34 9.02 -8 8 C-7.34 8 -6.68 8 -6 8 C-5.67 7.01 -5.34 6.02 -5 5 C-4.34 5 -3.68 5 -3 5 C-2.690625 4.360625 -2.38125 3.72125 -2.0625 3.0625 C-1 1 -1 1 0 0 Z " fill="#027FE3" transform="translate(362,348)"/>
<path d="M0 0 C0.66 0.99 1.32 1.98 2 3 C1.01 3.33 0.02 3.66 -1 4 C-1.69012788 5.3213424 -2.35381719 6.65661994 -3 8 C-8.6922141 14.21333229 -14.19115083 17.62888229 -22.59375 18.27734375 C-29.41303382 18.44514109 -35.03860643 18.48959623 -41 15 C-39 14 -39 14 -35.5625 14.9375 C-27.7999364 16.97657921 -20.38002455 17.00310489 -13.13671875 13.3359375 C-7.66569269 9.91529598 -2.85484998 5.88812808 0 0 Z " fill="#056FCF" transform="translate(472,459)"/>
<path d="M0 0 C0.5775 0.2475 1.155 0.495 1.75 0.75 C0.99074219 1.48605469 0.23148437 2.22210938 -0.55078125 2.98046875 C-1.55495521 3.9658731 -2.55884654 4.95156552 -3.5625 5.9375 C-4.06201172 6.42025391 -4.56152344 6.90300781 -5.07617188 7.40039062 C-8.02275473 10.30794589 -10.24769836 13.13578257 -12.25 16.75 C-13.8125 18.4375 -13.8125 18.4375 -15.25 19.75 C-15.91 20.41 -16.57 21.07 -17.25 21.75 C-16.78781652 16.90160469 -14.3946066 13.86378847 -11.4375 10.1875 C-10.99857422 9.62353516 -10.55964844 9.05957031 -10.10742188 8.47851562 C-3.15753372 -0.35083708 -3.15753372 -0.35083708 0 0 Z " fill="#0287E8" transform="translate(411.25,405.25)"/>
<path d="M0 0 C0.99 0.33 1.98 0.66 3 1 C-1.49895981 5.97253453 -6.26909676 7.5761951 -12.8125 8.3125 C-13.52519043 8.39588623 -14.23788086 8.47927246 -14.97216797 8.56518555 C-22.85556235 9.36362959 -28.05281344 7.82095261 -35 4 C-34.34 3.67 -33.68 3.34 -33 3 C-31.3603125 3.7115625 -31.3603125 3.7115625 -29.6875 4.4375 C-21.14749526 7.82244734 -11.6329758 6.34114598 -3 4 C-3 3.34 -3 2.68 -3 2 C-2.01 1.34 -1.02 0.68 0 0 Z " fill="#0777D5" transform="translate(700,354)"/>
<path d="M0 0 C-4.80270326 1.5648152 -9.45625453 3.06183409 -14.5 3.5625 C-18.05207532 3.64278158 -18.05207532 3.64278158 -20 6 C-20 5.34 -20 4.68 -20 4 C-23.63 3.67 -27.26 3.34 -31 3 C-31 2.67 -31 2.34 -31 2 C-29.73285156 1.95101562 -28.46570313 1.90203125 -27.16015625 1.8515625 C-25.46091904 1.77645809 -23.76170124 1.70091368 -22.0625 1.625 C-20.81629883 1.57859375 -20.81629883 1.57859375 -19.54492188 1.53125 C-14.47315666 1.29443606 -9.81445967 0.64238677 -4.90795898 -0.68212891 C-3 -1 -3 -1 0 0 Z " fill="#0972D2" transform="translate(602,631)"/>
<path d="M0 0 C1 3 1 3 0 6.6875 C-1.74511276 13.69121922 -0.64508395 20.89535915 0 28 C-3.60172295 24.39827705 -3.26004677 19.92165502 -3.625 15 C-3.72039062 13.783125 -3.81578125 12.56625 -3.9140625 11.3125 C-3.9858763 8.54440426 -3.86862144 6.59289983 -3 4 C-2.34 4 -1.68 4 -1 4 C-0.67 2.68 -0.34 1.36 0 0 Z " fill="#0567D7" transform="translate(257,502)"/>
<path d="M0 0 C2.25 -0.25 2.25 -0.25 5 0 C5.5878125 0.61875 6.175625 1.2375 6.78125 1.875 C9.46393901 4.44433595 11.71558131 5.17430735 15.25 6.25 C16.32765625 6.58515625 17.4053125 6.9203125 18.515625 7.265625 C19.33546875 7.50796875 20.1553125 7.7503125 21 8 C21 8.33 21 8.66 21 9 C13.45035883 8.70962919 7.43711384 5.88286707 1 2 C0.67 1.34 0.34 0.68 0 0 Z " fill="#0774D0" transform="translate(549,624)"/>
<path d="M0 0 C3.21043882 1.38188453 5.04936365 2.92421903 7.25 5.625 C8.03117187 6.57246094 8.03117187 6.57246094 8.828125 7.5390625 C9.40820312 8.26222656 9.40820312 8.26222656 10 9 C8.68 9 7.36 9 6 9 C5.731875 8.360625 5.46375 7.72125 5.1875 7.0625 C4.11332248 4.66868314 4.11332248 4.66868314 1 4 C0.3125 1.9375 0.3125 1.9375 0 0 Z " fill="#037DE4" transform="translate(368,685)"/>
<path d="M0 0 C0 3 0 3 -2.1875 5.375 C-3.115625 6.24125 -4.04375 7.1075 -5 8 C-5.928125 8.928125 -6.85625 9.85625 -7.8125 10.8125 C-8.534375 11.534375 -9.25625 12.25625 -10 13 C-10.66 12.67 -11.32 12.34 -12 12 C-10.52553146 8.11276476 -8.4947072 7.06098117 -5 5 C-4.67 4.01 -4.34 3.02 -4 2 C-1.9375 0.8125 -1.9375 0.8125 0 0 Z " fill="#0576D5" transform="translate(603,718)"/>
<path d="M0 0 C0.33 0.99 0.66 1.98 1 3 C-0.98271681 6.39894311 -3.08706449 9.35187681 -6 12 C-6.66 12.66 -7.32 13.32 -8 14 C-7.46719784 9.77510398 -6.12321801 7.45919284 -3.4375 4.1875 C-2.47650391 3.00220703 -2.47650391 3.00220703 -1.49609375 1.79296875 C-1.00238281 1.20128906 -0.50867188 0.60960937 0 0 Z " fill="#037DDE" transform="translate(402,413)"/>
<path d="M0 0 C15.92938497 -0.55353075 15.92938497 -0.55353075 22 3 C19.43131687 3.95136412 18.3509347 4.14828227 15.78125 3.0625 C12.51359928 1.81418399 9.67278586 1.58622945 6.1875 1.375 C5.02605469 1.30023437 3.86460937 1.22546875 2.66796875 1.1484375 C1.78753906 1.09945312 0.90710938 1.05046875 0 1 C0 0.67 0 0.34 0 0 Z " fill="#0671CD" transform="translate(574,551)"/>
<path d="M0 0 C0.33 0.66 0.66 1.32 1 2 C-0.98 4.97 -2.96 7.94 -5 11 C-5.33 10.34 -5.66 9.68 -6 9 C-3.65625 2.4375 -3.65625 2.4375 0 0 Z " fill="#057DDB" transform="translate(764,549)"/>
<path d="M0 0 C-1 3 -1 3 -2.77734375 4.203125 C-3.49019531 4.54859375 -4.20304687 4.8940625 -4.9375 5.25 C-6.00291016 5.78367188 -6.00291016 5.78367188 -7.08984375 6.328125 C-8.03537109 6.66070312 -8.03537109 6.66070312 -9 7 C-9.66 6.67 -10.32 6.34 -11 6 C-9.73608512 4.99126984 -8.46359117 3.99328178 -7.1875 3 C-6.47980469 2.443125 -5.77210938 1.88625 -5.04296875 1.3125 C-3 0 -3 0 0 0 Z " fill="#037EDD" transform="translate(473,244)"/>
<path d="M0 0 C0 3.77910478 -0.99703962 4.46106101 -3.5 7.1875 C-4.47453125 8.26064453 -4.47453125 8.26064453 -5.46875 9.35546875 C-5.9740625 9.89816406 -6.479375 10.44085938 -7 11 C-7 8 -7 8 -6 5 C-5.34 5 -4.68 5 -4 5 C-3.67 4.01 -3.34 3.02 -3 2 C-2.01 1.34 -1.02 0.68 0 0 Z " fill="#0467D3" transform="translate(272,481)"/>
<path d="M0 0 C-0.0625 1.75 -0.0625 1.75 -1 4 C-3.24164322 5.59501537 -5.53566643 6.74543018 -8 8 C-6.48291727 4.46014029 -4.24676932 0 0 0 Z " fill="#038CEA" transform="translate(462,288)"/>
<path d="M0 0 C2.4375 1.125 2.4375 1.125 5 3 C5.8125 6.1875 5.8125 6.1875 6 9 C0.42857143 3.85714286 0.42857143 3.85714286 0 0 Z " fill="#0665D1" transform="translate(237,551)"/>
<path d="M0 0 C0.33 0 0.66 0 1 0 C1 2.31 1 4.62 1 7 C0.67 7 0.34 7 0 7 C0 4.69 0 2.38 0 0 Z " fill="#0894F4" transform="translate(752,461)"/>
<path d="M0 0 C1.32 0 2.64 0 4 0 C3.67 0.66 3.34 1.32 3 2 C2.01 1.34 1.02 0.68 0 0 Z " fill="#0A86E6" transform="translate(480,789)"/>
<path d="M0 0 C0.33 0 0.66 0 1 0 C1 1.65 1 3.3 1 5 C0.67 5 0.34 5 0 5 C0 3.35 0 1.7 0 0 Z " fill="#0894F4" transform="translate(752,477)"/>
<path d="M0 0 C0.99 0.33 1.98 0.66 3 1 C1.68 1.33 0.36 1.66 -1 2 C-0.67 1.34 -0.34 0.68 0 0 Z " fill="#0594F8" transform="translate(437,422)"/>
<path d="M0 0 C1 4 1 4 1 4 Z " fill="#0E92F1" transform="translate(781,295)"/>
<path d="M0 0 C0.66 0.66 1.32 1.32 2 2 C1.34 2 0.68 2 0 2 C0 1.34 0 0.68 0 0 Z " fill="#0881EA" transform="translate(341,662)"/>
<path d="M0 0 C3 1 3 1 3 1 Z " fill="#0996FA" transform="translate(589,523)"/>
<path d="" fill="#0993F4" transform="translate(0,0)"/>
<path d="" fill="#0A94F4" transform="translate(0,0)"/>
<path d="" fill="#0C94F4" transform="translate(0,0)"/>
<path d="M0 0 C2 1 2 1 2 1 Z " fill="#0787E8" transform="translate(512,791)"/>
<path d="M0 0 C2 1 2 1 2 1 Z " fill="#0992F4" transform="translate(496,760)"/>
<path d="M0 0 C2 1 2 1 2 1 Z " fill="#0A87E9" transform="translate(433,755)"/>
<path d="" fill="#0B8AEC" transform="translate(0,0)"/>
<path d="" fill="#0C87E9" transform="translate(0,0)"/>
<path d="" fill="#0B89ED" transform="translate(0,0)"/>
<path d="M0 0 C2 1 2 1 2 1 Z " fill="#0B85EB" transform="translate(400,721)"/>
<path d="" fill="#0A87ED" transform="translate(0,0)"/>
<path d="" fill="#0A82EA" transform="translate(0,0)"/>
<path d="M0 0 C2 1 2 1 2 1 Z " fill="#0A95F8" transform="translate(590,635)"/>
<path d="M0 0 C2 1 2 1 2 1 Z " fill="#0993F5" transform="translate(557,631)"/>
<path d="M0 0 C2 1 2 1 2 1 Z " fill="#079AF8" transform="translate(554,528)"/>
<path d="M0 0 C2 1 2 1 2 1 Z " fill="#0A9AFC" transform="translate(569,523)"/>
<path d="M0 0 C2 1 2 1 2 1 Z " fill="#0695FA" transform="translate(427,502)"/>
<path d="" fill="#0799F9" transform="translate(0,0)"/>
<path d="M0 0 C2 1 2 1 2 1 Z " fill="#0997FA" transform="translate(434,472)"/>
<path d="" fill="#0895F4" transform="translate(0,0)"/>
<path d="" fill="#0797FA" transform="translate(0,0)"/>
<path d="" fill="#0795F5" transform="translate(0,0)"/>
<path d="" fill="#0891F5" transform="translate(0,0)"/>
<path d="" fill="#0897F7" transform="translate(0,0)"/>
<path d="" fill="#0B93F3" transform="translate(0,0)"/>
<path d="" fill="#0897F7" transform="translate(0,0)"/>
<path d="M0 0 C2 1 2 1 2 1 Z " fill="#0A95F8" transform="translate(677,364)"/>
<path d="M0 0 C2 1 2 1 2 1 Z " fill="#0B97F9" transform="translate(674,363)"/>
<path d="" fill="#0A95F5" transform="translate(0,0)"/>
<path d="" fill="#0797F7" transform="translate(0,0)"/>
<path d="" fill="#0A95F8" transform="translate(0,0)"/>
<path d="M0 0 C2 1 2 1 2 1 Z " fill="#0992F4" transform="translate(435,318)"/>
<path d="M0 0 C2 1 2 1 2 1 Z " fill="#0A97F9" transform="translate(713,259)"/>
<path d="M0 0 C2 1 2 1 2 1 Z " fill="#0B92F2" transform="translate(473,240)"/>
<path d="" fill="#313A4B" transform="translate(0,0)"/>
<path d="" fill="#324257" transform="translate(0,0)"/>
<path d="" fill="#303D4F" transform="translate(0,0)"/>
<path d="" fill="#303C4D" transform="translate(0,0)"/>
<path d="" fill="#313745" transform="translate(0,0)"/>
<path d="" fill="#32455B" transform="translate(0,0)"/>
<path d="" fill="#323F54" transform="translate(0,0)"/>
<path d="" fill="#295E8E" transform="translate(0,0)"/>
<path d="" fill="#323A4A" transform="translate(0,0)"/>
<path d="" fill="#0889EB" transform="translate(0,0)"/>
<path d="" fill="#0A84E4" transform="translate(0,0)"/>
<path d="" fill="#0987E6" transform="translate(0,0)"/>
<path d="" fill="#0A85E6" transform="translate(0,0)"/>
<path d="" fill="#0E84E2" transform="translate(0,0)"/>
<path d="" fill="#0789E9" transform="translate(0,0)"/>
<path d="" fill="#0B86E2" transform="translate(0,0)"/>
<path d="" fill="#0886E6" transform="translate(0,0)"/>
<path d="" fill="#0D85E3" transform="translate(0,0)"/>
<path d="" fill="#0C87E7" transform="translate(0,0)"/>
<path d="" fill="#0A8DEA" transform="translate(0,0)"/>
<path d="" fill="#0C8CEB" transform="translate(0,0)"/>
<path d="" fill="#088DE8" transform="translate(0,0)"/>
<path d="" fill="#0985E4" transform="translate(0,0)"/>
<path d="" fill="#0986E9" transform="translate(0,0)"/>
<path d="" fill="#0A87EB" transform="translate(0,0)"/>
<path d="" fill="#0A88E8" transform="translate(0,0)"/>
<path d="" fill="#078EEE" transform="translate(0,0)"/>
<path d="" fill="#0990F1" transform="translate(0,0)"/>
<path d="" fill="#0786EB" transform="translate(0,0)"/>
<path d="" fill="#0990F4" transform="translate(0,0)"/>
<path d="" fill="#0988EC" transform="translate(0,0)"/>
<path d="" fill="#0689ED" transform="translate(0,0)"/>
<path d="" fill="#0A8AEC" transform="translate(0,0)"/>
<path d="" fill="#088AED" transform="translate(0,0)"/>
<path d="" fill="#0B89ED" transform="translate(0,0)"/>
<path d="" fill="#0793F5" transform="translate(0,0)"/>
<path d="" fill="#0694F6" transform="translate(0,0)"/>
<path d="" fill="#0789EF" transform="translate(0,0)"/>
<path d="" fill="#0C88EB" transform="translate(0,0)"/>
<path d="" fill="#0797F7" transform="translate(0,0)"/>
<path d="" fill="#0988EE" transform="translate(0,0)"/>
<path d="" fill="#0B8AEF" transform="translate(0,0)"/>
<path d="" fill="#0C88E9" transform="translate(0,0)"/>
<path d="" fill="#0982E9" transform="translate(0,0)"/>
<path d="" fill="#0896F8" transform="translate(0,0)"/>
<path d="" fill="#0693F7" transform="translate(0,0)"/>
<path d="" fill="#0890ED" transform="translate(0,0)"/>
<path d="" fill="#0996F8" transform="translate(0,0)"/>
<path d="" fill="#0A85EC" transform="translate(0,0)"/>
<path d="" fill="#0C86EC" transform="translate(0,0)"/>
<path d="" fill="#323C4E" transform="translate(0,0)"/>
<path d="" fill="#0986EB" transform="translate(0,0)"/>
<path d="" fill="#0C83EC" transform="translate(0,0)"/>
<path d="" fill="#0B84E9" transform="translate(0,0)"/>
<path d="" fill="#0B84EA" transform="translate(0,0)"/>
<path d="" fill="#0797F9" transform="translate(0,0)"/>
<path d="" fill="#0796FA" transform="translate(0,0)"/>
<path d="" fill="#0C83E9" transform="translate(0,0)"/>
<path d="" fill="#0986EB" transform="translate(0,0)"/>
<path d="" fill="#0A93EE" transform="translate(0,0)"/>
<path d="" fill="#097EEB" transform="translate(0,0)"/>
<path d="" fill="#0592F2" transform="translate(0,0)"/>
<path d="" fill="#089BF8" transform="translate(0,0)"/>
<path d="" fill="#0A83EC" transform="translate(0,0)"/>
<path d="" fill="#0592F1" transform="translate(0,0)"/>
<path d="" fill="#0897F9" transform="translate(0,0)"/>
<path d="" fill="#0782EE" transform="translate(0,0)"/>
<path d="" fill="#0C80E9" transform="translate(0,0)"/>
<path d="" fill="#0B81EB" transform="translate(0,0)"/>
<path d="" fill="#088EF2" transform="translate(0,0)"/>
<path d="" fill="#0B94EE" transform="translate(0,0)"/>
<path d="" fill="#0C90F3" transform="translate(0,0)"/>
<path d="" fill="#34465F" transform="translate(0,0)"/>
<path d="" fill="#0A95EF" transform="translate(0,0)"/>
<path d="" fill="#0B96FA" transform="translate(0,0)"/>
<path d="" fill="#0A99F8" transform="translate(0,0)"/>
<path d="" fill="#0998FA" transform="translate(0,0)"/>
<path d="" fill="#0994F9" transform="translate(0,0)"/>
<path d="" fill="#0995F8" transform="translate(0,0)"/>
<path d="" fill="#0B92F7" transform="translate(0,0)"/>
<path d="" fill="#0B95F9" transform="translate(0,0)"/>
<path d="" fill="#0C7BE8" transform="translate(0,0)"/>
<path d="" fill="#0A7AEC" transform="translate(0,0)"/>
<path d="" fill="#0995F7" transform="translate(0,0)"/>
<path d="" fill="#0795F9" transform="translate(0,0)"/>
<path d="" fill="#0785EE" transform="translate(0,0)"/>
<path d="" fill="#0693F6" transform="translate(0,0)"/>
<path d="" fill="#079CFC" transform="translate(0,0)"/>
<path d="" fill="#0A7AE8" transform="translate(0,0)"/>
<path d="" fill="#097CEA" transform="translate(0,0)"/>
<path d="" fill="#089AF9" transform="translate(0,0)"/>
<path d="" fill="#0E7CEA" transform="translate(0,0)"/>
<path d="" fill="#0993F4" transform="translate(0,0)"/>
<path d="" fill="#0994F5" transform="translate(0,0)"/>
<path d="" fill="#087BE9" transform="translate(0,0)"/>
<path d="" fill="#0A90F3" transform="translate(0,0)"/>
<path d="" fill="#097CED" transform="translate(0,0)"/>
<path d="" fill="#0893F5" transform="translate(0,0)"/>
<path d="" fill="#0891F3" transform="translate(0,0)"/>
<path d="" fill="#0A87E7" transform="translate(0,0)"/>
<path d="" fill="#0892F4" transform="translate(0,0)"/>
<path d="" fill="#099AFA" transform="translate(0,0)"/>
<path d="" fill="#0892F1" transform="translate(0,0)"/>
<path d="" fill="#0A91F3" transform="translate(0,0)"/>
<path d="" fill="#0697F8" transform="translate(0,0)"/>
<path d="" fill="#0597F6" transform="translate(0,0)"/>
<path d="" fill="#0899F8" transform="translate(0,0)"/>
<path d="" fill="#0C7DEB" transform="translate(0,0)"/>
<path d="" fill="#0B7BEC" transform="translate(0,0)"/>
<path d="" fill="#0894F9" transform="translate(0,0)"/>
<path d="" fill="#0778EB" transform="translate(0,0)"/>
<path d="" fill="#0878EB" transform="translate(0,0)"/>
<path d="" fill="#0898F9" transform="translate(0,0)"/>
<path d="" fill="#0995F8" transform="translate(0,0)"/>
<path d="" fill="#0796F7" transform="translate(0,0)"/>
<path d="" fill="#0B90F0" transform="translate(0,0)"/>
<path d="" fill="#0794F6" transform="translate(0,0)"/>
<path d="" fill="#0678EB" transform="translate(0,0)"/>
<path d="" fill="#0995F7" transform="translate(0,0)"/>
<path d="" fill="#0A94F4" transform="translate(0,0)"/>
<path d="" fill="#0896F7" transform="translate(0,0)"/>
<path d="" fill="#0995F9" transform="translate(0,0)"/>
<path d="" fill="#0979E8" transform="translate(0,0)"/>
<path d="" fill="#0893F7" transform="translate(0,0)"/>
<path d="" fill="#0599F8" transform="translate(0,0)"/>
<path d="" fill="#0898F0" transform="translate(0,0)"/>
<path d="" fill="#0899FB" transform="translate(0,0)"/>
<path d="" fill="#0799FC" transform="translate(0,0)"/>
<path d="" fill="#0C79E7" transform="translate(0,0)"/>
<path d="" fill="#0A94F8" transform="translate(0,0)"/>
<path d="" fill="#0895F8" transform="translate(0,0)"/>
<path d="" fill="#0599F9" transform="translate(0,0)"/>
<path d="" fill="#0E72E1" transform="translate(0,0)"/>
<path d="" fill="#0897F7" transform="translate(0,0)"/>
<path d="" fill="#0795FC" transform="translate(0,0)"/>
<path d="" fill="#0591F6" transform="translate(0,0)"/>
<path d="" fill="#0698FA" transform="translate(0,0)"/>
<path d="" fill="#0794F4" transform="translate(0,0)"/>
<path d="" fill="#0792F5" transform="translate(0,0)"/>
<path d="" fill="#0A9CFE" transform="translate(0,0)"/>
<path d="" fill="#0695F5" transform="translate(0,0)"/>
<path d="" fill="#0894F6" transform="translate(0,0)"/>
<path d="" fill="#0895F0" transform="translate(0,0)"/>
<path d="" fill="#0998F4" transform="translate(0,0)"/>
<path d="" fill="#0597FD" transform="translate(0,0)"/>
<path d="" fill="#0B9AFC" transform="translate(0,0)"/>
<path d="" fill="#0A80EE" transform="translate(0,0)"/>
<path d="" fill="#0F7AE7" transform="translate(0,0)"/>
<path d="" fill="#0A80F0" transform="translate(0,0)"/>
<path d="" fill="#0599FA" transform="translate(0,0)"/>
<path d="" fill="#0D78E9" transform="translate(0,0)"/>
<path d="" fill="#0B97F8" transform="translate(0,0)"/>
<path d="" fill="#0C90EE" transform="translate(0,0)"/>
<path d="" fill="#0997F9" transform="translate(0,0)"/>
<path d="" fill="#0896FB" transform="translate(0,0)"/>
<path d="" fill="#0894F3" transform="translate(0,0)"/>
<path d="" fill="#0794F6" transform="translate(0,0)"/>
<path d="" fill="#0A96F9" transform="translate(0,0)"/>
<path d="" fill="#0795FA" transform="translate(0,0)"/>
<path d="" fill="#0494F8" transform="translate(0,0)"/>
<path d="" fill="#0B96F8" transform="translate(0,0)"/>
<path d="" fill="#0A97FD" transform="translate(0,0)"/>
<path d="" fill="#0F76E2" transform="translate(0,0)"/>
<path d="" fill="#0895F7" transform="translate(0,0)"/>
<path d="" fill="#0B94F7" transform="translate(0,0)"/>
<path d="" fill="#1075E2" transform="translate(0,0)"/>
<path d="" fill="#0599F8" transform="translate(0,0)"/>
<path d="" fill="#0D91ED" transform="translate(0,0)"/>
<path d="" fill="#0B96F9" transform="translate(0,0)"/>
<path d="" fill="#0798F6" transform="translate(0,0)"/>
<path d="" fill="#0897F9" transform="translate(0,0)"/>
<path d="" fill="#0393F0" transform="translate(0,0)"/>
<path d="" fill="#0492F6" transform="translate(0,0)"/>
<path d="" fill="#0991F5" transform="translate(0,0)"/>
<path d="" fill="#098FF4" transform="translate(0,0)"/>
<path d="" fill="#0897F7" transform="translate(0,0)"/>
<path d="" fill="#0897F8" transform="translate(0,0)"/>
<path d="" fill="#0591F6" transform="translate(0,0)"/>
<path d="" fill="#0695F7" transform="translate(0,0)"/>
<path d="" fill="#0891F5" transform="translate(0,0)"/>
<path d="" fill="#0693F6" transform="translate(0,0)"/>
<path d="" fill="#0E77E1" transform="translate(0,0)"/>
<path d="" fill="#0894F4" transform="translate(0,0)"/>
<path d="" fill="#0396F5" transform="translate(0,0)"/>
<path d="" fill="#0995F7" transform="translate(0,0)"/>
<path d="" fill="#0897F9" transform="translate(0,0)"/>
<path d="" fill="#088CF1" transform="translate(0,0)"/>
<path d="" fill="#0894F8" transform="translate(0,0)"/>
<path d="" fill="#078DF2" transform="translate(0,0)"/>
<path d="" fill="#0997F8" transform="translate(0,0)"/>
<path d="" fill="#0A90F4" transform="translate(0,0)"/>
<path d="" fill="#0999F7" transform="translate(0,0)"/>
<path d="" fill="#0E78E7" transform="translate(0,0)"/>
<path d="" fill="#029AFB" transform="translate(0,0)"/>
<path d="" fill="#069BFA" transform="translate(0,0)"/>
<path d="" fill="#0D7CEC" transform="translate(0,0)"/>
<path d="" fill="#079AF9" transform="translate(0,0)"/>
<path d="" fill="#0A96F5" transform="translate(0,0)"/>
<path d="" fill="#0B91F4" transform="translate(0,0)"/>
<path d="" fill="#0B94F7" transform="translate(0,0)"/>
<path d="" fill="#0A95F4" transform="translate(0,0)"/>
<path d="" fill="#0B94F8" transform="translate(0,0)"/>
<path d="" fill="#0B97F9" transform="translate(0,0)"/>
<path d="" fill="#0796F7" transform="translate(0,0)"/>
<path d="" fill="#0A96F7" transform="translate(0,0)"/>
<path d="" fill="#097DEA" transform="translate(0,0)"/>
<path d="" fill="#0894FA" transform="translate(0,0)"/>
<path d="" fill="#0895F5" transform="translate(0,0)"/>
<path d="" fill="#0992F5" transform="translate(0,0)"/>
<path d="" fill="#0C7FEC" transform="translate(0,0)"/>
<path d="" fill="#0E7BEC" transform="translate(0,0)"/>
<path d="" fill="#0991F5" transform="translate(0,0)"/>
<path d="" fill="#0780EA" transform="translate(0,0)"/>
<path d="" fill="#0895F5" transform="translate(0,0)"/>
<path d="" fill="#0A94F5" transform="translate(0,0)"/>
<path d="" fill="#0A95FB" transform="translate(0,0)"/>
<path d="" fill="#0993F8" transform="translate(0,0)"/>
<path d="" fill="#0996F9" transform="translate(0,0)"/>
<path d="" fill="#0A94F5" transform="translate(0,0)"/>
<path d="" fill="#0A7FEB" transform="translate(0,0)"/>
<path d="" fill="#0499FA" transform="translate(0,0)"/>
<path d="" fill="#0B95F9" transform="translate(0,0)"/>
<path d="" fill="#0B93F4" transform="translate(0,0)"/>
<path d="" fill="#0C94F6" transform="translate(0,0)"/>
<path d="" fill="#0894F5" transform="translate(0,0)"/>
<path d="" fill="#0595FC" transform="translate(0,0)"/>
<path d="" fill="#0A95F5" transform="translate(0,0)"/>
<path d="" fill="#049AFD" transform="translate(0,0)"/>
<path d="" fill="#0894F9" transform="translate(0,0)"/>
<path d="" fill="#0692FA" transform="translate(0,0)"/>
<path d="" fill="#0982EB" transform="translate(0,0)"/>
<path d="" fill="#0A93F5" transform="translate(0,0)"/>
<path d="" fill="#0C93F1" transform="translate(0,0)"/>
<path d="" fill="#0A92F4" transform="translate(0,0)"/>
<path d="" fill="#0993F5" transform="translate(0,0)"/>
<path d="" fill="#0983F0" transform="translate(0,0)"/>
<path d="" fill="#0B95F8" transform="translate(0,0)"/>
<path d="" fill="#0B97F6" transform="translate(0,0)"/>
<path d="" fill="#0987EF" transform="translate(0,0)"/>
<path d="" fill="#0993F4" transform="translate(0,0)"/>
<path d="" fill="#0895F5" transform="translate(0,0)"/>
<path d="" fill="#0A91F2" transform="translate(0,0)"/>
<path d="" fill="#0785EF" transform="translate(0,0)"/>
<path d="" fill="#0A96F8" transform="translate(0,0)"/>
<path d="" fill="#0C84ED" transform="translate(0,0)"/>
<path d="" fill="#0993F5" transform="translate(0,0)"/>
<path d="" fill="#088AF0" transform="translate(0,0)"/>
<path d="" fill="#0798F9" transform="translate(0,0)"/>
<path d="" fill="#0786EE" transform="translate(0,0)"/>
<path d="" fill="#058CF3" transform="translate(0,0)"/>
<path d="" fill="#0988F1" transform="translate(0,0)"/>
<path d="" fill="#0B97F4" transform="translate(0,0)"/>
<path d="" fill="#078FF2" transform="translate(0,0)"/>
<path d="" fill="#0886F0" transform="translate(0,0)"/>
<path d="" fill="#0993F7" transform="translate(0,0)"/>
<path d="" fill="#088AF2" transform="translate(0,0)"/>
<path d="" fill="#0697F7" transform="translate(0,0)"/>
<path d="" fill="#0A97F8" transform="translate(0,0)"/>
<path d="" fill="#0997F8" transform="translate(0,0)"/>
<path d="" fill="#0B94F3" transform="translate(0,0)"/>
<path d="" fill="#078EF1" transform="translate(0,0)"/>
<path d="" fill="#0892F4" transform="translate(0,0)"/>
<path d="" fill="#0A93F4" transform="translate(0,0)"/>
<path d="" fill="#0B94F6" transform="translate(0,0)"/>
<path d="" fill="#0897F6" transform="translate(0,0)"/>
<path d="" fill="#0795F7" transform="translate(0,0)"/>
<path d="" fill="#089AFA" transform="translate(0,0)"/>
<path d="" fill="#0798F7" transform="translate(0,0)"/>
<path d="" fill="#0998F9" transform="translate(0,0)"/>
<path d="" fill="#0999F8" transform="translate(0,0)"/>
<path d="" fill="#0A99F9" transform="translate(0,0)"/>
<path d="" fill="#079AFA" transform="translate(0,0)"/>
<path d="" fill="#0791F3" transform="translate(0,0)"/>
<path d="" fill="#059AFA" transform="translate(0,0)"/>
<path d="" fill="#0997F7" transform="translate(0,0)"/>
<path d="" fill="#0598FA" transform="translate(0,0)"/>
<path d="" fill="#0799FB" transform="translate(0,0)"/>
<path d="" fill="#0E92F1" transform="translate(0,0)"/>
<path d="" fill="#0897FA" transform="translate(0,0)"/>
<path d="" fill="#0E95F4" transform="translate(0,0)"/>
<path d="" fill="#0D93F0" transform="translate(0,0)"/>
<path d="" fill="#0795F9" transform="translate(0,0)"/>
<path d="" fill="#0E95F0" transform="translate(0,0)"/>
<path d="" fill="#0798F6" transform="translate(0,0)"/>
<path d="" fill="#0994F9" transform="translate(0,0)"/>
<path d="" fill="#0795F8" transform="translate(0,0)"/>
<path d="" fill="#0699FB" transform="translate(0,0)"/>
<path d="" fill="#0E98FC" transform="translate(0,0)"/>
<path d="" fill="#0D97FB" transform="translate(0,0)"/>
<path d="" fill="#0A90F0" transform="translate(0,0)"/>
<path d="" fill="#0997F2" transform="translate(0,0)"/>
<path d="" fill="#0D8DEF" transform="translate(0,0)"/>
<path d="" fill="#1095F1" transform="translate(0,0)"/>
<path d="" fill="#0D92F1" transform="translate(0,0)"/>
<path d="" fill="#0A97F4" transform="translate(0,0)"/>
<path d="" fill="#0C94F3" transform="translate(0,0)"/>
<path d="" fill="#0C93EF" transform="translate(0,0)"/>
<path d="" fill="#0E93F1" transform="translate(0,0)"/>
<path d="" fill="#0D9BF4" transform="translate(0,0)"/>
<path d="" fill="#0C92F1" transform="translate(0,0)"/>
<path d="" fill="#0D94F3" transform="translate(0,0)"/>
<path d="" fill="#0D93F4" transform="translate(0,0)"/>
<path d="" fill="#0996F6" transform="translate(0,0)"/>
<path d="" fill="#344A65" transform="translate(0,0)"/>
<path d="" fill="#2F3B4B" transform="translate(0,0)"/>
<path d="" fill="#364C67" transform="translate(0,0)"/>
<path d="" fill="#364762" transform="translate(0,0)"/>
</svg>
