<?xml version="1.0" encoding="UTF-8"?>
<svg version="1.1" xmlns="http://www.w3.org/2000/svg" width="1024" height="1024">
<path d="M0 0 C0.71913574 0.01401855 1.43827148 0.02803711 2.17919922 0.04248047 C16.68181893 0.33116385 30.75416968 2.27685364 45.06445312 4.55859375 C49.03434851 5.15553078 53.00623525 5.59556813 57 6 C57 6.66 57 7.32 57 8 C57.57363281 8.06316406 58.14726563 8.12632812 58.73828125 8.19140625 C81.35485533 11.45176215 105.33778661 23.41965686 121 40 C126.51616528 47.54483763 129.30774508 54.53647698 129.26742554 63.93656921 C129.27195665 64.71797659 129.27648776 65.49938397 129.28115618 66.30447036 C129.29378039 68.91357157 129.29218109 71.5224635 129.29052734 74.1315918 C129.29651393 76.00623339 129.30331978 77.88087252 129.31088257 79.75550842 C129.32853903 84.84251954 129.33323788 89.92946335 129.33451414 95.01650214 C129.33593679 98.19763687 129.34020862 101.37875454 129.34550858 104.55988503 C129.3640095 115.6664806 129.37217933 126.7730282 129.37060547 137.87963867 C129.36940489 148.21790992 129.39049072 158.55597212 129.4220928 168.89419049 C129.44828612 177.781044 129.45897144 186.66782938 129.45769465 195.55472118 C129.45718581 200.85747014 129.46282582 206.16003339 129.48405075 211.46274376 C129.50348393 216.45411163 129.50352288 221.44511765 129.48901749 226.43649864 C129.48693441 228.26214123 129.49160022 230.08780676 129.5037384 231.91341019 C129.60144793 247.63521013 127.06503909 259.04599097 116 271 C113.89591473 272.75884131 111.8574771 274.36833868 109.625 275.9375 C109.0163208 276.36643555 108.4076416 276.79537109 107.78051758 277.23730469 C62.49312784 308.20482295 -5.25623884 309.15744824 -57.19140625 299.74609375 C-81.02117288 295.10769239 -113.12129291 288.53789779 -129.76489258 268.91967773 C-132.57888446 266.50281065 -133.86377501 266.55265387 -137.5234375 266.6796875 C-138.61615967 266.70313232 -139.70888184 266.72657715 -140.8347168 266.75073242 C-142.58715698 266.81224487 -142.58715698 266.81224487 -144.375 266.875 C-180.48923717 267.50519428 -219.03617618 261.45362287 -249 240 C-249.71800781 239.48695313 -250.43601562 238.97390625 -251.17578125 238.4453125 C-259.04942992 232.26510933 -265.34384471 222.68698855 -266.73046875 212.70703125 C-266.89887918 211.07710095 -267.05022107 209.44534701 -267.1875 207.8125 C-267.26863037 206.91466797 -267.34976074 206.01683594 -267.43334961 205.09179688 C-268.14469021 196.19740479 -268.11739949 187.32055509 -268.02539062 178.40356445 C-267.9569242 171.06305698 -268.19468899 163.82195469 -268.6875 156.5 C-269.42549532 143.80456666 -267.08909069 134.10765278 -259 124 C-248.84074657 112.91867495 -235.97528646 106.14529549 -222 101 C-221.36674805 100.76571289 -220.73349609 100.53142578 -220.08105469 100.29003906 C-194.75243273 91.04575321 -166.04752735 84.50886526 -139 86 C-139.14308594 84.04320312 -139.14308594 84.04320312 -139.2890625 82.046875 C-140.37764429 65.66795422 -140.07992145 52.26228554 -129.1875 39.0625 C-98.50288046 6.86383673 -42.21865914 -1.44936704 0 0 Z M-115 56 C-117.45257412 59.67886118 -118.30640811 61.55708247 -118 66 C-112.7240937 76.79063962 -97.64279671 81.19752397 -87.08642578 84.89770508 C-78.15943283 87.90954036 -69.27786379 90.32483015 -60 92 C-59.21995605 92.16064941 -58.43991211 92.32129883 -57.63623047 92.48681641 C-44.34100567 95.07494037 -30.53111683 96.54804974 -17 97 C-16.26716797 97.02723145 -15.53433594 97.05446289 -14.77929688 97.08251953 C21.97918314 98.27724527 74.86624665 96.06990956 104 71 C107.12756449 67.48413744 107.71696802 64.99401978 107.52734375 60.3671875 C106.11007737 54.00523619 100.4072308 50.05184702 95.3125 46.5 C42.79142034 14.94412498 -69.67933597 7.7430676 -115 56 Z M107 96 C108 98 108 98 108 98 Z M-117 97 C-119.21021576 101.42043151 -118.18499403 107.45844141 -118.1875 112.3125 C-118.19974609 113.54935547 -118.21199219 114.78621094 -118.22460938 116.06054688 C-118.22654297 117.25357422 -118.22847656 118.44660156 -118.23046875 119.67578125 C-118.23457764 120.76802002 -118.23868652 121.86025879 -118.24291992 122.9855957 C-117.89003341 127.36458037 -116.93355589 130.0714453 -113.8125 133.17578125 C-89.927389 151.32183086 -57.35758317 157.94736597 -28 160 C-27.19546387 160.05639648 -26.39092773 160.11279297 -25.56201172 160.17089844 C-20.04409353 160.53926825 -14.5265691 160.80408594 -9 161 C-7.32164062 161.06380859 -7.32164062 161.06380859 -5.609375 161.12890625 C28.42641945 161.7576463 77.14727571 158.16745186 104 134 C107.49001024 129.5403611 108.49050798 126.71370063 108.390625 121.0703125 C108.37773438 119.78125 108.36484375 118.4921875 108.3515625 117.1640625 C108.31814906 115.81769732 108.28428937 114.47134315 108.25 113.125 C108.22991356 111.75523431 108.21166655 110.38544034 108.1953125 109.015625 C108.1482806 105.67636014 108.08255864 102.33854438 108 99 C107.34 99 106.68 99 106 99 C105.67 98.34 105.34 97.68 105 97 C104.12601563 97.43570313 103.25203125 97.87140625 102.3515625 98.3203125 C71.97883561 113.16668273 37.61152746 119.06453354 4 120 C3.2260791 120.02723145 2.4521582 120.05446289 1.65478516 120.08251953 C-35.25364475 121.26830259 -72.45422628 114.55573815 -106.67724609 100.91699219 C-110.10135159 99.56520112 -113.5490955 98.28165081 -117 97 Z M-242.65234375 138.4921875 C-245.96330187 142.1966218 -246.75074311 145.0979478 -247 150 C-244.85294366 157.36133601 -238.23965082 161.09039888 -231.96484375 164.7890625 C-219.01926084 171.66309132 -205.15192045 175.58265993 -190.8125 178.375 C-189.52170532 178.62672974 -189.52170532 178.62672974 -188.20483398 178.88354492 C-184.28723004 179.59308652 -180.56031151 180.08449324 -176.57421875 180.0390625 C-173 180 -173 180 -170 181 C-169.34 181 -168.68 181 -168 181 C-166.39705078 181.12568359 -166.39705078 181.12568359 -164.76171875 181.25390625 C-164.10494141 181.30353516 -163.44816406 181.35316406 -162.77148438 181.40429688 C-161.42457031 181.50654621 -160.0781383 181.61546151 -158.73242188 181.73242188 C-151.91994707 182.22323418 -146.06139579 181.54318429 -139 181 C-139 157.24 -139 133.48 -139 109 C-171.83826329 109 -217.5055839 114.77747548 -242.65234375 138.4921875 Z M-118 159 C-118.08755672 163.35403865 -118.14057969 167.70784877 -118.1875 172.0625 C-118.21263672 173.29162109 -118.23777344 174.52074219 -118.26367188 175.78710938 C-118.37832323 184.83284998 -118.37832323 184.83284998 -115 193 C-104.93563317 203.14488176 -88.32753289 207.86504749 -75 212 C-74.01 212.33 -73.02 212.66 -72 213 C-53.47968974 217.44881111 -34.99886308 219.28622458 -16 220 C-15.02111816 220.03996094 -14.04223633 220.07992187 -13.03369141 220.12109375 C22.88643219 221.7030765 22.88643219 221.7030765 56 212 C57.61422242 211.6709686 59.2423983 211.40792545 60.875 211.1875 C67.64931078 210.04506024 73.6736419 207.61075783 80 205 C81.55460937 204.41025391 81.55460937 204.41025391 83.140625 203.80859375 C90.17899941 201.074456 96.06914386 197.67082077 102 193 C103.010625 192.21625 104.02125 191.4325 105.0625 190.625 C107.87685216 186.81200675 107.9072761 183.64944106 108 179 C108.05800781 177.24042969 108.05800781 177.24042969 108.1171875 175.4453125 C108.53586487 167.8985425 108.53586487 167.8985425 106 161 C101.78455782 162.3093925 97.81122961 163.92844987 93.78564453 165.71582031 C36.80687451 190.81064978 -37.07224679 191.26709528 -95 169 C-100.81458191 166.50339234 -106.49453644 163.74143341 -112.11914062 160.84448242 C-114.0591882 159.97342524 -115.92589675 159.45263102 -118 159 Z M107 159 C107 162 107 162 107 162 Z M-246 183 C-246.08816905 186.64567713 -246.14077948 190.29107474 -246.1875 193.9375 C-246.21263672 194.95908203 -246.23777344 195.98066406 -246.26367188 197.03320312 C-246.33681713 204.66469111 -245.75871836 211.30859885 -241.08203125 217.56640625 C-217.26853137 238.51080976 -182.8105547 242.60546334 -152.375 243.5625 C-145.754375 243.7790625 -145.754375 243.7790625 -139 244 C-139 230.8 -139 217.6 -139 204 C-142.75375 204.061875 -146.5075 204.12375 -150.375 204.1875 C-177.51994143 204.33782526 -218.30463536 201.77838084 -241.203125 184.3203125 C-243.03129138 182.70393856 -243.03129138 182.70393856 -246 183 Z M97.25 221.4375 C65.70206532 238.07099362 28.51665653 242.2226217 -6.625 242.25 C-7.52607483 242.25100708 -8.42714966 242.25201416 -9.35552979 242.25305176 C-44.4630137 242.22663821 -78.2977073 236.85483646 -110.22216797 221.81835938 C-112.44912294 220.79326283 -114.71137868 219.87782736 -117 219 C-118.7916878 235.45690834 -118.7916878 235.45690834 -115.625 251.375 C-111.56488344 255.43511656 -106.97950521 258.18094761 -102 261 C-100.96746094 261.59039063 -99.93492187 262.18078125 -98.87109375 262.7890625 C-51.29632319 288.28958887 16.6475202 285.72222382 67 271 C68.67540664 270.35561283 70.34421521 269.69325245 72 269 C72.99 268.67 73.98 268.34 75 268 C93.95961991 260.98114384 93.95961991 260.98114384 107.171875 246.55859375 C108.40720712 241.25016186 108.20812579 236.05375373 108.125 230.625 C108.11597656 229.50738281 108.10695313 228.38976562 108.09765625 227.23828125 C108.07418346 224.49196538 108.04134728 221.74609528 108 219 C103.52240966 217.55076373 101.15106951 219.24191576 97.25 221.4375 Z " fill="#00DBFA" transform="translate(586,485)"/>
<path d="M0 0 C1.12265259 -0.00671722 2.24530518 -0.01343445 3.40197754 -0.02035522 C7.10657191 -0.03932655 10.81098511 -0.04325866 14.515625 -0.04541016 C17.09342524 -0.05183734 19.67122474 -0.05856564 22.24902344 -0.06558228 C27.64910892 -0.07755193 33.04912264 -0.08134903 38.44921875 -0.08007812 C44.68300954 -0.07887581 50.91645463 -0.10000187 57.15015793 -0.13156545 C63.15910065 -0.16090181 69.16785599 -0.16805346 75.17687988 -0.16685867 C77.7285707 -0.16921942 80.28026407 -0.17806942 82.83190918 -0.19352341 C86.39864897 -0.21310734 89.964496 -0.20737488 93.53125 -0.1953125 C95.11178162 -0.21217102 95.11178162 -0.21217102 96.72424316 -0.22937012 C102.50424183 -0.1796701 106.41150247 0.0734335 110.765625 4.29052734 C114.39709292 10.23326128 114.18681888 15.98157958 114.13793945 22.80615234 C114.14159012 23.94685181 114.14524078 25.08755127 114.14900208 26.26281738 C114.15708814 30.02220689 114.143513 33.78116275 114.12890625 37.54052734 C114.12838741 40.15934244 114.12890603 42.77815794 114.13041687 45.39697266 C114.13129809 50.88107446 114.12025553 56.36505224 114.10180664 61.84912109 C114.08064161 68.17654571 114.07713017 74.50378876 114.0833686 80.83124161 C114.08907658 86.93468147 114.08329399 93.03804759 114.07219505 99.14147949 C114.06834987 101.73140202 114.06719201 104.32132999 114.0687809 106.91125488 C114.06915235 110.53257587 114.05650843 114.15362261 114.0402832 117.77490234 C114.04399933 119.37573669 114.04399933 119.37573669 114.04779053 121.00891113 C113.95662263 133.77889591 113.95662263 133.77889591 109.203125 139.22802734 C105.93066428 141.62622772 102.89901957 142.13204273 98.88671875 141.91552734 C95.61396273 140.95117935 94.37987643 139.03868592 92.640625 136.21240234 C90.51036522 131.5334389 90.62933707 126.90959812 90.65209961 121.85009766 C90.65195358 121.00095291 90.65180756 120.15180817 90.6516571 119.27693176 C90.65235299 116.47414585 90.66013024 113.67142663 90.66796875 110.86865234 C90.66983408 108.92380815 90.67125744 106.97896348 90.67225647 105.03411865 C90.67607258 99.91805725 90.68589516 94.80202429 90.69696045 89.68597412 C90.70719402 84.46431869 90.71175826 79.24265866 90.71679688 74.02099609 C90.72751822 63.77749402 90.7445838 53.53401305 90.765625 43.29052734 C85.36275873 47.84951124 85.36275873 47.84951124 80.2487793 52.72558594 C79.65514084 53.32575531 79.06150238 53.92592468 78.44987488 54.54428101 C77.83606461 55.16952667 77.22225433 55.79477234 76.58984375 56.43896484 C75.25468586 57.78674847 73.91939568 59.13440105 72.58398438 60.48193359 C70.50388016 62.58700994 68.42542441 64.69366834 66.34936523 66.80273438 C64.3296667 68.85245769 62.30393865 70.89606323 60.27734375 72.93896484 C59.65341232 73.5763559 59.0294809 74.21374695 58.38664246 74.87045288 C56.88382145 76.38206063 55.32927866 77.84193624 53.765625 79.29052734 C53.105625 79.29052734 52.445625 79.29052734 51.765625 79.29052734 C51.394375 80.15677734 51.394375 80.15677734 51.015625 81.04052734 C49.58262512 83.61992714 47.98137824 85.35174326 45.765625 87.29052734 C45.105625 87.29052734 44.445625 87.29052734 43.765625 87.29052734 C43.765625 87.95052734 43.765625 88.61052734 43.765625 89.29052734 C42.38298035 90.65316772 42.38298035 90.65316772 40.41870117 92.26855469 C35.10734846 96.78880838 30.23202361 101.69911382 25.31640625 106.64208984 C24.33112834 107.62923893 23.3456249 108.61616296 22.35990906 109.60287476 C19.78686068 112.17970658 17.21682767 114.75952473 14.64746094 117.34002686 C12.0369793 119.9607628 9.42364884 122.57865454 6.81054688 125.19677734 C2.2119144 129.80492804 -2.38424279 134.4155325 -6.9785614 139.02798462 C-8.09518913 140.14794327 -8.09518913 140.14794327 -9.234375 141.29052734 C-10.09525223 142.15624359 -10.95612946 143.02195984 -11.84309387 143.91390991 C-14.50525973 146.55975097 -17.26371527 149.08645035 -20.046875 151.60302734 C-24.38818325 155.54212714 -28.57587093 159.57511445 -32.61328125 163.82958984 C-35.71633185 166.626074 -39.09148746 166.4613945 -43.1015625 166.61865234 C-48.91876028 165.72369884 -52.8589358 160.91699398 -56.77734375 156.90771484 C-57.38701492 156.2928421 -57.9966861 155.67796936 -58.62483215 155.04446411 C-60.56202026 153.08953553 -62.49235395 151.12802137 -64.421875 149.16552734 C-66.36298692 147.19679847 -68.30554406 145.22955144 -70.25105286 143.26516724 C-71.45913739 142.04482211 -72.66453876 140.8218138 -73.86698914 139.59591675 C-76.76283185 136.56775888 -76.76283185 136.56775888 -80.234375 134.29052734 C-80.234375 133.63052734 -80.234375 132.97052734 -80.234375 132.29052734 C-80.853125 132.04302734 -81.471875 131.79552734 -82.109375 131.54052734 C-84.63796127 130.05312366 -84.95276504 128.85374726 -86.234375 126.29052734 C-86.83926758 125.99098145 -87.44416016 125.69143555 -88.06738281 125.3828125 C-90.50174038 124.15576025 -91.99883009 122.7542713 -93.90625 120.81396484 C-94.57011719 120.14365234 -95.23398437 119.47333984 -95.91796875 118.78271484 C-96.94083984 117.73470703 -96.94083984 117.73470703 -97.984375 116.66552734 C-99.03044922 115.60591797 -99.03044922 115.60591797 -100.09765625 114.52490234 C-101.8145043 112.78453582 -103.52561498 111.03882463 -105.234375 109.29052734 C-110.97433373 114.02081135 -116.20645772 119.15499733 -121.43236732 124.44392014 C-122.93869325 125.96783506 -124.44870664 127.4880085 -125.95976257 129.00723267 C-130.25005461 133.32182526 -134.53444574 137.64224427 -138.81469727 141.96679688 C-141.44452682 144.6233325 -144.07914624 147.27503788 -146.71681786 149.92378616 C-147.71907747 150.93226251 -148.71943445 151.9426334 -149.71785927 152.95490646 C-151.10595811 154.3621179 -152.50069048 155.76277672 -153.89575195 157.16308594 C-154.68738235 157.96217377 -155.47901276 158.7612616 -156.29463196 159.58456421 C-158.234375 161.29052734 -158.234375 161.29052734 -160.234375 161.29052734 C-160.481875 161.86802734 -160.729375 162.44552734 -160.984375 163.04052734 C-162.41737488 165.61992714 -164.01862176 167.35174326 -166.234375 169.29052734 C-166.894375 169.29052734 -167.554375 169.29052734 -168.234375 169.29052734 C-168.56308594 170.10602051 -168.56308594 170.10602051 -168.8984375 170.93798828 C-170.67542415 174.06719941 -173.07542475 176.41738133 -175.609375 178.93115234 C-176.13450684 179.45819763 -176.65963867 179.98524292 -177.20068359 180.52825928 C-178.30776383 181.63669663 -179.4173583 182.74262781 -180.52929688 183.84619141 C-182.23544475 185.54159035 -183.93061547 187.24744344 -185.625 188.95458984 C-186.70248392 190.03075293 -187.78058767 191.10629585 -188.859375 192.18115234 C-189.36774902 192.69357483 -189.87612305 193.20599731 -190.39990234 193.73394775 C-194.00443409 197.29052734 -194.00443409 197.29052734 -196.234375 197.29052734 C-196.63245361 198.17559967 -196.63245361 198.17559967 -197.03857422 199.07855225 C-198.26962763 201.35573716 -199.54500016 202.85474547 -201.3671875 204.68212891 C-202.00124512 205.32249084 -202.63530273 205.96285278 -203.28857422 206.62261963 C-203.97193848 207.30193542 -204.65530273 207.98125122 -205.359375 208.68115234 C-206.0620752 209.38576599 -206.76477539 210.09037964 -207.48876953 210.81634521 C-208.97247604 212.30141088 -210.45870392 213.78396116 -211.94726562 215.26416016 C-214.23281091 217.5389706 -216.50746517 219.82428094 -218.78125 222.11083984 C-220.22331719 223.55158602 -221.66600435 224.99171199 -223.109375 226.43115234 C-223.79273926 227.11856506 -224.47610352 227.80597778 -225.18017578 228.51422119 C-225.8142334 229.14197449 -226.44829102 229.76972778 -227.1015625 230.41650391 C-227.65956543 230.97291565 -228.21756836 231.52932739 -228.79248047 232.1026001 C-230.234375 233.29052734 -230.234375 233.29052734 -232.234375 233.29052734 C-232.481875 233.86802734 -232.729375 234.44552734 -232.984375 235.04052734 C-234.41737488 237.61992714 -236.01862176 239.35174326 -238.234375 241.29052734 C-238.894375 241.29052734 -239.554375 241.29052734 -240.234375 241.29052734 C-240.45432129 241.83513611 -240.67426758 242.37974487 -240.90087891 242.94085693 C-242.66784548 246.05431868 -245.04979525 248.38461596 -247.5703125 250.88525391 C-248.11359192 251.43203796 -248.65687134 251.97882202 -249.21661377 252.54217529 C-251.00921023 254.34355682 -252.80900242 256.13754502 -254.609375 257.93115234 C-255.85755211 259.18067663 -257.10543219 260.43049769 -258.35302734 261.68060303 C-260.96583477 264.29635702 -263.58222101 266.9084638 -266.20117188 269.51806641 C-269.56412739 272.8696041 -272.917994 276.23007123 -276.26925659 279.59329605 C-278.84263084 282.17388133 -281.42072978 284.7497038 -284.00030518 287.32408905 C-285.23938999 288.5618365 -286.47698203 289.80108015 -287.71307373 291.04181671 C-289.43674739 292.77054571 -291.16666023 294.49277315 -292.8984375 296.21337891 C-293.66840057 296.98941467 -293.66840057 296.98941467 -294.45391846 297.78112793 C-298.00584316 301.29052734 -298.00584316 301.29052734 -300.234375 301.29052734 C-300.5746875 302.15677734 -300.5746875 302.15677734 -300.921875 303.04052734 C-303.14486368 306.85136509 -306.09226492 308.90982398 -310.234375 310.29052734 C-315.94062283 310.82885261 -318.7899216 309.90810569 -323.234375 306.29052734 C-326.24022407 301.78175374 -326.27476876 297.55985976 -325.234375 292.29052734 C-323.72178212 290.19256571 -322.07662066 288.97053759 -319.9921875 287.43896484 C-316.19677023 284.48219502 -312.9179895 281.09043841 -309.546875 277.66552734 C-308.27230174 276.38150806 -306.99756775 275.09764829 -305.72265625 273.81396484 C-305.12702881 273.21189209 -304.53140137 272.60981934 -303.91772461 271.98950195 C-302.41106955 270.46886198 -300.89867547 268.95432187 -299.3828125 267.44287109 C-298.08368635 266.1413829 -296.79994425 264.82391654 -295.546875 263.47802734 C-294.234375 262.29052734 -294.234375 262.29052734 -292.234375 262.29052734 C-291.904375 261.30052734 -291.574375 260.31052734 -291.234375 259.29052734 C-290.574375 259.29052734 -289.914375 259.29052734 -289.234375 259.29052734 C-288.8940625 258.45521484 -288.8940625 258.45521484 -288.546875 257.60302734 C-285.76868987 252.70812973 -280.98948795 249.12677177 -276.84268188 245.39372253 C-269.49432019 238.71021671 -262.50560221 231.67973091 -255.50146484 224.6394043 C-254.0647684 223.19914307 -252.62783105 221.75912212 -251.19067383 220.31932068 C-248.12175926 217.24390671 -245.05436455 214.16698801 -241.98814011 211.08889198 C-237.14234028 206.22467634 -232.29208745 201.36491717 -227.44107056 196.50590515 C-213.65663526 182.6974036 -199.87825947 168.88286472 -186.10400391 155.06420898 C-178.4774365 147.41313642 -170.84731257 139.76562869 -163.21331942 132.12196511 C-158.38602856 127.28812142 -153.56328365 122.44980091 -148.74382281 117.60815108 C-145.75759993 114.61024426 -142.76724893 111.61648264 -139.77568054 108.6239109 C-138.38472346 107.23079715 -136.99549962 105.83595048 -135.60809708 104.43929672 C-133.72222969 102.54133603 -131.83039127 100.64954073 -129.93685913 98.75923157 C-129.3827918 98.19865643 -128.82872447 97.6380813 -128.25786722 97.06051904 C-124.4625911 93.29052734 -124.4625911 93.29052734 -122.234375 93.29052734 C-121.863125 92.39914062 -121.863125 92.39914062 -121.484375 91.48974609 C-120.04374617 88.95513975 -118.5946978 87.7908317 -116.234375 86.10302734 C-115.533125 85.59384766 -114.831875 85.08466797 -114.109375 84.56005859 C-110.35826466 82.0202443 -106.67872469 81.45529611 -102.234375 82.29052734 C-97.44444234 85.0137048 -93.82318182 88.48127614 -90.046875 92.41552734 C-85.92735393 96.67692506 -85.92735393 96.67692506 -81.234375 100.29052734 C-81.234375 100.95052734 -81.234375 101.61052734 -81.234375 102.29052734 C-80.68112549 102.51708008 -80.12787598 102.74363281 -79.55786133 102.97705078 C-76.54554863 104.67992378 -74.4827911 106.83650265 -72.05859375 109.30615234 C-71.57034622 109.79960144 -71.08209869 110.29305054 -70.57905579 110.80145264 C-69.02181093 112.37644622 -67.47141042 113.95795125 -65.921875 115.54052734 C-63.88754764 117.61164471 -61.84966808 119.67918426 -59.80859375 121.74365234 C-59.32204315 122.23724243 -58.83549255 122.73083252 -58.334198 123.23937988 C-55.65913432 125.93207908 -52.92616521 128.47853902 -50.00390625 130.89990234 C-49.08996094 131.68880859 -48.17601562 132.47771484 -47.234375 133.29052734 C-47.234375 133.95052734 -47.234375 134.61052734 -47.234375 135.29052734 C-44.14627805 137.05515417 -43.00125364 137.29052734 -39.234375 137.29052734 C-36.61284458 135.22476984 -36.61284458 135.22476984 -33.98828125 132.43505859 C-33.49529037 131.93640793 -33.0022995 131.43775726 -32.49436951 130.92399597 C-30.91889789 129.32615448 -29.3578527 127.71501896 -27.796875 126.10302734 C-26.75027969 125.03635812 -25.70276294 123.97059217 -24.65429688 122.90576172 C-22.71362588 120.93249084 -20.77980591 118.95331458 -18.84985352 116.96948242 C-17.55519165 115.64339966 -17.55519165 115.64339966 -16.234375 114.29052734 C-15.33968506 113.35168701 -14.44499512 112.41284668 -13.52319336 111.44555664 C-11.234375 109.29052734 -11.234375 109.29052734 -9.234375 109.29052734 C-9.234375 108.63052734 -9.234375 107.97052734 -9.234375 107.29052734 C-7.75077629 105.82749081 -7.75077629 105.82749081 -5.70797729 104.13401794 C-1.48335177 100.53889598 2.44271388 96.73561197 6.34326172 92.79467773 C7.053228 92.0816449 7.76319427 91.36861206 8.49467468 90.63397217 C10.02076363 89.10078182 11.54572052 87.56646397 13.0696373 86.03111458 C15.47921864 83.60403117 17.89242391 81.18060518 20.30667114 78.75816345 C27.16479418 71.87566908 34.0171252 64.98742856 40.86523438 58.0949707 C45.06531612 53.868194 49.27018511 49.64622985 53.47809219 45.42724419 C55.0804291 43.81868357 56.68086408 42.20822612 58.27938461 40.59587288 C60.50322526 38.35293721 62.73304601 36.11611723 64.96435547 33.88061523 C65.95862297 32.87320534 65.95862297 32.87320534 66.97297668 31.84544373 C67.57839798 31.2413266 68.18381927 30.63720947 68.80758667 30.01478577 C69.33367964 29.48555039 69.85977261 28.95631502 70.40180779 28.41104221 C71.765625 27.29052734 71.765625 27.29052734 73.765625 27.29052734 C74.095625 26.30052734 74.425625 25.31052734 74.765625 24.29052734 C73.11311234 24.2850589 73.11311234 24.2850589 71.42721558 24.27947998 C61.03931011 24.2425209 50.65170083 24.18473807 40.26402092 24.1066246 C34.92372289 24.06713424 29.58359014 24.03495331 24.24316406 24.01953125 C19.08825285 24.00437508 13.93379599 23.96994765 8.77908707 23.92221832 C6.81357907 23.90739386 4.8480062 23.89948572 2.88244247 23.89864349 C0.12670336 23.89627531 -2.62777864 23.86920776 -5.38330078 23.83642578 C-6.19394485 23.84145615 -7.00458893 23.84648651 -7.83979797 23.85166931 C-13.07039077 23.75555055 -16.08103539 22.75129852 -20.234375 19.29052734 C-21.97293066 15.81341602 -21.68801414 12.09215111 -21.234375 8.29052734 C-19.5309966 4.68722688 -18.42090343 2.84443304 -14.78808594 1.14852905 C-9.83371378 -0.04764583 -5.0799411 -0.00436972 0 0 Z " fill="#01DBFB" transform="translate(621.234375,266.70947265625)"/>
<path d="M0 0 C0.99 0.495 0.99 0.495 2 1 C-26.07316662 22.67051458 -68.12303166 26.25091318 -102.25 26.125 C-103.53600098 26.12306641 -104.82200195 26.12113281 -106.14697266 26.11914062 C-118.44508574 26.06469073 -130.71856976 25.61984131 -143 25 C-143 24.34 -143 23.68 -143 23 C-143.99 22.67 -144.98 22.34 -146 22 C-143.96931011 22.10153449 -141.9386248 22.2031611 -139.90795898 22.30517578 C-138.10546238 22.39491154 -136.30288705 22.48307713 -134.50024414 22.56982422 C-130.05309136 22.78585844 -125.60987864 23.01778494 -121.16796875 23.32421875 C-91.03153815 25.31374163 -56.54279437 24.2796812 -28.12890625 12.83203125 C-26 12 -26 12 -24.06640625 11.5234375 C-16.09514687 9.5042527 -8.78496609 5.52216219 -1.9609375 1.0390625 C-1.31382812 0.69617188 -0.66671875 0.35328125 0 0 Z " fill="#03AFDB" transform="translate(683,741)"/>
<path d="M0 0 C4.68353036 0.80974108 8.45148278 2.61256799 12.625 4.8125 C18.9336049 8.06256324 25.23147178 10.82030447 32 13 C28.62264075 14.16552753 26.91039526 13.86864818 23.6640625 12.453125 C22.84679687 12.1025 22.02953125 11.751875 21.1875 11.390625 C20.341875 11.01421875 19.49625 10.6378125 18.625 10.25 C17.36816406 9.70859375 17.36816406 9.70859375 16.0859375 9.15625 C11.65334347 7.23267146 7.29618656 5.2110667 3 3 C2.05304879 9.52344166 1.95495338 15.80740743 2.25 22.375 C2.27634521 23.15987793 2.30269043 23.94475586 2.32983398 24.75341797 C2.56243029 29.03595353 2.82956515 31.8125198 6 35 C5.67 35.66 5.34 36.32 5 37 C0.39954192 31.65753256 -0.12932092 28.45060308 -0.09765625 21.484375 C-0.09443359 20.23398437 -0.09121094 18.98359375 -0.08789062 17.6953125 C-0.07951172 16.39335938 -0.07113281 15.09140625 -0.0625 13.75 C-0.05798828 12.43257812 -0.05347656 11.11515625 -0.04882812 9.7578125 C-0.03704316 6.50516259 -0.02059011 3.25260416 0 0 Z " fill="#05B4E0" transform="translate(467,702)"/>
<path d="M0 0 C0.495 0.99 0.495 0.99 1 2 C0.195625 2.763125 -0.60875 3.52625 -1.4375 4.3125 C-4.16799024 6.79430898 -4.16799024 6.79430898 -5 10 C-6.08539063 10.63679687 -7.17078125 11.27359375 -8.2890625 11.9296875 C-14.26594837 15.49021523 -18.91154924 20.53648153 -23.74755859 25.46630859 C-25.38505162 27.13524463 -27.03324369 28.79300426 -28.68359375 30.44921875 C-29.73500576 31.50979173 -30.7858094 32.57096824 -31.8359375 33.6328125 C-32.3254892 34.12661407 -32.81504089 34.62041565 -33.31942749 35.12918091 C-37.44142431 39.06437324 -37.44142431 39.06437324 -39.1953125 44.26171875 C-39.17210937 45.06222656 -39.14890625 45.86273437 -39.125 46.6875 C-39.10695313 47.49574219 -39.08890625 48.30398438 -39.0703125 49.13671875 C-39.04710937 49.75160156 -39.02390625 50.36648438 -39 51 C-39.66 50.67 -40.32 50.34 -41 50 C-42.21071505 40.70103579 -42.21071505 40.70103579 -39.74609375 37.23828125 C-38.44752153 36.16969374 -37.11302963 35.14420636 -35.7578125 34.1484375 C-31.96239523 31.19166767 -28.6836145 27.79991106 -25.3125 24.375 C-24.03792674 23.09098071 -22.76319275 21.80712095 -21.48828125 20.5234375 C-20.59484009 19.62032837 -20.59484009 19.62032837 -19.68334961 18.69897461 C-18.17669455 17.17833464 -16.66430047 15.66379453 -15.1484375 14.15234375 C-13.84931135 12.85085555 -12.56556925 11.5333892 -11.3125 10.1875 C-10 9 -10 9 -8 9 C-7.67 8.01 -7.34 7.02 -7 6 C-6.34 6 -5.68 6 -5 6 C-4.731875 5.38125 -4.46375 4.7625 -4.1875 4.125 C-3 2 -3 2 0 0 Z " fill="#09B0DD" transform="translate(337,520)"/>
<path d="M0 0 C4.41815072 1.40333359 8.62918141 3.07936336 12.875 4.9375 C17.86861381 7.10777601 22.87648439 9.15553438 28 11 C24.32498858 12.35375421 22.33873193 11.63213623 18.796875 10.12890625 C17.32734375 9.51499023 17.32734375 9.51499023 15.828125 8.88867188 C14.81234375 8.45103516 13.7965625 8.01339844 12.75 7.5625 C11.71875 7.12873047 10.6875 6.69496094 9.625 6.24804688 C7.07888993 5.17538013 4.53768289 4.09241991 2 3 C0.21531289 4.78468711 0.86967237 7.41780231 0.8671875 9.828125 C0.86589844 11.02050781 0.86460937 12.21289062 0.86328125 13.44140625 C0.86714844 14.69824219 0.87101562 15.95507812 0.875 17.25 C0.87113281 18.49136719 0.86726563 19.73273437 0.86328125 21.01171875 C0.86457031 22.20925781 0.86585938 23.40679688 0.8671875 24.640625 C0.86831543 25.73922852 0.86944336 26.83783203 0.87060547 27.96972656 C0.9898295 30.76181844 1.36485371 33.28407158 2 36 C1.01 35.34 0.02 34.68 -1 34 C-1.27963793 31.45778479 -1.37241506 29.16215473 -1.328125 26.62109375 C-1.32531525 25.53019188 -1.32531525 25.53019188 -1.32244873 24.41725159 C-1.31572423 22.87976498 -1.30180171 21.34229559 -1.28125 19.80493164 C-1.25007737 17.44336166 -1.24027877 15.08245848 -1.234375 12.72070312 C-1.22520593 11.22915848 -1.21483047 9.73762065 -1.203125 8.24609375 C-1.19887512 7.53569443 -1.19462524 6.8252951 -1.19024658 6.09336853 C-1.11716113 1.11716113 -1.11716113 1.11716113 0 0 Z " fill="#05ABDB" transform="translate(468,580)"/>
<path d="M0 0 C-9.73428467 3.4971319 -19.48065933 6.53779141 -29.5625 8.875 C-30.91625732 9.19730591 -30.91625732 9.19730591 -32.29736328 9.52612305 C-37.99163226 10.79905243 -43.16645757 11.20136086 -49 11 C-49 10.67 -49 10.34 -49 10 C-47.48338673 9.48734199 -45.96140553 8.99055677 -44.4375 8.5 C-43.59058594 8.2215625 -42.74367188 7.943125 -41.87109375 7.65625 C-39 7 -39 7 -35.88671875 7.0859375 C-30.46572459 6.96607632 -25.58582731 5.54673588 -20.375 4.125 C-18.83972656 3.72087891 -18.83972656 3.72087891 -17.2734375 3.30859375 C-11.71329927 1.84074109 -11.71329927 1.84074109 -6.31494141 -0.11767578 C-3.69954664 -1.11451576 -2.58069196 -0.95581184 0 0 Z " fill="#05A8D5" transform="translate(672,655)"/>
<path d="M0 0 C1.32 0.33 2.64 0.66 4 1 C2.7934375 2.2684375 2.7934375 2.2684375 1.5625 3.5625 C-1.22146664 6.90641461 -1.84032589 9.60896192 -2 14 C-1.64025105 16.81237541 -1.64025105 16.81237541 -1 19 C-3.07776754 17.30802484 -3.92301562 16.40295429 -4.43359375 13.73046875 C-4.44269082 7.8082736 -3.84319177 4.56379023 0 0 Z " fill="#05C3E9" transform="translate(342,621)"/>
<path d="M0 0 C3.79549259 0.54581199 5.30979295 2.05409295 7.75 4.9375 C8.67039062 6.00291016 8.67039062 6.00291016 9.609375 7.08984375 C11 9 11 9 11 11 C7.69730521 10.43056986 6.12808023 9.59070637 4 7 C2.54676467 4.70835967 1.21315454 2.42630908 0 0 Z " fill="#04D3F3" transform="translate(531,388)"/>
<path d="M0 0 C0.66 0.33 1.32 0.66 2 1 C-4.07439825 7.70459519 -4.07439825 7.70459519 -7.9375 8.9375 C-8.9584375 8.9684375 -8.9584375 8.9684375 -10 9 C-9.0919838 7.86800647 -8.17316174 6.74467637 -7.25 5.625 C-6.73953125 4.99851562 -6.2290625 4.37203125 -5.703125 3.7265625 C-3.89125541 1.88975893 -2.41535913 0.89348651 0 0 Z " fill="#03D4F2" transform="translate(354,505)"/>
<path d="M0 0 C0.33 0.66 0.66 1.32 1 2 C0.195625 2.763125 -0.60875 3.52625 -1.4375 4.3125 C-4.16799024 6.79430898 -4.16799024 6.79430898 -5 10 C-7.5625 11.1875 -7.5625 11.1875 -10 12 C-9.01 10.02 -8.02 8.04 -7 6 C-6.34 6 -5.68 6 -5 6 C-4.731875 5.38125 -4.46375 4.7625 -4.1875 4.125 C-3 2 -3 2 0 0 Z " fill="#05C8EC" transform="translate(337,520)"/>
<path d="M0 0 C0 0.33 0 0.66 0 1 C-4.67201205 2.20568053 -9.21496292 2.09382426 -14 2 C-14 1.67 -14 1.34 -14 1 C-4.58997722 -2.81321185 -4.58997722 -2.81321185 0 0 Z " fill="#05BDE1" transform="translate(637,664)"/>
<path d="M0 0 C0.66 0.33 1.32 0.66 2 1 C0.68 2.65 -0.64 4.3 -2 6 C-2.99 5.67 -3.98 5.34 -5 5 C-3.35 3.35 -1.7 1.7 0 0 Z " fill="#03C7EB" transform="translate(469,514)"/>
<path d="M0 0 C2.31 0 4.62 0 7 0 C7 0.33 7 0.66 7 1 C4.69 1 2.38 1 0 1 C0 0.67 0 0.34 0 0 Z " fill="#0ACFF0" transform="translate(579,790)"/>
<path d="M0 0 C4 1 4 1 4 1 Z " fill="#0CCEF0" transform="translate(587,790)"/>
<path d="M0 0 C4 1 4 1 4 1 Z " fill="#08DCFA" transform="translate(579,671)"/>
<path d="M0 0 C3 1 3 1 3 1 Z " fill="#04DDFC" transform="translate(563,670)"/>
<path d="M0 0 C3 1 3 1 3 1 Z " fill="#09DBFB" transform="translate(618,577)"/>
<path d="M0 0 C3 1 3 1 3 1 Z " fill="#05DEFD" transform="translate(442,569)"/>
<path d="M0 0 C0.33 0.66 0.66 1.32 1 2 C0.34 1.67 -0.32 1.34 -1 1 C-0.67 0.67 -0.34 0.34 0 0 Z " fill="#08E0FC" transform="translate(660,568)"/>
<path d="M0 0 C3 1 3 1 3 1 Z " fill="#08DFFE" transform="translate(595,511)"/>
<path d="M0 0 C2 1 2 1 2 1 Z " fill="#0AD2F2" transform="translate(576,790)"/>
<path d="M0 0 C2 1 2 1 2 1 Z " fill="#08DAFA" transform="translate(559,763)"/>
<path d="M0 0 C2 1 2 1 2 1 Z " fill="#08D5F7" transform="translate(399,750)"/>
<path d="M0 0 C2 1 2 1 2 1 Z " fill="#0ADBFB" transform="translate(612,727)"/>
<path d="M0 0 C2 1 2 1 2 1 Z " fill="#04DCF8" transform="translate(544,727)"/>
<path d="M0 0 C2 1 2 1 2 1 Z " fill="#04DCFB" transform="translate(499,718)"/>
<path d="" fill="#09DFFC" transform="translate(0,0)"/>
<path d="M0 0 C2 1 2 1 2 1 Z " fill="#07DDFD" transform="translate(588,671)"/>
<path d="M0 0 C2 1 2 1 2 1 Z " fill="#05E0FD" transform="translate(544,668)"/>
<path d="M0 0 C2 1 2 1 2 1 Z " fill="#07DCFC" transform="translate(536,667)"/>
<path d="M0 0 C2 1 2 1 2 1 Z " fill="#06DDFB" transform="translate(517,663)"/>
<path d="M0 0 C2 1 2 1 2 1 Z " fill="#0ADFFC" transform="translate(625,640)"/>
<path d="" fill="#08E0FD" transform="translate(0,0)"/>
<path d="M0 0 C2 1 2 1 2 1 Z " fill="#05DEFC" transform="translate(597,606)"/>
<path d="M0 0 C2 1 2 1 2 1 Z " fill="#08DDFC" transform="translate(599,579)"/>
<path d="" fill="#11CFF4" transform="translate(0,0)"/>
<path d="" fill="#0ED5F5" transform="translate(0,0)"/>
<path d="" fill="#0ED6F8" transform="translate(0,0)"/>
<path d="M0 0 C2 1 2 1 2 1 Z " fill="#07DAF9" transform="translate(468,512)"/>
<path d="M0 0 C2 1 2 1 2 1 Z " fill="#06E1FD" transform="translate(581,510)"/>
<path d="M0 0 C2 1 2 1 2 1 Z " fill="#07DAFA" transform="translate(501,496)"/>
<path d="" fill="#08DBFB" transform="translate(0,0)"/>
<path d="M0 0 C2 1 2 1 2 1 Z " fill="#09D9F9" transform="translate(629,488)"/>
<path d="M0 0 C2 1 2 1 2 1 Z " fill="#08DDFC" transform="translate(531,488)"/>
<path d="M0 0 C2 1 2 1 2 1 Z " fill="#13CDF2" transform="translate(722,265)"/>
<path d="" fill="#3A5765" transform="translate(0,0)"/>
<path d="" fill="#395562" transform="translate(0,0)"/>
<path d="" fill="#3A4B57" transform="translate(0,0)"/>
<path d="" fill="#3E6373" transform="translate(0,0)"/>
<path d="" fill="#3D5968" transform="translate(0,0)"/>
<path d="" fill="#3C5E6E" transform="translate(0,0)"/>
<path d="" fill="#3D5461" transform="translate(0,0)"/>
<path d="" fill="#09D0F1" transform="translate(0,0)"/>
<path d="" fill="#0CCEF2" transform="translate(0,0)"/>
<path d="" fill="#0ECFF1" transform="translate(0,0)"/>
<path d="" fill="#0BD3F3" transform="translate(0,0)"/>
<path d="" fill="#0FD4F4" transform="translate(0,0)"/>
<path d="" fill="#0FD8F7" transform="translate(0,0)"/>
<path d="" fill="#09D6F4" transform="translate(0,0)"/>
<path d="" fill="#0AD2F6" transform="translate(0,0)"/>
<path d="" fill="#0CD1F4" transform="translate(0,0)"/>
<path d="" fill="#0DD3F4" transform="translate(0,0)"/>
<path d="" fill="#0ADDFD" transform="translate(0,0)"/>
<path d="" fill="#0AD6F6" transform="translate(0,0)"/>
<path d="" fill="#10D2F3" transform="translate(0,0)"/>
<path d="" fill="#06DDFD" transform="translate(0,0)"/>
<path d="" fill="#0EE0FD" transform="translate(0,0)"/>
<path d="" fill="#07DDFA" transform="translate(0,0)"/>
<path d="" fill="#10D4F2" transform="translate(0,0)"/>
<path d="" fill="#08D8F9" transform="translate(0,0)"/>
<path d="" fill="#07D5F8" transform="translate(0,0)"/>
<path d="" fill="#09D8F8" transform="translate(0,0)"/>
<path d="" fill="#09DEFD" transform="translate(0,0)"/>
<path d="" fill="#0CD4F5" transform="translate(0,0)"/>
<path d="" fill="#0ECDF3" transform="translate(0,0)"/>
<path d="" fill="#09DFFC" transform="translate(0,0)"/>
<path d="" fill="#11D2F5" transform="translate(0,0)"/>
<path d="" fill="#08DDFF" transform="translate(0,0)"/>
<path d="" fill="#07DDFD" transform="translate(0,0)"/>
<path d="" fill="#05D9F7" transform="translate(0,0)"/>
<path d="" fill="#05DCFC" transform="translate(0,0)"/>
<path d="" fill="#09D3F4" transform="translate(0,0)"/>
<path d="" fill="#0ADCFC" transform="translate(0,0)"/>
<path d="" fill="#09DBFA" transform="translate(0,0)"/>
<path d="" fill="#08DAFB" transform="translate(0,0)"/>
<path d="" fill="#0ADCFC" transform="translate(0,0)"/>
<path d="" fill="#04DDFD" transform="translate(0,0)"/>
<path d="" fill="#06DFFD" transform="translate(0,0)"/>
<path d="" fill="#09E0FA" transform="translate(0,0)"/>
<path d="" fill="#08D8F9" transform="translate(0,0)"/>
<path d="" fill="#08DAFD" transform="translate(0,0)"/>
<path d="" fill="#07DAFB" transform="translate(0,0)"/>
<path d="" fill="#09E1FF" transform="translate(0,0)"/>
<path d="" fill="#08DFFD" transform="translate(0,0)"/>
<path d="" fill="#03DEFC" transform="translate(0,0)"/>
<path d="" fill="#0ADDFE" transform="translate(0,0)"/>
<path d="" fill="#0DE0FE" transform="translate(0,0)"/>
<path d="" fill="#12CAEB" transform="translate(0,0)"/>
<path d="" fill="#09E0FD" transform="translate(0,0)"/>
<path d="" fill="#08E1FE" transform="translate(0,0)"/>
<path d="" fill="#09DDFC" transform="translate(0,0)"/>
<path d="" fill="#0BDFFF" transform="translate(0,0)"/>
<path d="" fill="#08DCFE" transform="translate(0,0)"/>
<path d="" fill="#0DD5F7" transform="translate(0,0)"/>
<path d="" fill="#09E3FF" transform="translate(0,0)"/>
<path d="" fill="#0ADDFB" transform="translate(0,0)"/>
<path d="" fill="#3E5765" transform="translate(0,0)"/>
<path d="" fill="#0BE0FB" transform="translate(0,0)"/>
<path d="" fill="#08DBFD" transform="translate(0,0)"/>
<path d="" fill="#0EDCFA" transform="translate(0,0)"/>
<path d="" fill="#07D9F9" transform="translate(0,0)"/>
<path d="" fill="#05DEFE" transform="translate(0,0)"/>
<path d="" fill="#05E1FD" transform="translate(0,0)"/>
<path d="" fill="#06DCFC" transform="translate(0,0)"/>
<path d="" fill="#05DDFD" transform="translate(0,0)"/>
<path d="" fill="#06DEFE" transform="translate(0,0)"/>
<path d="" fill="#07DBFA" transform="translate(0,0)"/>
<path d="" fill="#06DBFC" transform="translate(0,0)"/>
<path d="" fill="#05DBFC" transform="translate(0,0)"/>
<path d="" fill="#07E2FA" transform="translate(0,0)"/>
<path d="" fill="#07DEFC" transform="translate(0,0)"/>
<path d="" fill="#0BD7F6" transform="translate(0,0)"/>
<path d="" fill="#06D9F8" transform="translate(0,0)"/>
<path d="" fill="#07D9F8" transform="translate(0,0)"/>
<path d="" fill="#06DBFA" transform="translate(0,0)"/>
<path d="" fill="#06E1FF" transform="translate(0,0)"/>
<path d="" fill="#08D9FB" transform="translate(0,0)"/>
<path d="" fill="#07DEFC" transform="translate(0,0)"/>
<path d="" fill="#05DEFA" transform="translate(0,0)"/>
<path d="" fill="#05E1FC" transform="translate(0,0)"/>
<path d="" fill="#08DFFE" transform="translate(0,0)"/>
<path d="" fill="#08DFFF" transform="translate(0,0)"/>
<path d="" fill="#09DDFE" transform="translate(0,0)"/>
<path d="" fill="#07DFFE" transform="translate(0,0)"/>
<path d="" fill="#0ADCFB" transform="translate(0,0)"/>
<path d="" fill="#04DBF8" transform="translate(0,0)"/>
<path d="" fill="#0AE1FF" transform="translate(0,0)"/>
<path d="" fill="#09DFFD" transform="translate(0,0)"/>
<path d="" fill="#0BDDFD" transform="translate(0,0)"/>
<path d="" fill="#11D4F6" transform="translate(0,0)"/>
<path d="" fill="#08DDFD" transform="translate(0,0)"/>
<path d="" fill="#0EDFFA" transform="translate(0,0)"/>
<path d="" fill="#08DDF8" transform="translate(0,0)"/>
<path d="" fill="#08D9F9" transform="translate(0,0)"/>
<path d="" fill="#06DDFC" transform="translate(0,0)"/>
<path d="" fill="#05E0FB" transform="translate(0,0)"/>
<path d="" fill="#05DCFB" transform="translate(0,0)"/>
<path d="" fill="#05DCFC" transform="translate(0,0)"/>
<path d="" fill="#06D9FA" transform="translate(0,0)"/>
<path d="" fill="#08DCFC" transform="translate(0,0)"/>
<path d="" fill="#09DAFB" transform="translate(0,0)"/>
<path d="" fill="#07DDFD" transform="translate(0,0)"/>
<path d="" fill="#07DEFB" transform="translate(0,0)"/>
<path d="" fill="#0AE1FD" transform="translate(0,0)"/>
<path d="" fill="#04DAF8" transform="translate(0,0)"/>
<path d="" fill="#07DEFE" transform="translate(0,0)"/>
<path d="" fill="#09DBFA" transform="translate(0,0)"/>
<path d="" fill="#0BDAFB" transform="translate(0,0)"/>
<path d="" fill="#07DDFE" transform="translate(0,0)"/>
<path d="" fill="#07E0FC" transform="translate(0,0)"/>
<path d="" fill="#08DEFC" transform="translate(0,0)"/>
<path d="" fill="#07DCFC" transform="translate(0,0)"/>
<path d="" fill="#0CDBF9" transform="translate(0,0)"/>
<path d="" fill="#07E1FC" transform="translate(0,0)"/>
<path d="" fill="#08DDFD" transform="translate(0,0)"/>
<path d="" fill="#08DAFE" transform="translate(0,0)"/>
<path d="" fill="#16CEEE" transform="translate(0,0)"/>
<path d="" fill="#08E0FE" transform="translate(0,0)"/>
<path d="" fill="#03DFF8" transform="translate(0,0)"/>
<path d="" fill="#07D8FB" transform="translate(0,0)"/>
<path d="" fill="#10D4F4" transform="translate(0,0)"/>
<path d="" fill="#0AD5F6" transform="translate(0,0)"/>
<path d="" fill="#10D4F7" transform="translate(0,0)"/>
<path d="" fill="#09DDFB" transform="translate(0,0)"/>
<path d="" fill="#0DD5F7" transform="translate(0,0)"/>
<path d="" fill="#09DCFD" transform="translate(0,0)"/>
<path d="" fill="#0AD6F5" transform="translate(0,0)"/>
<path d="" fill="#0CD5F5" transform="translate(0,0)"/>
<path d="" fill="#08D8F8" transform="translate(0,0)"/>
<path d="" fill="#07DAFA" transform="translate(0,0)"/>
<path d="" fill="#07DBFC" transform="translate(0,0)"/>
<path d="" fill="#0CD9F8" transform="translate(0,0)"/>
<path d="" fill="#05DCFE" transform="translate(0,0)"/>
<path d="" fill="#0DD8FA" transform="translate(0,0)"/>
<path d="" fill="#05DCFC" transform="translate(0,0)"/>
<path d="" fill="#07DAFA" transform="translate(0,0)"/>
<path d="" fill="#0FD8FA" transform="translate(0,0)"/>
<path d="" fill="#07DEFB" transform="translate(0,0)"/>
<path d="" fill="#09DFFE" transform="translate(0,0)"/>
<path d="" fill="#04DEFB" transform="translate(0,0)"/>
<path d="" fill="#0DD5F8" transform="translate(0,0)"/>
<path d="" fill="#09DAFA" transform="translate(0,0)"/>
<path d="" fill="#08DEFD" transform="translate(0,0)"/>
<path d="" fill="#0AD6F9" transform="translate(0,0)"/>
<path d="" fill="#08DAFB" transform="translate(0,0)"/>
<path d="" fill="#0BDAFC" transform="translate(0,0)"/>
<path d="" fill="#08D8FD" transform="translate(0,0)"/>
<path d="" fill="#09D9FD" transform="translate(0,0)"/>
<path d="" fill="#0AE0FF" transform="translate(0,0)"/>
<path d="" fill="#0AD9FB" transform="translate(0,0)"/>
<path d="" fill="#0AD5FB" transform="translate(0,0)"/>
<path d="" fill="#07DBFA" transform="translate(0,0)"/>
<path d="" fill="#07DAFA" transform="translate(0,0)"/>
<path d="" fill="#09D6F9" transform="translate(0,0)"/>
<path d="" fill="#06DDFE" transform="translate(0,0)"/>
<path d="" fill="#0BD7F7" transform="translate(0,0)"/>
<path d="" fill="#08D9F7" transform="translate(0,0)"/>
<path d="" fill="#0BDBFC" transform="translate(0,0)"/>
<path d="" fill="#06DFFC" transform="translate(0,0)"/>
<path d="" fill="#06DCFB" transform="translate(0,0)"/>
<path d="" fill="#08DDFF" transform="translate(0,0)"/>
<path d="" fill="#07DDFD" transform="translate(0,0)"/>
<path d="" fill="#06DCFE" transform="translate(0,0)"/>
<path d="" fill="#0BDBF9" transform="translate(0,0)"/>
<path d="" fill="#09DFFE" transform="translate(0,0)"/>
<path d="" fill="#08DCF7" transform="translate(0,0)"/>
<path d="" fill="#0CDFFF" transform="translate(0,0)"/>
<path d="" fill="#08DBFB" transform="translate(0,0)"/>
<path d="" fill="#06DEFE" transform="translate(0,0)"/>
<path d="" fill="#0CD8F8" transform="translate(0,0)"/>
<path d="" fill="#0AD5F6" transform="translate(0,0)"/>
<path d="" fill="#0DD5F9" transform="translate(0,0)"/>
<path d="" fill="#0CD1F5" transform="translate(0,0)"/>
<path d="" fill="#3D5E6E" transform="translate(0,0)"/>
<path d="" fill="#10D1F6" transform="translate(0,0)"/>
<path d="" fill="#06E0FD" transform="translate(0,0)"/>
<path d="" fill="#09DFFD" transform="translate(0,0)"/>
<path d="" fill="#07E0FE" transform="translate(0,0)"/>
<path d="" fill="#05DAF9" transform="translate(0,0)"/>
<path d="" fill="#05DBFC" transform="translate(0,0)"/>
<path d="" fill="#13CBF1" transform="translate(0,0)"/>
<path d="" fill="#16CDF0" transform="translate(0,0)"/>
<path d="" fill="#10D2F5" transform="translate(0,0)"/>
<path d="" fill="#0ED2F7" transform="translate(0,0)"/>
<path d="" fill="#0ED2F6" transform="translate(0,0)"/>
<path d="" fill="#0ED3F7" transform="translate(0,0)"/>
<path d="" fill="#0ED7F8" transform="translate(0,0)"/>
<path d="" fill="#415C6D" transform="translate(0,0)"/>
<path d="" fill="#39515E" transform="translate(0,0)"/>
<path d="" fill="#406176" transform="translate(0,0)"/>
<path d="" fill="#3F5F6D" transform="translate(0,0)"/>
<path d="" fill="#374C5A" transform="translate(0,0)"/>
<path d="" fill="#415B6A" transform="translate(0,0)"/>
</svg>
