<?xml version="1.0" encoding="UTF-8"?>
<svg version="1.1" xmlns="http://www.w3.org/2000/svg" width="512" height="518">
<path d="M0 0 C3.3102458 2.98607205 6.54219158 6.04901484 9.75 9.14453125 C10.33845703 9.71107422 10.92691406 10.27761719 11.53320312 10.86132812 C19.14055766 18.22459642 26.31503515 25.71369495 32.75 34.14453125 C33.15750488 34.67030762 33.56500977 35.19608398 33.98486328 35.73779297 C66.10302293 77.33581499 87.68157412 130.10875418 87.953125 183.15625 C87.96018463 184.07889648 87.96724426 185.00154297 87.97451782 185.95214844 C88.20118309 224.26381183 88.20118309 224.26381183 84.75 241.14453125 C84.45198486 242.65756836 84.45198486 242.65756836 84.14794922 244.20117188 C76.46236918 282.40454948 61.55043033 319.07400361 37.75 350.14453125 C37.09773438 350.99660156 36.44546875 351.84867187 35.7734375 352.7265625 C33.80463321 355.23415479 31.78955401 357.69413183 29.75 360.14453125 C29.32525391 360.65951172 28.90050781 361.17449219 28.46289062 361.70507812 C17.68346795 374.73464827 6.15131815 386.78107667 -7.25 397.14453125 C-8.52648412 398.1609029 -9.80249186 399.17787301 -11.078125 400.1953125 C-20.99937426 408.03124813 -31.2649715 414.89245131 -42.25 421.14453125 C-42.99975098 421.57362793 -43.74950195 422.00272461 -44.52197266 422.44482422 C-69.90321339 436.80776761 -98.43052517 446.64245636 -127.25 451.14453125 C-128.32733398 451.32113281 -129.40466797 451.49773438 -130.51464844 451.6796875 C-143.18517599 453.52891748 -155.83988616 453.54206369 -168.625 453.51953125 C-170.36044571 453.51871552 -170.36044571 453.51871552 -172.13095093 453.5178833 C-188.83931548 453.48171081 -204.92578278 453.02817437 -221.25 449.14453125 C-222.21953613 448.92490723 -223.18907227 448.7052832 -224.18798828 448.47900391 C-264.57864516 439.2005129 -301.70460599 421.10764325 -333.25 394.14453125 C-334.01054687 393.49613281 -334.77109375 392.84773438 -335.5546875 392.1796875 C-348.11225809 381.16538737 -360.05251537 369.36035628 -369.96289062 355.88916016 C-371.30629664 354.06822324 -372.6747516 352.26812424 -374.046875 350.46875 C-380.42065344 342.04068585 -386.08491012 333.35983606 -391.25 324.14453125 C-391.67780762 323.38994629 -392.10561523 322.63536133 -392.54638672 321.85791016 C-411.77378366 287.64740664 -424.25136664 247.59217153 -424.453125 208.1328125 C-424.46013931 207.21003006 -424.46715363 206.28724762 -424.47438049 205.33650208 C-424.49178136 202.37662821 -424.49823233 199.41695438 -424.5 196.45703125 C-424.50067474 195.44598328 -424.50134949 194.4349353 -424.50204468 193.39324951 C-424.48650719 178.75983988 -424.07838248 164.54203729 -421.25 150.14453125 C-421.08902832 149.24895508 -420.92805664 148.35337891 -420.76220703 147.43066406 C-416.5250207 124.01013558 -408.7515921 101.47777877 -398.25 80.14453125 C-397.90533691 79.43216309 -397.56067383 78.71979492 -397.20556641 77.98583984 C-388.01024571 59.13739442 -375.90132525 42.01201142 -362.25 26.14453125 C-361.49589844 25.26023437 -360.74179687 24.3759375 -359.96484375 23.46484375 C-350.02250496 12.12871915 -339.26108303 1.27692496 -327.25 -7.85546875 C-326.72567383 -8.26152344 -326.20134766 -8.66757812 -325.66113281 -9.0859375 C-243.22828556 -72.73843173 -128.29704141 -80.80447812 0 0 Z " fill="#4BCC00" transform="translate(424.25,64.85546875)"/>
<path d="M0 0 C3.3102458 2.98607205 6.54219158 6.04901484 9.75 9.14453125 C10.33845703 9.71107422 10.92691406 10.27761719 11.53320312 10.86132812 C19.14055766 18.22459642 26.31503515 25.71369495 32.75 34.14453125 C33.15750488 34.67030762 33.56500977 35.19608398 33.98486328 35.73779297 C66.10302293 77.33581499 87.68157412 130.10875418 87.953125 183.15625 C87.96018463 184.07889648 87.96724426 185.00154297 87.97451782 185.95214844 C88.20118309 224.26381183 88.20118309 224.26381183 84.75 241.14453125 C84.45198486 242.65756836 84.45198486 242.65756836 84.14794922 244.20117188 C76.46236918 282.40454948 61.55043033 319.07400361 37.75 350.14453125 C37.09773438 350.99660156 36.44546875 351.84867187 35.7734375 352.7265625 C33.80463321 355.23415479 31.78955401 357.69413183 29.75 360.14453125 C29.32525391 360.65951172 28.90050781 361.17449219 28.46289062 361.70507812 C17.68346795 374.73464827 6.15131815 386.78107667 -7.25 397.14453125 C-8.52648412 398.1609029 -9.80249186 399.17787301 -11.078125 400.1953125 C-20.99937426 408.03124813 -31.2649715 414.89245131 -42.25 421.14453125 C-42.99975098 421.57362793 -43.74950195 422.00272461 -44.52197266 422.44482422 C-68.66680191 436.108097 -95.78921784 445.95965153 -123.25 450.14453125 C-129.17698677 415.5863745 -117.18114472 382.2366935 -101.25 352.14453125 C-100.72817139 351.15670654 -100.72817139 351.15670654 -100.19580078 350.14892578 C-87.26893789 325.91031834 -70.09731609 303.65100483 -51.45703125 283.53515625 C-49.44614789 281.35699587 -47.49612946 279.14114287 -45.5625 276.89453125 C-42.83276962 273.74926814 -39.94957555 270.82032666 -36.9765625 267.90625 C-35.26130634 266.15606781 -33.69759425 264.3356229 -32.125 262.45703125 C-29.10692983 258.95734006 -25.81468512 255.84338483 -22.39453125 252.74609375 C-15.72838884 246.64610274 -9.25515765 240.36893862 -2.85571289 233.99047852 C-1.05993664 232.20448185 0.74628389 230.42948798 2.55273438 228.65429688 C19.34416404 212.01658057 36.12417984 191.61603562 36.25 166.83203125 C36.00533867 155.10304074 33.00190783 147.42385417 25.75 138.14453125 C25.13382812 137.32082031 24.51765625 136.49710938 23.8828125 135.6484375 C8.67354798 117.79287238 -17.43951468 109.42236242 -39.2590332 103.41992188 C-45.65029986 101.64899734 -51.9277112 99.64743636 -58.1875 97.45703125 C-59.42089111 97.02874023 -59.42089111 97.02874023 -60.67919922 96.59179688 C-68.147218 93.9394001 -73.39229992 91.68562534 -78.0625 85.01953125 C-89.70690527 69.28000543 -104.03645937 59.30150189 -123.4465332 55.55029297 C-128.45779395 54.82498466 -133.44538491 54.85122034 -138.5 54.89453125 C-139.59884521 54.89839844 -140.69769043 54.90226562 -141.82983398 54.90625 C-148.78982426 54.98024325 -155.43780728 55.41134367 -162.28515625 56.70703125 C-168.66684987 57.64873044 -173.95489616 57.10624942 -180.1875 55.64453125 C-189.12432706 53.82393014 -198.10834428 53.83403087 -207.1875 53.83203125 C-207.90469208 53.82880859 -208.62188416 53.82558594 -209.36080933 53.82226562 C-217.51572857 53.79990583 -225.33119092 54.04221544 -233.25 56.14453125 C-234.01401123 56.34167725 -234.77802246 56.53882324 -235.56518555 56.74194336 C-270.64188077 66.20020888 -309.71648052 82.85636552 -329.1171875 115.33984375 C-331.41858206 119.36675687 -333.5411336 123.47055942 -335.5625 127.64453125 C-335.87598389 128.28342285 -336.18946777 128.92231445 -336.51245117 129.58056641 C-341.45364 140.23958642 -343.81520167 151.68224856 -345.3125 163.26953125 C-345.4767749 164.49671875 -345.6410498 165.72390625 -345.81030273 166.98828125 C-347.39114647 179.30917909 -348.38245849 191.6717786 -349.35922241 204.05252075 C-349.41856964 204.80475922 -349.47791687 205.55699768 -349.5390625 206.33203125 C-349.5980069 207.07919403 -349.65695129 207.82635681 -349.71768188 208.59616089 C-353.4060472 254.89030437 -360.00790393 299.21637789 -378.25 342.14453125 C-378.91 342.14453125 -379.57 342.14453125 -380.25 342.14453125 C-382.00100172 339.61530654 -383.61076366 337.09338902 -385.1875 334.45703125 C-385.67404053 333.64685547 -386.16058105 332.83667969 -386.66186523 332.00195312 C-408.83524813 294.6528031 -424.22871976 252.02138801 -424.453125 208.1328125 C-424.46013931 207.21003006 -424.46715363 206.28724762 -424.47438049 205.33650208 C-424.49178136 202.37662821 -424.49823233 199.41695438 -424.5 196.45703125 C-424.50067474 195.44598328 -424.50134949 194.4349353 -424.50204468 193.39324951 C-424.48650719 178.75983988 -424.07838248 164.54203729 -421.25 150.14453125 C-421.08902832 149.24895508 -420.92805664 148.35337891 -420.76220703 147.43066406 C-416.5250207 124.01013558 -408.7515921 101.47777877 -398.25 80.14453125 C-397.90533691 79.43216309 -397.56067383 78.71979492 -397.20556641 77.98583984 C-388.01024571 59.13739442 -375.90132525 42.01201142 -362.25 26.14453125 C-361.49589844 25.26023437 -360.74179687 24.3759375 -359.96484375 23.46484375 C-350.02250496 12.12871915 -339.26108303 1.27692496 -327.25 -7.85546875 C-326.72567383 -8.26152344 -326.20134766 -8.66757812 -325.66113281 -9.0859375 C-243.22828556 -72.73843173 -128.29704141 -80.80447812 0 0 Z " fill="#FEE765" transform="translate(424.25,64.85546875)"/>
<path d="M0 0 C-3.11679393 1.03893131 -4.94762147 0.98157688 -8.1875 0.8125 C-15.01562787 0.79453124 -19.06985239 2.36017895 -24.12890625 6.91796875 C-29.0673941 12.05654266 -31.85303194 17.23422565 -34 24 C-33.27079346 24.26949463 -32.54158691 24.53898926 -31.7902832 24.81665039 C-27.2093857 26.75939343 -23.28510349 29.64159605 -19.1875 32.4375 C-18.30384766 33.02337891 -17.42019531 33.60925781 -16.50976562 34.21289062 C-15.25776367 35.06463867 -15.25776367 35.06463867 -13.98046875 35.93359375 C-12.83421021 36.7078772 -12.83421021 36.7078772 -11.66479492 37.49780273 C-11.1154126 37.99352783 -10.56603027 38.48925293 -10 39 C-10 39.99 -10 40.98 -10 42 C-11.98779297 43.7175293 -11.98779297 43.7175293 -14.7421875 45.57421875 C-15.72574219 46.24130859 -16.70929688 46.90839844 -17.72265625 47.59570312 C-18.76292969 48.28599609 -19.80320313 48.97628906 -20.875 49.6875 C-21.90753906 50.38939453 -22.94007813 51.09128906 -24.00390625 51.81445312 C-31.71419461 57 -31.71419461 57 -34 57 C-30.8169935 66.64787064 -26.01214997 73.99325002 -17 79 C-10.8562965 80.90492655 -4.21784553 80.27545549 2 79 C-3.51556127 85.76909792 -13.59142295 89.48808435 -22 91 C-36.45981663 92.30728221 -49.04559723 88.86913089 -60.56640625 80.03125 C-70.59058215 71.54580751 -77.25573657 60.11488632 -79 47 C-80.17100147 31.31625899 -76.11390641 18.93646854 -66.19140625 6.78515625 C-48.1981383 -12.70443335 -21.63457172 -13.64040181 0 0 Z " fill="#FCFDFB" transform="translate(249,156)"/>
<path d="M0 0 C10.22506737 5.32263781 15.90966941 13.24972978 19.50390625 24.046875 C23.58837134 38.71295428 21.55969235 52.68009049 14.53125 66.125 C10.24344738 72.31621858 4.19054048 78.68888303 -3.46875 80.125 C-11.53653317 80.9004616 -17.26973306 79.11491948 -23.59375 73.9375 C-29.4326865 68.56341087 -32.15873657 63.98508061 -33.46875 56.125 C-25.54875 50.845 -17.62875 45.565 -9.46875 40.125 C-12.48113881 37.11261119 -14.75149821 35.12323833 -18.234375 32.890625 C-19.12382812 32.31699219 -20.01328125 31.74335938 -20.9296875 31.15234375 C-21.85007813 30.56582031 -22.77046875 29.97929687 -23.71875 29.375 C-24.65460938 28.77300781 -25.59046875 28.17101562 -26.5546875 27.55078125 C-28.85653998 26.07101894 -31.16125804 24.59594667 -33.46875 23.125 C-32.34422285 14.11585722 -27.19715996 8.33178408 -20.49609375 2.53515625 C-14.42867701 -1.68514711 -6.96286476 -2.4678508 0 0 Z " fill="#0E1317" transform="translate(248.46875,156.875)"/>
<path d="M0 0 C3.01048053 2.6308962 5.80146862 5.42533189 8.56640625 8.3125 C9.64921875 9.43591797 9.64921875 9.43591797 10.75390625 10.58203125 C14.12137063 14.25116432 16.61733485 17.72644965 18.56640625 22.3125 C12.51222873 21.67837598 7.05453902 20.01429323 1.2890625 18.1015625 C0.29695267 17.77732803 -0.69515717 17.45309357 -1.71733093 17.11903381 C-4.93728953 16.06461677 -8.15427391 15.00145068 -11.37109375 13.9375 C-13.58570385 13.2091757 -15.80038523 12.48106807 -18.01513672 11.75317383 C-30.71912326 7.5698772 -43.40651186 3.33788957 -56.05859375 -1 C-56.70786835 -1.22202087 -57.35714294 -1.44404175 -58.02609253 -1.67279053 C-64.26046385 -3.80931051 -70.42820129 -5.96658172 -76.43359375 -8.6875 C-75.43359375 -10.6875 -75.43359375 -10.6875 -72.49609375 -11.75 C-49.13834357 -17.80243735 -19.15867682 -15.70731811 0 0 Z " fill="#36AF00" transform="translate(331.43359375,132.6875)"/>
</svg>
