<?xml version="1.0" encoding="UTF-8"?>
<svg version="1.1" xmlns="http://www.w3.org/2000/svg" width="128" height="128">
<path d="M0 0 C1.8946844 -0.00015522 3.78936912 -0.00164801 5.68405151 -0.00440979 C9.6396095 -0.00578865 13.59480262 0.00668035 17.55029297 0.02954102 C22.60512666 0.05796299 27.65935667 0.0551708 32.71423531 0.0424509 C36.6211762 0.03547781 40.52797895 0.04330098 44.43490219 0.05570793 C46.29831283 0.06020384 48.16173839 0.06057561 50.0251503 0.05664253 C52.63312167 0.05371323 55.24027669 0.07031728 57.84814453 0.09204102 C58.60783539 0.08753937 59.36752625 0.08303772 60.15023804 0.07839966 C67.42044163 0.1783891 73.67194509 2.18971398 79.2421875 7.05859375 C80.31726563 7.95771484 80.31726563 7.95771484 81.4140625 8.875 C88.97542879 18.41198643 88.0654595 29.46948102 87.98828125 41.00390625 C87.98843647 42.89859065 87.98992926 44.79327537 87.99269104 46.68795776 C87.9940699 50.64351575 87.9816009 54.59870887 87.95874023 58.55419922 C87.93031826 63.60903291 87.93311045 68.66326292 87.94583035 73.71814156 C87.95280344 77.62508245 87.94498027 81.5318852 87.93257332 85.43880844 C87.92807741 87.30221908 87.92770564 89.16564464 87.93163872 91.02905655 C87.93456802 93.63702792 87.91796397 96.24418294 87.89624023 98.85205078 C87.90299271 99.99158707 87.90299271 99.99158707 87.90988159 101.15414429 C87.80989215 108.42434788 85.79856727 114.67585134 80.9296875 120.24609375 C80.03056641 121.32117188 80.03056641 121.32117188 79.11328125 122.41796875 C69.57629482 129.97933504 58.51880023 129.06936575 46.984375 128.9921875 C45.0896906 128.99234272 43.19500588 128.99383551 41.30032349 128.99659729 C37.3447655 128.99797615 33.38957238 128.98550715 29.43408203 128.96264648 C24.37924834 128.93422451 19.32501833 128.9370167 14.27013969 128.9497366 C10.3631988 128.95670969 6.45639605 128.94888652 2.54947281 128.93647957 C0.68606217 128.93198366 -1.17736339 128.93161189 -3.0407753 128.93554497 C-5.64874667 128.93847427 -8.25590169 128.92187022 -10.86376953 128.90014648 C-12.00330582 128.90689896 -12.00330582 128.90689896 -13.16586304 128.91378784 C-20.43606663 128.8137984 -26.68757009 126.80247352 -32.2578125 121.93359375 C-33.33289062 121.03447266 -33.33289062 121.03447266 -34.4296875 120.1171875 C-41.99105379 110.58020107 -41.0810845 99.52270648 -41.00390625 87.98828125 C-41.00406147 86.09359685 -41.00555426 84.19891213 -41.00831604 82.30422974 C-41.0096949 78.34867175 -40.9972259 74.39347863 -40.97436523 70.43798828 C-40.94594326 65.38315459 -40.94873545 60.32892458 -40.96145535 55.27404594 C-40.96842844 51.36710505 -40.96060527 47.4603023 -40.94819832 43.55337906 C-40.94370241 41.68996842 -40.94333064 39.82654286 -40.94726372 37.96313095 C-40.95019302 35.35515958 -40.93358897 32.74800456 -40.91186523 30.14013672 C-40.91636688 29.38044586 -40.92086853 28.620755 -40.92550659 27.83804321 C-40.82551715 20.56783962 -38.81419227 14.31633616 -33.9453125 8.74609375 C-33.34589844 8.029375 -32.74648438 7.31265625 -32.12890625 6.57421875 C-22.59191982 -0.98714754 -11.53442523 -0.07717825 0 0 Z " fill="#AB9FF2" transform="translate(40.5078125,-0.49609375)"/>
<path d="M0 0 C5.73012291 5.09028288 9.10117838 10.90455398 9.91015625 18.58984375 C10.05794753 31.34423146 6.99021339 45.47966356 -2.0390625 55.12109375 C-5.24059305 57.84596963 -8.18979744 60.29543885 -12.42578125 60.6484375 C-15.42578125 60.3984375 -15.42578125 60.3984375 -18.42578125 58.3984375 C-18.75578125 57.4084375 -19.08578125 56.4184375 -19.42578125 55.3984375 C-19.86148438 55.86894531 -20.2971875 56.33945313 -20.74609375 56.82421875 C-25.44855611 61.7404294 -29.50015957 65.39016718 -36.55078125 65.8984375 C-40.42578125 65.3984375 -40.42578125 65.3984375 -42.86328125 63.1484375 C-44.22225039 60.75665182 -44.84623866 59.03169896 -45.42578125 56.3984375 C-45.82667969 56.91792969 -46.22757813 57.43742187 -46.640625 57.97265625 C-51.61612652 64.0763894 -56.49622385 68.6968758 -64.52734375 69.83984375 C-72.53346874 70.1417779 -72.53346874 70.1417779 -75.71875 67.48828125 C-79.30566278 63.0969807 -78.83485263 58.870732 -78.42578125 53.3984375 C-75.25116294 35.3118506 -61.44051455 18.5953096 -46.78125 8.23632812 C-34.50618212 0.03884027 -14.36039403 -9.10029464 0 0 Z " fill="#FDFBF7" transform="translate(98.42578125,30.6015625)"/>
<path d="M0 0 C2.5 0.25 2.5 0.25 4.5 2.25 C5.05186722 8.32053942 5.05186722 8.32053942 3.3125 11.25 C1.5 12.25 1.5 12.25 -1.125 12 C-3.5 11.25 -3.5 11.25 -4.5 10.25 C-4.77314815 4.51388889 -4.77314815 4.51388889 -4.5 2.25 C-2.5 0.25 -2.5 0.25 0 0 Z " fill="#AEA2F2" transform="translate(91.5,46.75)"/>
<path d="M0 0 C2.5 0.25 2.5 0.25 4.5 2.25 C4.80078125 4.125 4.80078125 4.125 4.8125 6.25 C4.82925781 6.95125 4.84601563 7.6525 4.86328125 8.375 C4.68345703 9.303125 4.68345703 9.303125 4.5 10.25 C1.5 12.25 1.5 12.25 -1.125 12 C-1.90875 11.7525 -2.6925 11.505 -3.5 11.25 C-5.00662097 8.23675805 -4.67770373 5.56713623 -4.5 2.25 C-2.5 0.25 -2.5 0.25 0 0 Z " fill="#AEA2F2" transform="translate(76.5,46.75)"/>
</svg>
