<?xml version="1.0" encoding="UTF-8"?>
<svg version="1.1" xmlns="http://www.w3.org/2000/svg" width="2306" height="2306">
<path d="M0 0 C1.48330811 0.86395386 1.48330811 0.86395386 2.99658203 1.74536133 C4.11718018 2.39206787 5.23777832 3.03877441 6.39233398 3.70507812 C7.59645354 4.41234713 8.80047121 5.1197896 10.00439453 5.82739258 C11.25937367 6.55582911 12.51483316 7.28343866 13.77075195 8.01025391 C16.95907985 9.85839501 20.14103302 11.71718671 23.32061768 13.58032227 C26.04529914 15.17642384 28.77302583 16.7672992 31.50048828 18.35864258 C34.46745163 20.09029661 37.43393407 21.82273134 40.3984375 23.55859375 C47.10748972 27.4817781 53.85536339 31.33014886 60.62939453 35.13989258 C68.3992345 39.50968339 76.12488746 43.94700169 83.81689453 48.45239258 C92.47612954 53.5231795 101.16369147 58.54190099 109.87939453 63.51489258 C110.46286652 63.84783325 111.0463385 64.18077393 111.64749146 64.52380371 C114.61662089 66.21770424 117.5862387 67.91074632 120.55615234 69.60327148 C126.45741129 72.96641302 132.35637465 76.33357432 138.25439453 79.70239258 C139.12393768 80.19903915 139.12393768 80.19903915 140.01104736 80.70571899 C153.81274644 88.59037974 167.57614863 96.54110562 181.33837891 104.49438477 C194.17416927 111.91105269 207.02367221 119.3027106 219.89935303 126.64987183 C229.39494686 132.06878639 238.87017887 137.52228133 248.3359375 142.99316406 C256.88364013 147.93000943 265.4544974 152.825571 274.02963257 157.71450806 C283.18884931 162.93843379 292.30501519 168.23279013 301.40332031 173.56201172 C308.11121846 177.48323435 314.85708928 181.33111951 321.62939453 185.13989258 C329.3992345 189.50968339 337.12488746 193.94700169 344.81689453 198.45239258 C353.47612954 203.5231795 362.16369147 208.54190099 370.87939453 213.51489258 C371.46286652 213.84783325 372.0463385 214.18077393 372.64749146 214.52380371 C375.61662089 216.21770424 378.5862387 217.91074632 381.55615234 219.60327148 C387.45741129 222.96641302 393.35637465 226.33357432 399.25439453 229.70239258 C399.83408997 230.0334903 400.4137854 230.36458801 401.01104736 230.70571899 C414.81274644 238.59037974 428.57614863 246.54110562 442.33837891 254.49438477 C455.17416927 261.91105269 468.02367221 269.3027106 480.89935303 276.64987183 C490.39494686 282.06878639 499.87017887 287.52228133 509.3359375 292.99316406 C516.70190651 297.24748263 524.08367424 301.47347311 531.47314453 305.68676758 C540.71901183 310.95853402 549.94420845 316.26284328 559.12939453 321.63989258 C571.22090637 328.71694186 583.38394569 335.66643258 595.55615234 342.60327148 C601.45741129 345.96641302 607.35637465 349.33357432 613.25439453 352.70239258 C613.83408997 353.0334903 614.4137854 353.36458801 615.01104736 353.70571899 C628.81274644 361.59037974 642.57614863 369.54110562 656.33837891 377.49438477 C669.17416927 384.91105269 682.02367221 392.3027106 694.89935303 399.64987183 C704.39494686 405.06878639 713.87017887 410.52228133 723.3359375 415.99316406 C731.87660855 420.92594825 740.44034476 425.81760889 749.00848389 430.7024231 C758.65601907 436.20470979 768.26233761 441.7733488 777.84472656 447.38818359 C778.77655762 447.934021 779.70838867 448.4798584 780.66845703 449.04223633 C781.48523926 449.52168701 782.30202148 450.0011377 783.14355469 450.49511719 C784.45067027 451.24862899 785.77992613 451.96515838 787.12939453 452.63989258 C785.85764174 456.45515096 784.67872776 456.75428985 781.22314453 458.68676758 C780.18222656 459.27651367 779.14130859 459.86625977 778.06884766 460.47387695 C776.93382812 461.10616211 775.79880859 461.73844727 774.62939453 462.38989258 C772.23100802 463.7447799 769.83652519 465.10650585 767.44189453 466.46801758 C766.82954956 466.81509766 766.21720459 467.16217773 765.58630371 467.51977539 C759.53769404 470.95584191 753.57968539 474.53659744 747.62939453 478.13989258 C738.12497094 483.88027696 728.54338781 489.47017318 718.90600586 494.98413086 C713.26705583 498.21992282 707.66398067 501.50335664 702.10986328 504.88208008 C701.53664337 505.23002625 700.96342346 505.57797241 700.37283325 505.9364624 C697.62073248 507.60833092 694.87429721 509.28849325 692.13525391 510.98168945 C691.1575 511.57788086 690.17974609 512.17407227 689.17236328 512.78833008 C688.31666748 513.31604004 687.46097168 513.84375 686.5793457 514.38745117 C683.95157601 515.73079532 682.07985336 516.45995864 679.12939453 516.63989258 C676.5559082 515.59863281 676.5559082 515.59863281 673.79736328 513.94848633 C672.24758789 513.03679687 672.24758789 513.03679687 670.66650391 512.10668945 C669.56113281 511.43702148 668.45576172 510.76735352 667.31689453 510.07739258 C666.15043394 509.38519096 664.98310172 508.69445624 663.81494141 508.00512695 C661.41338482 506.58554894 659.01645589 505.15861243 656.62304688 503.7253418 C651.48482652 500.65180414 646.30511193 497.64968476 641.12939453 494.63989258 C639.14625399 493.48115415 637.1631816 492.32229906 635.18017578 491.16333008 C628.90758588 487.50406419 622.61223249 483.88482997 616.31689453 480.26489258 C607.42038133 475.14710594 598.57292614 469.95331676 589.75439453 464.70239258 C579.36901229 458.52079648 568.91178416 452.48136039 558.40820312 446.50390625 C547.91557123 440.53125462 537.48376773 434.45793407 527.06494141 428.35766602 C522.08960904 425.44628557 517.10924925 422.54352846 512.12939453 419.63989258 C506.1515915 416.15373109 500.17433457 412.66665032 494.19970703 409.17504883 C483.92406955 403.17212233 473.633059 397.19792707 463.31689453 391.26489258 C454.42042564 386.14703144 445.57286643 380.95341793 436.75439453 375.70239258 C427.01889573 369.90626342 417.22049561 364.23661798 407.36968994 358.64016724 C397.60164914 353.08788746 387.92558297 347.39268476 378.27392578 341.63989258 C370.27512915 336.88334917 362.22056721 332.23648665 354.12939453 327.63989258 C343.77301689 321.75643588 333.5056929 315.73845459 323.27392578 309.63989258 C315.27512915 304.88334917 307.22056721 300.23648665 299.12939453 295.63989258 C289.90552639 290.39981437 280.74248394 285.07153527 271.62939453 279.63989258 C262.45181643 274.17094723 253.22689671 268.79839911 243.94189453 263.51489258 C232.27048452 256.87304207 220.6535982 250.14287488 209.06494141 243.35766602 C204.08960904 240.44628557 199.10924925 237.54352846 194.12939453 234.63989258 C188.1515915 231.15373109 182.17433457 227.66665032 176.19970703 224.17504883 C165.92406955 218.17212233 155.633059 212.19792707 145.31689453 206.26489258 C136.42042564 201.14703144 127.57286643 195.95341793 118.75439453 190.70239258 C109.01889573 184.90626342 99.22049561 179.23661798 89.36968994 173.64016724 C79.60164914 168.08788746 69.92558297 162.39268476 60.27392578 156.63989258 C51.13304159 151.20419838 41.9161957 145.91388051 32.66040039 140.67724609 C26.56486551 137.2174097 20.52334318 133.69221444 14.53955078 130.04223633 C13.2954583 129.28759966 12.05131831 128.5330413 10.80712891 127.77856445 C8.44274326 126.34386903 6.09104356 124.89085432 3.74462891 123.42700195 C2.68695312 122.7844043 1.62927734 122.14180664 0.53955078 121.47973633 C-0.38720459 120.90602295 -1.31395996 120.33230957 -2.26879883 119.74121094 C-5.37642002 118.42578641 -6.70478552 118.59217853 -9.87060547 119.63989258 C-11.72337221 120.41897618 -11.72337221 120.41897618 -13.45263672 121.43286133 C-14.46028076 121.99602051 -14.46028076 121.99602051 -15.48828125 122.57055664 C-16.21257324 122.9853125 -16.93686523 123.40006836 -17.68310547 123.82739258 C-18.46153809 124.26664062 -19.2399707 124.70588867 -20.04199219 125.15844727 C-29.67726421 130.61962824 -39.22891562 136.22783353 -48.78271484 141.82983398 C-53.76695546 144.75149432 -58.7558065 147.6652377 -63.74560547 150.57739258 C-64.72996582 151.15199219 -65.71432617 151.7265918 -66.72851562 152.31860352 C-75.18897297 157.25238312 -83.67250389 162.14567801 -92.15917969 167.03417969 C-99.40982533 171.21316851 -106.64533132 175.41720597 -113.87060547 179.63989258 C-123.28050877 185.13934794 -132.7153111 190.59438454 -142.15966797 196.03442383 C-149.41012036 200.21338386 -156.64548816 204.41729763 -163.87060547 208.63989258 C-173.28050877 214.13934794 -182.7153111 219.59438454 -192.15966797 225.03442383 C-199.41012036 229.21338386 -206.64548816 233.41729763 -213.87060547 237.63989258 C-222.18812339 242.50092218 -230.522662 247.33130361 -238.87060547 252.13989258 C-251.23083065 259.26075666 -263.55527874 266.44172636 -275.87060547 273.63989258 C-289.27819265 281.47647241 -302.70219826 289.28267866 -316.15917969 297.03417969 C-323.40982533 301.21316851 -330.64533132 305.41720597 -337.87060547 309.63989258 C-347.28050877 315.13934794 -356.7153111 320.59438454 -366.15966797 326.03442383 C-373.41012036 330.21338386 -380.64548816 334.41729763 -387.87060547 338.63989258 C-397.28050877 344.13934794 -406.7153111 349.59438454 -416.15966797 355.03442383 C-423.41012036 359.21338386 -430.64548816 363.41729763 -437.87060547 367.63989258 C-446.18812339 372.50092218 -454.522662 377.33130361 -462.87060547 382.13989258 C-475.23083065 389.26075666 -487.55527874 396.44172636 -499.87060547 403.63989258 C-513.27819265 411.47647241 -526.70219826 419.28267866 -540.15917969 427.03417969 C-547.40982533 431.21316851 -554.64533132 435.41720597 -561.87060547 439.63989258 C-571.28050877 445.13934794 -580.7153111 450.59438454 -590.15966797 456.03442383 C-597.41012036 460.21338386 -604.64548816 464.41729763 -611.87060547 468.63989258 C-621.28050877 474.13934794 -630.7153111 479.59438454 -640.15966797 485.03442383 C-647.41012036 489.21338386 -654.64548816 493.41729763 -661.87060547 497.63989258 C-670.18812339 502.50092218 -678.522662 507.33130361 -686.87060547 512.13989258 C-699.23083065 519.26075666 -711.55527874 526.44172636 -723.87060547 533.63989258 C-737.27819265 541.47647241 -750.70219826 549.28267866 -764.15917969 557.03417969 C-771.40982533 561.21316851 -778.64533132 565.41720597 -785.87060547 569.63989258 C-795.28050877 575.13934794 -804.7153111 580.59438454 -814.15966797 586.03442383 C-821.41012036 590.21338386 -828.64548816 594.41729763 -835.87060547 598.63989258 C-845.26260981 604.1288872 -854.67727348 609.5774185 -864.10693359 615.00146484 C-869.67826091 618.209186 -875.23757228 621.43573784 -880.77685547 624.69848633 C-881.88416016 625.34946289 -882.99146484 626.00043945 -884.13232422 626.67114258 C-886.2516992 627.91873606 -888.3689766 629.16990142 -890.48388672 630.42504883 C-891.89734375 631.25649414 -891.89734375 631.25649414 -893.33935547 632.10473633 C-894.16886719 632.59578857 -894.99837891 633.08684082 -895.85302734 633.59277344 C-897.87060547 634.63989258 -897.87060547 634.63989258 -899.87060547 634.63989258 C-899.87060547 975.19989258 -899.87060547 1315.75989258 -899.87060547 1666.63989258 C-897.89060547 1667.29989258 -895.91060547 1667.95989258 -893.87060547 1668.63989258 C-891.4071668 1669.9879725 -889.01559271 1671.36802482 -886.62060547 1672.82739258 C-885.10703961 1673.73360614 -883.59266228 1674.63846525 -882.07763672 1675.54223633 C-881.2495752 1676.0370752 -880.42151367 1676.53191406 -879.56835938 1677.04174805 C-874.50924285 1680.03875952 -869.4056995 1682.95898348 -864.30810547 1685.88989258 C-850.81108842 1693.66268453 -837.35830732 1701.50995199 -823.91162109 1709.36938477 C-811.48977956 1716.628424 -799.04902126 1723.85293429 -786.58203125 1731.03417969 C-778.34091356 1735.7840379 -770.12193636 1740.57084299 -761.90966797 1745.37036133 C-754.57776824 1749.6521138 -747.22793309 1753.90200196 -739.87060547 1758.13989258 C-730.5319734 1763.51903338 -721.21420229 1768.93248705 -711.90966797 1774.37036133 C-704.57776824 1778.6521138 -697.22793309 1782.90200196 -689.87060547 1787.13989258 C-680.5319734 1792.51903338 -671.21420229 1797.93248705 -661.90966797 1803.37036133 C-654.57776782 1807.65211404 -647.2278974 1811.90193949 -639.87060547 1816.13989258 C-626.52044882 1823.83106726 -613.21327419 1831.59472218 -599.91162109 1839.36938477 C-587.48977956 1846.628424 -575.04902126 1853.85293429 -562.58203125 1861.03417969 C-554.34091356 1865.7840379 -546.12193636 1870.57084299 -537.90966797 1875.37036133 C-530.57776824 1879.6521138 -523.22793309 1883.90200196 -515.87060547 1888.13989258 C-506.5319734 1893.51903338 -497.21420229 1898.93248705 -487.90966797 1904.37036133 C-480.57776824 1908.6521138 -473.22793309 1912.90200196 -465.87060547 1917.13989258 C-456.5319734 1922.51903338 -447.21420229 1927.93248705 -437.90966797 1933.37036133 C-430.57776782 1937.65211404 -423.2278974 1941.90193949 -415.87060547 1946.13989258 C-402.52044882 1953.83106726 -389.21327419 1961.59472218 -375.91162109 1969.36938477 C-363.48977956 1976.628424 -351.04902126 1983.85293429 -338.58203125 1991.03417969 C-330.34091356 1995.7840379 -322.12193636 2000.57084299 -313.90966797 2005.37036133 C-306.57776824 2009.6521138 -299.22793309 2013.90200196 -291.87060547 2018.13989258 C-282.5319734 2023.51903338 -273.21420229 2028.93248705 -263.90966797 2034.37036133 C-256.57776824 2038.6521138 -249.22793309 2042.90200196 -241.87060547 2047.13989258 C-232.5319734 2052.51903338 -223.21420229 2057.93248705 -213.90966797 2063.37036133 C-206.57776782 2067.65211404 -199.2278974 2071.90193949 -191.87060547 2076.13989258 C-178.52044882 2083.83106726 -165.21327419 2091.59472218 -151.91162109 2099.36938477 C-139.48977956 2106.628424 -127.04902126 2113.85293429 -114.58203125 2121.03417969 C-106.34091356 2125.7840379 -98.12193636 2130.57084299 -89.90966797 2135.37036133 C-82.57776741 2139.65211428 -75.2278617 2143.901877 -67.87060547 2148.13989258 C-59.44288869 2152.99605388 -51.02445733 2157.86754142 -42.62060547 2162.76489258 C-41.64623535 2163.33022705 -40.67186523 2163.89556152 -39.66796875 2164.47802734 C-34.63652424 2167.40542087 -29.64347397 2170.38146639 -24.69091797 2173.44067383 C-23.6922168 2174.05088379 -22.69351563 2174.66109375 -21.66455078 2175.28979492 C-19.76715863 2176.45178098 -17.87791561 2177.62721738 -15.99853516 2178.81811523 C-15.14936523 2179.3355127 -14.30019531 2179.85291016 -13.42529297 2180.38598633 C-12.31903564 2181.07712524 -12.31903564 2181.07712524 -11.19042969 2181.78222656 C-8.03039467 2182.95052829 -6.10111889 2182.49951642 -2.87060547 2181.63989258 C-0.39061689 2180.5276044 -0.39061689 2180.5276044 1.98095703 2179.04223633 C2.89973633 2178.49647949 3.81851563 2177.95072266 4.76513672 2177.38842773 C5.7515918 2176.79078613 6.73804688 2176.19314453 7.75439453 2175.57739258 C9.91767878 2174.29092674 12.08177405 2173.00582394 14.24658203 2171.72192383 C15.37547852 2171.04983887 16.504375 2170.37775391 17.66748047 2169.68530273 C23.3639762 2166.30783929 29.12425864 2163.04101676 34.87939453 2159.76489258 C36.05850275 2159.09249236 37.2375388 2158.41996557 38.41650391 2157.74731445 C40.79607727 2156.38983725 43.17596436 2155.03291291 45.55615234 2153.67651367 C51.45741142 2150.31337207 57.35631803 2146.9461119 63.25439453 2143.57739258 C63.83475464 2143.24596252 64.41511475 2142.91453247 65.01306152 2142.57305908 C73.39780715 2137.78381595 81.76835573 2132.97040467 90.12939453 2128.13989258 C99.07498428 2122.97166164 108.03294297 2117.82557916 117.00439453 2112.70239258 C117.58477478 2112.37095245 118.16515503 2112.03951233 118.76312256 2111.69802856 C123.47490863 2109.0075515 128.18751135 2106.31850606 132.90014648 2103.6295166 C137.01861038 2101.27947601 141.13675178 2098.92887168 145.25439453 2096.57739258 C145.83493591 2096.24587189 146.41547729 2095.9143512 147.01361084 2095.57278442 C156.4717508 2090.17041087 165.90985559 2084.73383476 175.34082031 2079.28417969 C183.84545253 2074.37280929 192.36995931 2069.49683452 200.89990234 2064.62963867 C209.32306781 2059.82271349 217.73224417 2054.99216108 226.12939453 2050.13989258 C235.07493836 2044.97158255 244.03294333 2039.82557896 253.00439453 2034.70239258 C253.58477478 2034.37095245 254.16515503 2034.03951233 254.76312256 2033.69802856 C259.47490863 2031.0075515 264.18751135 2028.31850606 268.90014648 2025.6295166 C273.01861038 2023.27947601 277.13675178 2020.92887168 281.25439453 2018.57739258 C281.83493591 2018.24587189 282.41547729 2017.9143512 283.01361084 2017.57278442 C291.39816985 2012.78362714 299.76853296 2007.97030228 308.12939453 2003.13989258 C317.07498428 1997.97166164 326.03294297 1992.82557916 335.00439453 1987.70239258 C335.58477478 1987.37095245 336.16515503 1987.03951233 336.76312256 1986.69802856 C341.47490863 1984.0075515 346.18751135 1981.31850606 350.90014648 1978.6295166 C355.01861038 1976.27947601 359.13675178 1973.92887168 363.25439453 1971.57739258 C363.83493591 1971.24587189 364.41547729 1970.9143512 365.01361084 1970.57278442 C373.39816985 1965.78362714 381.76853296 1960.97030228 390.12939453 1956.13989258 C399.07498513 1950.97166115 408.03302834 1945.82572952 417.00439453 1940.70239258 C417.58411011 1940.37128479 418.16382568 1940.040177 418.7611084 1939.69903564 C424.66956092 1936.32468194 430.57952542 1932.95298796 436.49107361 1929.58406067 C439.45429951 1927.89513047 442.41697765 1926.20524136 445.37939453 1924.51489258 C446.25354507 1924.01619156 446.25354507 1924.01619156 447.14535522 1923.50741577 C455.23149146 1918.89220014 463.28494532 1914.22377818 471.31689453 1909.51489258 C480.40735034 1904.18626444 489.57514982 1899.01076097 498.78125 1893.88500977 C506.88257031 1889.36398693 514.90451712 1884.71815253 522.90771484 1880.02612305 C530.53738429 1875.55710426 538.19924108 1871.14640373 545.87939453 1866.76489258 C546.46304779 1866.43186127 547.04670105 1866.09882996 547.64804077 1865.75570679 C550.61698957 1864.06190211 553.58641476 1862.36893496 556.55615234 1860.67651367 C562.45741142 1857.31337207 568.35631803 1853.9461119 574.25439453 1850.57739258 C574.83475464 1850.24596252 575.41511475 1849.91453247 576.01306152 1849.57305908 C584.39780715 1844.78381595 592.76835573 1839.97040467 601.12939453 1835.13989258 C610.07498428 1829.97166164 619.03294297 1824.82557916 628.00439453 1819.70239258 C628.58477478 1819.37095245 629.16515503 1819.03951233 629.76312256 1818.69802856 C634.47490863 1816.0075515 639.18751135 1813.31850606 643.90014648 1810.6295166 C648.01861038 1808.27947601 652.13675178 1805.92887168 656.25439453 1803.57739258 C656.83493591 1803.24587189 657.41547729 1802.9143512 658.01361084 1802.57278442 C666.39816985 1797.78362714 674.76853296 1792.97030228 683.12939453 1788.13989258 C692.07498513 1782.97166115 701.03302834 1777.82572952 710.00439453 1772.70239258 C710.58411011 1772.37128479 711.16382568 1772.040177 711.7611084 1771.69903564 C717.66956092 1768.32468194 723.57952542 1764.95298796 729.49107361 1761.58406067 C732.45429951 1759.89513047 735.41697765 1758.20524136 738.37939453 1756.51489258 C739.25354507 1756.01619156 739.25354507 1756.01619156 740.14535522 1755.50741577 C748.23149146 1750.89220014 756.28494532 1746.22377818 764.31689453 1741.51489258 C773.40735034 1736.18626444 782.57514982 1731.01076097 791.78125 1725.88500977 C799.88257031 1721.36398693 807.90451712 1716.71815253 815.90771484 1712.02612305 C826.44839572 1705.85200224 837.05812255 1699.80061215 847.67254639 1693.75463867 C851.44901588 1691.60217073 855.21993591 1689.44027387 858.98721313 1687.27175903 C861.560035 1685.79083422 864.13418377 1684.31222381 866.70837402 1682.8336792 C867.93550845 1682.12798623 869.16200342 1681.42117999 870.38781738 1680.7131958 C872.09033454 1679.73007111 873.79536183 1678.75129723 875.50048828 1677.77270508 C876.46913818 1677.21470215 877.43778809 1676.65669922 878.43579102 1676.08178711 C880.95685822 1674.73225181 883.46915342 1673.67800063 886.12939453 1672.63989258 C886.12596296 1671.94134372 886.12253138 1671.24279487 886.11899582 1670.52307786 C885.74619835 1594.47553712 885.40067602 1518.42789082 885.19784546 1442.37968445 C885.1948082 1441.24382099 885.19177095 1440.10795754 885.18864165 1438.93767398 C885.12279865 1414.25267733 885.06185452 1389.56767086 885.00595728 1364.88264974 C884.97851573 1352.77723307 884.94999156 1340.67181906 884.92089844 1328.56640625 C884.91802174 1327.36176806 884.91514504 1326.15712988 884.91218117 1324.91598751 C884.81842042 1285.8655197 884.65316454 1246.81575193 884.45085567 1207.76570828 C884.24334512 1167.63877035 884.10791672 1127.51221987 884.06326475 1087.38475443 C884.05692529 1081.71789405 884.04976127 1076.05103499 884.04209518 1070.38417625 C884.04061188 1069.26885032 884.03912857 1068.15352438 884.03760032 1067.00440068 C884.01159555 1049.04574933 883.90954279 1031.08829551 883.77908978 1013.13013266 C883.64958029 995.07863827 883.60009493 977.02833171 883.63236423 958.97638897 C883.64910715 948.24841313 883.60442955 937.52478219 883.47184858 926.79759067 C883.3893132 919.63028818 883.38680468 912.46582821 883.44909463 905.29832897 C883.48231588 901.21282985 883.48100813 897.13553364 883.38196452 893.05091766 C882.84343729 869.49868565 882.84343729 869.49868565 888.29015467 863.10245048 C893.50958134 858.82290291 899.21920053 856.11578599 905.48588185 853.70591953 C909.20911933 852.20448111 912.44167243 850.2265494 915.84814453 848.10864258 C918.10838153 846.78541897 920.36879655 845.46249939 922.62939453 844.13989258 C931.13961879 839.15711101 939.64269046 834.16266821 948.12939453 829.13989258 C950.78133025 827.57225699 953.43354909 826.00510194 956.0859375 824.43823242 C958.32754142 823.11369733 960.56869923 821.78842009 962.80957031 820.46264648 C966.11345914 818.50852749 969.41972318 816.55847376 972.72729492 814.6105957 C974.02523618 813.84541199 975.32245153 813.07899546 976.61889648 812.3112793 C978.43427609 811.2365293 980.25222276 810.16625044 982.07080078 809.09692383 C983.11953369 808.47793213 984.1682666 807.85894043 985.2487793 807.22119141 C987.83812768 805.79978201 990.38194789 804.70711426 993.12939453 803.63989258 C993.42069856 891.78059474 993.69099898 979.92135507 993.84922791 1068.06240845 C993.85157488 1069.36644484 993.85392185 1070.67048123 993.85633994 1072.01403388 C993.90597764 1099.66255707 993.95220971 1127.31108477 993.99434906 1154.95962037 C994.01552078 1168.84838514 994.03736532 1182.73714879 994.05984604 1196.62591151 C994.06323326 1198.72097958 994.06660128 1200.81604768 994.06996849 1202.91111578 C994.12198855 1235.17243331 994.18843876 1267.43364182 994.29669189 1299.69482422 C994.29901917 1300.38847381 994.30134645 1301.0821234 994.30374426 1301.79679268 C994.3413546 1312.98048637 994.38017594 1324.16417585 994.41915802 1335.34786483 C994.53141938 1367.56017519 994.63472648 1399.77240168 994.67877102 1431.98488808 C994.67968112 1432.64730729 994.68059121 1433.3097265 994.68152889 1433.99221902 C994.70045694 1447.88093298 994.71554403 1461.76964866 994.72594936 1475.65837164 C994.73084816 1482.16244221 994.73638399 1488.6665121 994.74230766 1495.17058182 C994.74345385 1496.45070493 994.74460005 1497.73082805 994.74578097 1499.04974277 C994.76588832 1519.67547777 994.84478309 1540.30059121 994.94553911 1560.9260725 C995.04552697 1581.65021173 995.08387464 1602.37373338 995.05891795 1623.09810548 C995.04596486 1635.4189098 995.0806554 1647.73745785 995.18295276 1660.05785567 C995.24659622 1668.28318973 995.24875609 1676.50704269 995.20053536 1684.73247812 C995.17480666 1689.42352492 995.17617521 1694.11030049 995.25240863 1698.80089287 C995.6683502 1725.93793999 995.6683502 1725.93793999 991.4661421 1732.0650163 C987.54902027 1735.70680776 983.30105492 1737.54889203 978.20377069 1738.98994191 C975.05855885 1739.97541049 972.55217991 1741.58604687 969.76611328 1743.33520508 C967.7835617 1744.47933809 965.8004805 1745.62255382 963.81689453 1746.76489258 C962.72570313 1747.39395508 961.63451172 1748.02301758 960.51025391 1748.67114258 C951.80674026 1753.68420792 943.08718723 1758.66890778 934.36392212 1763.64749146 C921.59455324 1770.9358594 908.85945211 1778.2831125 896.12939453 1785.63989258 C882.22510874 1793.6752665 868.30904474 1801.68892256 854.3614502 1809.64886475 C841.59291313 1816.93678812 828.85863577 1824.28358426 816.12939453 1831.63989258 C802.22510874 1839.6752665 788.30904474 1847.68892256 774.3614502 1855.64886475 C761.59291313 1862.93678812 748.85863577 1870.28358426 736.12939453 1877.63989258 C722.22510874 1885.6752665 708.30904474 1893.68892256 694.3614502 1901.64886475 C681.59291313 1908.93678812 668.85863577 1916.28358426 656.12939453 1923.63989258 C642.22446367 1931.6756393 628.30816348 1939.69040538 614.35943604 1947.64987183 C604.8638422 1953.06878639 595.3886102 1958.52228133 585.92285156 1963.99316406 C577.96500699 1968.58932865 569.98762254 1973.15055205 562.00439453 1977.70239258 C553.35243502 1982.63586044 544.72467328 1987.60817769 536.12939453 1992.63989258 C527.57390042 1997.64734361 518.98915208 2002.60144117 510.37939453 2007.51489258 C509.50450378 2008.01421295 509.50450378 2008.01421295 508.61193848 2008.52362061 C503.85502555 2011.23789774 499.09648735 2013.94932089 494.33789062 2016.66064453 C490.18430479 2019.0274069 486.03135193 2021.39527452 481.87939453 2023.76489258 C481.29581177 2024.09793396 480.712229 2024.43097534 480.11096191 2024.77410889 C472.09160985 2029.35274608 464.09912591 2033.97539623 456.12939453 2038.63989258 C447.57384702 2043.64725333 438.98915298 2048.60144066 430.37939453 2053.51489258 C429.79613403 2053.84777283 429.21287354 2054.18065308 428.61193848 2054.52362061 C423.85502555 2057.23789774 419.09648735 2059.94932089 414.33789062 2062.66064453 C410.18430479 2065.0274069 406.03135193 2067.39527452 401.87939453 2069.76489258 C401.29581177 2070.09793396 400.712229 2070.43097534 400.11096191 2070.77410889 C392.09160985 2075.35274608 384.09912591 2079.97539623 376.12939453 2084.63989258 C367.57384702 2089.64725333 358.98915298 2094.60144066 350.37939453 2099.51489258 C349.79613403 2099.84777283 349.21287354 2100.18065308 348.61193848 2100.52362061 C343.85502555 2103.23789774 339.09648735 2105.94932089 334.33789062 2108.66064453 C330.18430479 2111.0274069 326.03135193 2113.39527452 321.87939453 2115.76489258 C321.29581177 2116.09793396 320.712229 2116.43097534 320.11096191 2116.77410889 C312.09160985 2121.35274608 304.09912591 2125.97539623 296.12939453 2130.63989258 C287.57384702 2135.64725333 278.98915298 2140.60144066 270.37939453 2145.51489258 C269.79613403 2145.84777283 269.21287354 2146.18065308 268.61193848 2146.52362061 C263.85502555 2149.23789774 259.09648735 2151.94932089 254.33789062 2154.66064453 C250.18430479 2157.0274069 246.03135193 2159.39527452 241.87939453 2161.76489258 C241.29581177 2162.09793396 240.712229 2162.43097534 240.11096191 2162.77410889 C232.09160985 2167.35274608 224.09912591 2171.97539623 216.12939453 2176.63989258 C204.03780668 2183.71681458 191.87484504 2190.66643163 179.70263672 2197.60327148 C173.80137777 2200.96641302 167.90241441 2204.33357432 162.00439453 2207.70239258 C161.13485138 2208.19903915 161.13485138 2208.19903915 160.2477417 2208.70571899 C147.51877373 2215.97754788 134.82196732 2223.30477519 122.12939453 2230.63989258 C108.22510874 2238.6752665 94.30904474 2246.68892256 80.3614502 2254.64886475 C67.59290985 2261.93678999 54.8589768 2269.28417013 42.12939453 2276.63989258 C39.90680062 2277.92385466 37.68414391 2279.20770805 35.46142578 2280.49145508 C34.36040527 2281.12752686 33.25938477 2281.76359863 32.125 2282.41894531 C29.9417077 2283.67848744 27.75716122 2284.93585838 25.57128906 2286.19091797 C20.36758614 2289.17996627 15.18462171 2292.19537703 10.03955078 2295.28442383 C9.08282471 2295.85136963 8.12609863 2296.41831543 7.14038086 2297.00244141 C5.35217641 2298.06296729 3.57146527 2299.13627391 1.80004883 2300.22460938 C0.60955933 2300.92517456 0.60955933 2300.92517456 -0.60498047 2301.63989258 C-1.62930176 2302.25864258 -1.62930176 2302.25864258 -2.67431641 2302.88989258 C-6.62272854 2304.23821651 -9.82318505 2303.1335818 -13.49414062 2301.40332031 C-14.37376465 2300.8819751 -15.25338867 2300.36062988 -16.15966797 2299.82348633 C-17.16900391 2299.23245117 -18.17833984 2298.64141602 -19.21826172 2298.0324707 C-20.29978516 2297.38729492 -21.38130859 2296.74211914 -22.49560547 2296.07739258 C-23.64731777 2295.39988573 -24.79967559 2294.72347514 -25.95263672 2294.0480957 C-27.75732345 2292.99073033 -29.56155264 2291.93265237 -31.36383057 2290.8711853 C-37.25222455 2287.40384466 -43.18364491 2284.01418554 -49.12280273 2280.63476562 C-52.05864976 2278.96364163 -54.99208402 2277.28829784 -57.92529297 2275.61254883 C-58.50426331 2275.28179352 -59.08323364 2274.95103821 -59.67974854 2274.61026001 C-71.16961123 2268.04247071 -82.62093965 2261.40742617 -94.07958984 2254.78540039 C-106.32719152 2247.70859468 -118.58535665 2240.6511281 -130.87060547 2233.63989258 C-145.30186336 2225.40392199 -159.69316777 2217.0994039 -174.07958984 2208.78540039 C-186.32719152 2201.70859468 -198.58535665 2194.6511281 -210.87060547 2187.63989258 C-225.30186336 2179.40392199 -239.69316777 2171.0994039 -254.07958984 2162.78540039 C-266.9153802 2155.36873247 -279.76488315 2147.97707455 -292.64056396 2140.62991333 C-302.1361578 2135.21099876 -311.6113898 2129.75750382 -321.07714844 2124.28662109 C-328.44311745 2120.03230253 -335.82488518 2115.80631204 -343.21435547 2111.59301758 C-352.46022277 2106.32125113 -361.68541939 2101.01694188 -370.87060547 2095.63989258 C-379.42609958 2090.63244154 -388.01084792 2085.67834398 -396.62060547 2080.76489258 C-397.20386597 2080.43201233 -397.78712646 2080.09913208 -398.38806152 2079.75616455 C-402.54801775 2077.38250873 -406.7091767 2075.01096558 -410.87060547 2072.63989258 C-415.62142739 2069.93299881 -420.37172381 2067.22518912 -425.12060547 2064.51489258 C-425.70418823 2064.1818512 -426.287771 2063.84880981 -426.88903809 2063.50567627 C-435.8918157 2058.36555371 -444.85522238 2053.16055483 -453.80224609 2047.92407227 C-461.3830552 2043.49317691 -468.99440298 2039.11704479 -476.62060547 2034.76489258 C-477.20386597 2034.43201233 -477.78712646 2034.09913208 -478.38806152 2033.75616455 C-482.54801775 2031.38250873 -486.7091767 2029.01096558 -490.87060547 2026.63989258 C-495.62142739 2023.93299881 -500.37172381 2021.22518912 -505.12060547 2018.51489258 C-505.99597961 2018.01533051 -505.99597961 2018.01533051 -506.88903809 2017.50567627 C-515.8918157 2012.36555371 -524.85522238 2007.16055483 -533.80224609 2001.92407227 C-541.3830552 1997.49317691 -548.99440298 1993.11704479 -556.62060547 1988.76489258 C-557.20386597 1988.43201233 -557.78712646 1988.09913208 -558.38806152 1987.75616455 C-562.54801775 1985.38250873 -566.7091767 1983.01096558 -570.87060547 1980.63989258 C-575.62142739 1977.93299881 -580.37172381 1975.22518912 -585.12060547 1972.51489258 C-585.99597961 1972.01533051 -585.99597961 1972.01533051 -586.88903809 1971.50567627 C-595.8918157 1966.36555371 -604.85522238 1961.16055483 -613.80224609 1955.92407227 C-621.3830552 1951.49317691 -628.99440298 1947.11704479 -636.62060547 1942.76489258 C-637.20386597 1942.43201233 -637.78712646 1942.09913208 -638.38806152 1941.75616455 C-642.54801775 1939.38250873 -646.7091767 1937.01096558 -650.87060547 1934.63989258 C-655.62142743 1931.93299879 -660.37167724 1929.22510758 -665.12060547 1926.51489258 C-665.70252655 1926.18284821 -666.28444763 1925.85080383 -666.88400269 1925.50869751 C-676.00473444 1920.30212722 -685.08292599 1915.02541231 -694.14501953 1909.7175293 C-700.85272001 1905.79632777 -707.59845866 1901.94857654 -714.37060547 1898.13989258 C-722.14044544 1893.77010177 -729.8660984 1889.33278347 -737.55810547 1884.82739258 C-746.21734227 1879.75660461 -754.90498409 1874.73802918 -763.62060547 1869.76489258 C-764.20341278 1869.43228424 -764.78622009 1869.0996759 -765.38668823 1868.75698853 C-769.54710351 1866.38306023 -773.70871295 1864.01122981 -777.87060547 1861.63989258 C-782.62142739 1858.93299881 -787.37172381 1856.22518912 -792.12060547 1853.51489258 C-792.99597961 1853.01533051 -792.99597961 1853.01533051 -793.88903809 1852.50567627 C-802.8918157 1847.36555371 -811.85522238 1842.16055483 -820.80224609 1836.92407227 C-828.3830552 1832.49317691 -835.99440298 1828.11704479 -843.62060547 1823.76489258 C-844.49549622 1823.2655722 -844.49549622 1823.2655722 -845.38806152 1822.75616455 C-849.54801775 1820.38250873 -853.7091767 1818.01096558 -857.87060547 1815.63989258 C-862.62142739 1812.93299881 -867.37172381 1810.22518912 -872.12060547 1807.51489258 C-872.99597961 1807.01533051 -872.99597961 1807.01533051 -873.88903809 1806.50567627 C-882.8918157 1801.36555371 -891.85522238 1796.16055483 -900.80224609 1790.92407227 C-908.3830552 1786.49317691 -915.99440298 1782.11704479 -923.62060547 1777.76489258 C-924.20386597 1777.43201233 -924.78712646 1777.09913208 -925.38806152 1776.75616455 C-929.54801775 1774.38250873 -933.7091767 1772.01096558 -937.87060547 1769.63989258 C-977.73656152 1746.92531609 -977.73656152 1746.92531609 -986.52897126 1741.53104264 C-989.05553038 1740.10117266 -991.44323479 1738.93289773 -994.0928353 1737.7909593 C-1005.34893413 1732.61839384 -1005.34893413 1732.61839384 -1007.85938779 1727.70446189 C-1009.457365 1722.03612913 -1009.14142607 1716.18571647 -1009.00990486 1710.35243225 C-1009.02764889 1708.36884025 -1009.05283848 1706.3853034 -1009.08477908 1704.4018892 C-1009.1510717 1698.939414 -1009.11134675 1693.48203566 -1009.05455389 1688.0196424 C-1009.01147875 1682.08226559 -1009.06682705 1676.14567847 -1009.10969055 1670.20841312 C-1009.17115096 1659.79911778 -1009.16976547 1649.39100309 -1009.12588882 1638.98169327 C-1009.07910155 1627.81381314 -1009.0692626 1616.64681099 -1009.10442352 1605.47887802 C-1009.10661946 1604.77328441 -1009.10881539 1604.0676908 -1009.11107787 1603.34071557 C-1009.12014357 1600.46689964 -1009.12947161 1597.59308472 -1009.13913256 1594.71927073 C-1009.22903812 1567.95646815 -1009.23515567 1541.1942541 -1009.18762589 1514.43136597 C-1009.18621836 1513.63844531 -1009.18481084 1512.84552465 -1009.18336067 1512.02857609 C-1009.18195086 1511.23438708 -1009.18054106 1510.44019807 -1009.17908853 1509.62194273 C-1009.13620499 1485.43247124 -1009.12511571 1461.24324299 -1009.14547348 1437.05374146 C-1009.14679063 1435.43429608 -1009.14810229 1433.8148507 -1009.14940847 1432.19540531 C-1009.15468635 1425.68762574 -1009.16010368 1419.1798463 -1009.16572445 1412.67206702 C-1009.18131406 1394.47981065 -1009.19101393 1376.28755344 -1009.19608879 1358.09529114 C-1009.19632077 1357.26683918 -1009.19655275 1356.43838722 -1009.19679176 1355.58483065 C-1009.20375011 1329.18429886 -1009.18458911 1302.78385179 -1009.14764595 1276.38334656 C-1009.1458546 1275.09881645 -1009.1458546 1275.09881645 -1009.14402706 1273.78833623 C-1009.12456263 1259.88146053 -1009.10383191 1245.97458668 -1009.08299411 1232.06771298 C-1009.00043522 1176.91022293 -1009.00426711 1121.7534343 -1009.08691406 1066.59594727 C-1009.10767407 1052.69611176 -1009.12826184 1038.7962761 -1009.14764595 1024.8964386 C-1009.14944238 1023.61266631 -1009.14944238 1023.61266631 -1009.1512751 1022.30295922 C-1009.18792681 995.93012629 -1009.20347356 969.55735168 -1009.19608879 943.18449402 C-1009.19585786 942.35664939 -1009.19562692 941.52880477 -1009.19538899 940.67587395 C-1009.190077 922.50386778 -1009.17930542 904.3318678 -1009.16361024 886.15986774 C-1009.15801476 879.65788497 -1009.1526924 873.15590198 -1009.14744815 866.65391892 C-1009.14613255 865.03637531 -1009.14479413 863.41883171 -1009.14343282 861.80128813 C-1009.12313633 837.6178257 -1009.1404315 813.43463732 -1009.18336067 789.25120907 C-1009.18476819 788.45828841 -1009.18617571 787.66536775 -1009.18762589 786.84841919 C-1009.18903148 786.05695942 -1009.19043708 785.26549966 -1009.19188528 784.45005627 C-1009.23875888 757.76482048 -1009.22156106 731.0802909 -1009.13185324 704.39515615 C-1009.1224631 701.53040722 -1009.11333914 698.66565758 -1009.10442352 695.80090714 C-1009.10221001 695.09784262 -1009.09999649 694.3947781 -1009.0977159 693.6704086 C-1009.06416787 682.53194536 -1009.08754683 671.39435936 -1009.13449662 660.25597522 C-1009.17943878 649.30680232 -1009.16230246 638.3589458 -1009.08325713 627.40992967 C-1009.04268435 621.55068424 -1009.02924093 615.69476822 -1009.09015884 609.83562386 C-1009.14500521 604.50626843 -1009.12190333 599.18319858 -1009.03608761 593.85430379 C-1009.01893818 591.93718069 -1009.03037305 590.01953932 -1009.07358856 588.10282664 C-1009.3177985 576.44617055 -1009.3177985 576.44617055 -1006.87060547 571.63989258 C-1002.72685662 567.34744581 -997.39909726 564.92240541 -991.98984565 562.5880881 C-988.82304239 561.1711894 -985.91126044 559.42636766 -982.92919922 557.65551758 C-980.72263282 556.39949226 -978.51559493 555.14429491 -976.30810547 553.88989258 C-967.46669536 548.85521744 -958.65046717 543.78144565 -949.87060547 538.63989258 C-941.31519518 533.63229976 -932.73036161 528.67834318 -924.12060547 523.76489258 C-923.53734497 523.43201233 -922.95408447 523.09913208 -922.35314941 522.75616455 C-917.59623649 520.04188742 -912.83769828 517.33046427 -908.07910156 514.61914062 C-903.92551573 512.25237826 -899.77256286 509.88451064 -895.62060547 507.51489258 C-894.74523132 507.01533051 -894.74523132 507.01533051 -893.85217285 506.50567627 C-885.83282079 501.92703907 -877.84033685 497.30438892 -869.87060547 492.63989258 C-861.31505796 487.63253183 -852.73036392 482.6783445 -844.12060547 477.76489258 C-843.24571472 477.2655722 -843.24571472 477.2655722 -842.35314941 476.75616455 C-837.59623649 474.04188742 -832.83769828 471.33046427 -828.07910156 468.61914062 C-823.92551573 466.25237826 -819.77256286 463.88451064 -815.62060547 461.51489258 C-814.74523132 461.01533051 -814.74523132 461.01533051 -813.85217285 460.50567627 C-805.83282079 455.92703907 -797.84033685 451.30438892 -789.87060547 446.63989258 C-781.31505796 441.63253183 -772.73036392 436.6783445 -764.12060547 431.76489258 C-763.24571472 431.2655722 -763.24571472 431.2655722 -762.35314941 430.75616455 C-757.59623649 428.04188742 -752.83769828 425.33046427 -748.07910156 422.61914062 C-743.92551573 420.25237826 -739.77256286 417.88451064 -735.62060547 415.51489258 C-734.74523132 415.01533051 -734.74523132 415.01533051 -733.85217285 414.50567627 C-725.83282079 409.92703907 -717.84033685 405.30438892 -709.87060547 400.63989258 C-697.77901762 393.56297058 -685.61605598 386.61335353 -673.44384766 379.67651367 C-667.54258871 376.31337214 -661.64362535 372.94621083 -655.74560547 369.57739258 C-655.16591003 369.24629486 -654.5862146 368.91519714 -653.98895264 368.57406616 C-641.25998467 361.30223727 -628.56317826 353.97500997 -615.87060547 346.63989258 C-601.96631968 338.60451865 -588.05025567 330.5908626 -574.10266113 322.63092041 C-561.33412407 315.34299703 -548.59984671 307.99620089 -535.87060547 300.63989258 C-521.96631968 292.60451865 -508.05025567 284.5908626 -494.10266113 276.63092041 C-481.33412407 269.34299703 -468.59984671 261.99620089 -455.87060547 254.63989258 C-441.96631968 246.60451865 -428.05025567 238.5908626 -414.10266113 230.63092041 C-401.33412407 223.34299703 -388.59984671 215.99620089 -375.87060547 208.63989258 C-361.96631968 200.60451865 -348.05025567 192.5908626 -334.10266113 184.63092041 C-321.33412407 177.34299703 -308.59984671 169.99620089 -295.87060547 162.63989258 C-281.9656746 154.60414586 -268.04937442 146.58937978 -254.10064697 138.62991333 C-244.60505314 133.21099876 -235.12982113 127.75750382 -225.6640625 122.28662109 C-217.70621793 117.69045651 -209.72883348 113.12923311 -201.74560547 108.57739258 C-193.09364596 103.64392472 -184.46588422 98.67160747 -175.87060547 93.63989258 C-167.31511136 88.63244154 -158.73036301 83.67834398 -150.12060547 78.76489258 C-149.53734497 78.43201233 -148.95408447 78.09913208 -148.35314941 77.75616455 C-143.59623649 75.04188742 -138.83769828 72.33046427 -134.07910156 69.61914062 C-129.92551573 67.25237826 -125.77256286 64.88451064 -121.62060547 62.51489258 C-121.03702271 62.1818512 -120.45343994 61.84880981 -119.85217285 61.50567627 C-111.83282079 56.92703907 -103.84033685 52.30438892 -95.87060547 47.63989258 C-83.7892097 40.56893576 -71.63655277 33.6250918 -59.47460938 26.6940918 C-54.61475868 23.92441779 -49.75643657 21.15207187 -44.89941406 18.37744141 C-42.53024078 17.02419522 -40.15935769 15.67401955 -37.78710938 14.32617188 C-32.52090762 11.32778966 -27.27944087 8.3035597 -22.10107422 5.15551758 C-21.22974854 4.63127197 -20.35842285 4.10702637 -19.46069336 3.56689453 C-17.87433874 2.60835739 -16.29590929 1.63651393 -14.7277832 0.6484375 C-14.03499268 0.23182861 -13.34220215 -0.18478027 -12.62841797 -0.61401367 C-12.04205566 -0.97825439 -11.45569336 -1.34249512 -10.8515625 -1.71777344 C-6.9177686 -2.99332332 -3.61367752 -1.71217873 0 0 Z " fill="#6171EA" transform="translate(1159.87060546875,2.360107421875)"/>
<path d="M0 0 C59.56396753 -0.06021772 59.56396753 -0.06021772 78.23344421 -0.07695007 C79.22294089 -0.07783807 79.22294089 -0.07783807 80.23242739 -0.07874402 C102.46348733 -0.09864065 124.6945482 -0.11438367 146.9256134 -0.12702942 C147.6518538 -0.12744359 148.37809419 -0.12785776 149.12634186 -0.12828448 C164.91406806 -0.13726572 180.70179454 -0.14557591 196.48952146 -0.15319599 C204.23316736 -0.1569376 211.97681319 -0.16082732 219.72045898 -0.16479492 C220.49099549 -0.1651872 221.26153199 -0.16557948 222.05541808 -0.16598364 C246.97666275 -0.17874024 271.89788684 -0.20125352 296.81911907 -0.22889166 C322.45466645 -0.25726998 348.09020247 -0.27567493 373.72576529 -0.28174497 C377.35660369 -0.28260928 380.98744206 -0.28358619 384.61828041 -0.28463173 C385.33279709 -0.284834 386.04731377 -0.28503627 386.78348248 -0.28524467 C398.22959658 -0.28877325 409.67567531 -0.30264227 421.12177505 -0.3204961 C432.66266373 -0.33827282 444.20350914 -0.34463467 455.74441191 -0.34050413 C461.983841 -0.33859474 468.2231673 -0.34138877 474.46257782 -0.35761642 C533.80610667 -0.50433552 533.80610667 -0.50433552 561.625 5.6875 C563.39689697 6.07095581 563.39689697 6.07095581 565.20458984 6.4621582 C619.84680658 18.65616094 672.23155627 44.59569197 713.5234375 82.734375 C715.53284944 84.57263829 717.57138838 86.35107105 719.63671875 88.125 C724.7833142 92.61836448 729.6063717 97.42235485 734.4375 102.25 C735.32759766 103.12785156 736.21769531 104.00570312 737.13476562 104.91015625 C742.45231576 110.21605361 747.35225274 115.69720434 752.0456543 121.56201172 C753.590152 123.48872678 755.15692486 125.36664532 756.79296875 127.21484375 C802.16746405 178.8070513 830.65414819 251.29967961 832 320 C832.02046387 320.87414551 832.04092773 321.74829102 832.06201172 322.64892578 C833.14022095 375.8910756 823.33236961 428.93531861 800 477 C799.60844727 477.82258301 799.21689453 478.64516602 798.81347656 479.49267578 C788.8507978 500.39342852 776.90379438 519.25627 762 537 C761.5354541 537.55623047 761.0709082 538.11246094 760.59228516 538.68554688 C754.69640615 545.73179382 748.68841403 552.47903768 742.10546875 558.89453125 C740.39849718 560.60150282 738.86796664 562.2977316 737.375 564.1875 C734.8331357 567.19760246 732.08684689 569.60988399 729.09375 572.15625 C727.02155257 573.98102087 725.10765659 575.89188746 723.1875 577.875 C719.37276608 581.73409129 715.30619597 585.15541617 711.0703125 588.54296875 C708.95839484 590.23304026 706.87452125 591.93639901 704.8046875 593.67578125 C687.37047894 608.18224083 667.96952534 620.31103794 648 631 C647.29955566 631.38091797 646.59911133 631.76183594 645.87744141 632.15429688 C605.00938556 654.06948222 551.64084658 658.56958813 506 662 C504.26087687 662.13425211 504.26087687 662.13425211 502.48661995 662.27121639 C487.45447831 663.26691357 472.40710731 663.13602482 457.35010895 663.11607273 C453.15678736 663.11166042 448.96346679 663.11317031 444.77014351 663.11389065 C436.65506034 663.1144192 428.53998836 663.10983238 420.42490805 663.10338932 C411.0248888 663.09615147 401.62487616 663.09539251 392.22485352 663.09460449 C367.44156725 663.08936741 342.65828346 663.07540618 317.875 663.0625 C262.47625 663.041875 207.0775 663.02125 150 663 C150 778.5 150 894 150 1013 C100.5 1013 51 1013 0 1013 C0 847.67 0 682.34 0 512 C37.1146875 511.97421875 74.229375 511.9484375 112.46875 511.921875 C134.56292897 511.89821465 156.65710102 511.87428179 178.75127268 511.8453486 C191.713653 511.82839424 204.67603354 511.8116249 217.63841483 511.79542629 C219.20614131 511.79346667 220.77386778 511.79150122 222.34159425 511.78952987 C247.29459611 511.75820082 272.24758706 511.7396762 297.20060518 511.72790753 C322.86554183 511.71573473 348.53043353 511.69046437 374.19534024 511.64892386 C377.82778217 511.64305054 381.46022432 511.63732556 385.09266663 511.63169098 C385.80752042 511.63057752 386.52237422 511.62946406 387.25889025 511.62831686 C398.72457968 511.61083817 410.19023426 511.6069968 421.65593522 511.60837079 C433.20797481 511.6094599 444.75991052 511.59558898 456.3119188 511.56783572 C462.56086495 511.55325063 468.80964503 511.5449344 475.05860519 511.55419731 C480.7962991 511.56255783 486.5336611 511.5521299 492.2713061 511.52766338 C494.33093154 511.5220358 496.39058906 511.52290653 498.45020431 511.53148755 C544.77184294 511.707717 584.62895293 495.83634214 617.6875 463.4375 C621.29247465 459.76545605 624.66316977 455.91539354 628 452 C628.763125 451.12601563 629.52625 450.25203125 630.3125 449.3515625 C640.92111166 436.98589954 649.1703849 423.77859126 656 409 C656.53367187 407.86046875 657.06734375 406.7209375 657.6171875 405.546875 C673.3315103 370.53568948 678.16295284 330.39311126 669 293 C668.56716019 291.12619347 668.13434848 289.25238039 667.70211792 287.37843323 C662.71837572 265.94886201 655.96917664 247.892292 643 230 C642.39285156 229.15743652 642.39285156 229.15743652 641.7734375 228.29785156 C630.54511181 212.85890374 617.37670062 199.12398252 601.875 187.9375 C601.24956299 187.47915771 600.62412598 187.02081543 599.97973633 186.54858398 C587.15119236 177.53661458 572.93673974 171.43476043 558.24414062 166.18701172 C555.62809571 165.25110751 553.02095082 164.29310734 550.4140625 163.33203125 C534.1287311 157.394173 517.67345515 151.83893458 500.18942356 151.8613348 C499.32196445 151.85849258 498.45450533 151.85565036 497.56075957 151.85272202 C494.6520334 151.84439553 491.74334716 151.84310841 488.83460999 151.84178162 C486.72904426 151.83721488 484.62347943 151.83221469 482.51791567 151.82681805 C476.73033203 151.81324033 470.94275427 151.80581963 465.15515888 151.79939139 C458.91458948 151.79138586 452.67403229 151.7776886 446.43347168 151.76467896 C435.62070607 151.7429184 424.80794066 151.72473795 413.99516487 151.70907402 C402.65517778 151.69263135 391.31519704 151.6741479 379.97521782 151.65294075 C379.27004849 151.65162314 378.56487915 151.65030554 377.83834105 151.648948 C374.25712085 151.64224589 370.67590071 151.63550733 367.0946806 151.62875474 C341.73101393 151.58099571 316.36734133 151.53780952 291.00366211 151.49731445 C266.36368377 151.45796436 241.72371033 151.41654178 217.08374023 151.37231445 C215.94440957 151.37027066 215.94440957 151.37027066 214.78206213 151.36818558 C207.15428883 151.35450016 199.52651562 151.34077263 191.89874246 151.32701423 C176.360184 151.29898793 160.82162506 151.27124276 145.2830658 151.2436676 C144.21141655 151.2417653 144.21141655 151.2417653 143.11811782 151.23982458 C121.22059797 151.2009688 99.32307629 151.16330459 77.42555237 151.1268158 C76.19876827 151.12477107 74.97198417 151.12272635 73.70802479 151.12061966 C49.1386843 151.0797413 24.56934191 151.04002045 0 151 C0 101.17 0 51.34 0 0 Z " fill="#496FF7" transform="translate(753,662)"/>
<path d="M0 0 C2.23878015 1.6808535 3.19670034 3.20715301 4.52636719 5.66967773 C5.0172583 6.56130615 5.50814941 7.45293457 6.01391602 8.37158203 C6.53880615 9.34780518 7.06369629 10.32402832 7.60449219 11.32983398 C8.76716944 13.44069142 9.93265101 15.55000607 11.10058594 17.65795898 C11.71272949 18.76461914 12.32487305 19.8712793 12.95556641 21.01147461 C16.0914175 26.59456358 19.38079169 32.08434877 22.66699219 37.57983398 C28.19986003 46.86034383 33.63644779 56.18874905 38.97949219 65.57983398 C45.62113053 77.25136348 52.35151141 88.86813293 59.13671875 100.45678711 C62.0480992 105.43211947 64.95085631 110.41247926 67.85449219 115.39233398 C71.34065368 121.37013702 74.82773445 127.34739394 78.31933594 133.32202148 C84.99750346 144.75311905 91.63770871 156.20521511 98.24658203 167.67651367 C104.73949097 178.94030648 111.29391775 190.16786163 117.85449219 201.39233398 C120.16781256 205.35018872 122.48044807 209.30844155 124.79199219 213.26733398 C125.36336914 214.24581299 125.93474609 215.22429199 126.5234375 216.23242188 C131.57280135 224.88938242 136.57552173 233.57295884 141.56738281 242.26318359 C145.41423487 248.94571226 149.31044464 255.59283811 153.41821289 262.11914062 C155.0776863 264.80972733 155.85449219 266.1568423 155.85449219 269.39233398 C97.77449219 269.39233398 39.69449219 269.39233398 -20.14550781 269.39233398 C-24.43550781 261.80233398 -28.72550781 254.21233398 -33.14550781 246.39233398 C-35.42601816 242.44709792 -37.71044062 238.50735694 -40.02050781 234.57983398 C-44.90303824 226.24185777 -49.75789769 217.88867738 -54.58300781 209.51733398 C-55.20473877 208.4387915 -55.82646973 207.36024902 -56.46704102 206.24902344 C-58.9924295 201.86687562 -61.5166989 197.48408362 -64.04101562 193.10131836 C-70.71507093 181.51551632 -77.40014866 169.93680046 -84.14550781 158.39233398 C-92.16818292 144.6617821 -100.1040904 130.88155432 -108.04101562 117.10131836 C-115.28075864 104.53351279 -122.54249852 91.97949277 -129.86083984 79.45727539 C-134.90894757 70.81337269 -139.91467575 62.14540485 -144.90917969 53.47045898 C-145.49119141 52.45983398 -146.07320312 51.44920898 -146.67285156 50.40795898 C-147.23858887 49.42375977 -147.80432617 48.43956055 -148.38720703 47.42553711 C-149.62686036 45.28704045 -150.87975759 43.15619423 -152.14208984 41.03100586 C-152.78388184 39.94883789 -153.42567383 38.86666992 -154.08691406 37.75170898 C-154.67287354 36.77169922 -155.25883301 35.79168945 -155.86254883 34.78198242 C-157.14550781 32.39233398 -157.14550781 32.39233398 -157.14550781 30.39233398 C-156.53640564 30.31796112 -155.92730347 30.24358826 -155.29974365 30.16696167 C-78.10882289 22.89712548 -78.10882289 22.89712548 -4.53442383 0.14746094 C-2.14550781 -0.60766602 -2.14550781 -0.60766602 0 0 Z " fill="#4169FE" transform="translate(1422.1455078125,1393.607666015625)"/>
<path d="M0 0 C4.36076884 2.20464086 8.54471295 4.62788538 12.72265625 7.16015625 C14.69228297 8.33925252 16.66235863 9.51759907 18.6328125 10.6953125 C19.68484863 11.3258252 20.73688477 11.95633789 21.82080078 12.60595703 C27.12919816 15.7720563 32.46528547 18.89051778 37.80096436 22.01034546 C63.36356931 36.96011815 63.36356931 36.96011815 67.79827785 39.71440983 C72.40621403 42.53205051 76.90456964 44.98110693 81.92861938 46.97660828 C96.34907784 53.15528654 96.34907784 53.15528654 99.37905121 60.58746719 C101.14550701 68.96400819 100.76176614 77.47447035 100.39082289 85.97427583 C100.25212301 89.69425064 100.24028548 93.41472551 100.21426392 97.1368866 C100.14620163 104.16664271 99.96618848 111.18876206 99.74457514 118.21517152 C99.49760631 126.22148997 99.37745948 134.22819815 99.26727557 142.23738444 C99.03805372 158.69526151 98.65180483 175.14548107 98.16015625 191.59765625 C95.29527018 193.19473397 92.42945357 194.79013484 89.56347656 196.38525391 C88.75903107 196.83373184 87.95458557 197.28220978 87.12576294 197.74427795 C80.77931015 201.27490879 74.37439629 204.66215542 67.91015625 207.97265625 C60.02085764 212.04234168 52.18457123 216.18767625 44.41015625 220.47265625 C34.30109987 226.0425684 24.06311155 231.34788333 13.79199219 236.61083984 C12.88819572 237.07494011 12.88819572 237.07494011 11.96614075 237.54841614 C10.32515472 238.39069735 8.68300286 239.23070612 7.04077148 240.07055664 C4.13978627 241.52875173 4.13978627 241.52875173 1.59399414 243.41967773 C-0.83984375 244.59765625 -0.83984375 244.59765625 -3.21899414 244.00341797 C-4.5163147 243.30756592 -4.5163147 243.30756592 -5.83984375 242.59765625 C-6.91161865 242.07059082 -7.98339355 241.54352539 -9.08764648 241.00048828 C-10.31749972 240.37126446 -11.54602664 239.73944365 -12.7734375 239.10546875 C-13.77157219 238.59279449 -13.77157219 238.59279449 -14.78987122 238.06976318 C-16.95379181 236.95681171 -19.11569858 235.84002005 -21.27734375 234.72265625 C-22.02036743 234.33950256 -22.76339111 233.95634888 -23.52893066 233.56158447 C-33.30402802 228.51889222 -43.0159327 223.38194068 -52.64331055 218.06152344 C-60.22037416 213.89097572 -67.89747477 209.92448616 -75.58984375 205.97265625 C-83.98125394 201.66014604 -92.34468014 197.31066344 -100.58984375 192.72265625 C-101.3281543 192.31192871 -102.06646484 191.90120117 -102.82714844 191.47802734 C-107.69661022 188.74088978 -107.69661022 188.74088978 -108.83984375 187.59765625 C-108.93590239 185.96542169 -108.96172196 184.32901235 -108.96009827 182.69395447 C-108.96147293 181.63239639 -108.9628476 180.57083832 -108.96426392 179.47711182 C-108.96066864 178.30251404 -108.95707336 177.12791626 -108.95336914 175.91772461 C-108.95351517 174.68862869 -108.95366119 173.45953278 -108.95381165 172.19319153 C-108.95323267 168.81316953 -108.94820339 165.43320796 -108.94123769 162.05319667 C-108.93500363 158.52444431 -108.93440031 154.99569122 -108.93321228 151.4669342 C-108.93009912 144.78042506 -108.92188593 138.09393219 -108.91186279 131.40743023 C-108.90070119 123.79691322 -108.89519108 116.18639545 -108.89016736 108.5758723 C-108.87970331 92.91645751 -108.86210416 77.25705898 -108.83984375 61.59765625 C-108.10884964 61.17664642 -107.37785553 60.7556366 -106.62471008 60.3218689 C-103.8580201 58.72806608 -101.09161683 57.13376696 -98.32539368 55.53915405 C-97.13835046 54.85500161 -95.95119999 54.17103521 -94.76393127 53.48727417 C-85.35844381 48.0702982 -75.99999675 42.5786743 -66.6640625 37.04296875 C-59.90321336 33.03749786 -53.12126092 29.06815189 -46.33984375 25.09765625 C-36.48012671 19.32434421 -26.63121006 13.5334497 -16.80273438 7.70703125 C-15.20179277 6.75879089 -13.59753564 5.81611478 -11.98925781 4.88037109 C-10.6036398 4.05347002 -9.23828908 3.19111439 -7.90136719 2.28759766 C-5.04728378 0.41942782 -3.43434701 -0.48657186 0 0 Z " fill="#B30BFB" transform="translate(2054.83984375,512.40234375)"/>
</svg>
