<?xml version="1.0" encoding="UTF-8"?>
<svg version="1.1" xmlns="http://www.w3.org/2000/svg" width="2262" height="2262">
<path d="M0 0 C9.53861613 6.49546514 15.06622216 14.08788278 18.6875 25 C20.77918505 36.28720613 19.79587326 48.81590462 13.59375 58.6171875 C11.86121407 60.92992151 10.02975096 63.08251668 8.1015625 65.234375 C7.16570312 66.31332031 7.16570312 66.31332031 6.2109375 67.4140625 C0.66946171 73.69581177 -5.12812672 79.747021 -10.87695312 85.83813477 C-18.93993604 94.38470738 -26.86309087 103.05213161 -34.7109375 111.796875 C-36.97706066 114.32198367 -39.25034365 116.84054128 -41.5234375 119.359375 C-46.29873855 124.668918 -51.01579694 130.0224668 -55.6484375 135.45703125 C-60.38923073 141.01559979 -65.13929967 146.54375474 -70.0859375 151.921875 C-74.11237586 156.30793146 -77.87953472 160.85179128 -81.6171875 165.484375 C-83.96562718 168.31537078 -86.40753652 171.02821098 -88.8984375 173.734375 C-92.93722836 178.12733675 -96.74275353 182.6523841 -100.4921875 187.29296875 C-103.20430043 190.60826264 -105.97971182 193.8628777 -108.7734375 197.109375 C-109.28173096 197.70081299 -109.79002441 198.29225098 -110.3137207 198.90161133 C-111.34003967 200.09565178 -112.36648786 201.28958116 -113.39306641 202.48339844 C-120.00484089 210.17390227 -126.48404576 217.92098216 -132.70336914 225.93359375 C-136.46206876 230.74728521 -140.41258896 235.3708887 -144.41552734 239.98193359 C-148.37191235 244.5625397 -152.12108791 249.2782936 -155.82861328 254.0612793 C-158.87847014 257.98041639 -162.03393689 261.7836123 -165.2734375 265.546875 C-170.02713232 271.08294168 -174.45232696 276.83144668 -178.84887695 282.65332031 C-182.76156696 287.81035514 -186.81530876 292.82577154 -190.9609375 297.796875 C-196.00274084 303.84926159 -200.81594377 310.02350524 -205.50024414 316.35571289 C-208.86891345 320.89823605 -212.34230638 325.33736825 -215.8984375 329.734375 C-220.43073786 335.34733061 -224.81428726 341.05154338 -229.12158203 346.83862305 C-233.29401522 352.44277351 -237.52838081 357.99759583 -241.7734375 363.546875 C-248.67740601 372.5861084 -255.45511628 381.71153847 -262.17626953 390.88720703 C-263.92134363 393.26559411 -265.67251367 395.63936634 -267.42578125 398.01171875 C-274.78364523 407.96874539 -282.07054024 417.97384126 -289.30273438 428.02246094 C-290.87630692 430.20369827 -292.45653344 432.37994177 -294.0390625 434.5546875 C-302.14256767 445.70264499 -310.03081381 456.99221307 -317.87646484 468.32275391 C-319.8088535 471.1053749 -321.75174796 473.88026367 -323.69921875 476.65234375 C-333.98467947 491.31358429 -343.93015422 506.18923536 -353.83074951 521.11172485 C-356.79043462 525.5713518 -359.7613183 530.02325863 -362.7421875 534.46875 C-372.65963529 549.26633652 -382.36114919 564.18890627 -391.8984375 579.234375 C-392.44193848 580.08966797 -392.98543945 580.94496094 -393.54541016 581.82617188 C-411.63024608 610.28643949 -429.28708738 639.02865583 -446.15820312 668.22607422 C-447.94612859 671.31681742 -449.74209534 674.40278742 -451.5390625 677.48828125 C-472.4560963 713.47634834 -492.01814598 750.20179149 -510.90759277 787.28912354 C-511.82199072 789.08429275 -512.73760034 790.87884464 -513.65332031 792.67333984 C-521.45431256 807.99143502 -528.80917702 823.49870255 -535.94213867 839.13818359 C-536.95558359 841.35963829 -537.97098328 843.58019437 -538.98632812 845.80078125 C-577.86992532 930.93245776 -610.45246179 1018.852901 -645.8984375 1271.234375 C-645.88441895 1272.33265625 -645.87040039 1273.4309375 -645.85595703 1274.5625 C-644.64470875 1362.07206671 -629.6793431 1450.17551312 -521.49121094 1716.54101562 C-520.07452852 1718.93660736 -518.67316131 1721.33996152 -517.28125 1723.75 C-503.7859262 1747.07376675 -488.74530268 1769.45051526 -472.8984375 1791.234375 C-472.36605469 1791.9665625 -471.83367187 1792.69875 -471.28515625 1793.453125 C-463.69051997 1803.87646327 -455.97788462 1814.18155553 -447.8984375 1824.234375 C-447.3842627 1824.8747168 -446.87008789 1825.51505859 -446.34033203 1826.17480469 C-436.81630087 1838.01332705 -427.1626979 1849.72266275 -416.9453125 1860.97265625 C-415.0733406 1863.04111375 -413.2298036 1865.12998414 -411.3984375 1867.234375 C-399.05596669 1881.37211429 -386.21113366 1895.00830955 -372.9609375 1908.296875 C-371.64754395 1909.61715698 -371.64754395 1909.61715698 -370.30761719 1910.96411133 C-365.88113631 1915.38004493 -361.40145538 1919.66061676 -356.63647461 1923.71069336 C-354.80803885 1925.31362461 -353.10047731 1926.99850804 -351.3984375 1928.734375 C-348.40971413 1931.77032425 -345.28137271 1934.57946159 -342.0546875 1937.359375 C-339.69880792 1939.40796594 -337.3933629 1941.50640502 -335.0859375 1943.609375 C-330.76934037 1947.5048407 -326.3244262 1951.20295718 -321.8046875 1954.859375 C-319.24549162 1956.95076088 -316.7225222 1959.07504864 -314.21020508 1961.22192383 C-306.93213027 1967.43886342 -299.47336107 1973.38434581 -291.8984375 1979.234375 C-291.11936035 1979.83942871 -290.3402832 1980.44448242 -289.53759766 1981.06787109 C-278.60272817 1989.55069175 -267.52265925 1997.69208762 -256.04296875 2005.421875 C-252.78763512 2007.61586075 -249.60728017 2009.88562775 -246.4609375 2012.234375 C-179.60911765 2061.36891748 -100.9970924 2097.22524381 70.1015625 2150.234375 C70.82720398 2150.39746155 71.55284546 2150.5605481 72.30047607 2150.72857666 C162.93709407 2171.04626675 256.55328469 2176.64152121 619.1015625 2103.234375 C620.31150879 2102.72970703 621.52145508 2102.22503906 622.76806641 2101.70507812 C642.90249938 2093.2852758 662.58402627 2083.99314312 682.1015625 2074.234375 C682.74818848 2073.91106201 683.39481445 2073.58774902 684.06103516 2073.25463867 C700.49637168 2065.02034807 716.59952178 2056.31046954 732.37597656 2046.86474609 C734.96324974 2045.31710992 737.55832218 2043.78357024 740.15625 2042.25390625 C758.92764399 2031.15730409 777.39681796 2019.51180356 795.05810547 2006.71289062 C797.21325628 2005.15356048 799.37736813 2003.60727947 801.54296875 2002.0625 C816.89950529 1991.08129872 831.79376751 1979.59371684 846.39306641 1967.62695312 C848.65256993 1965.78525434 850.93875628 1963.97823424 853.2265625 1962.171875 C862.58720718 1954.69909143 871.59847145 1946.79751193 880.40625 1938.68359375 C882.58513751 1936.70364814 884.78440838 1934.7580071 887.00390625 1932.82421875 C899.21408301 1922.16243397 910.69590673 1910.74339847 922.1640625 1899.296875 C922.80016449 1898.66336121 923.43626648 1898.02984741 924.09164429 1897.37713623 C933.10209682 1888.41572608 933.10209682 1888.41572608 941.60424805 1878.97680664 C944.2849695 1875.85723889 947.14765339 1872.90646744 949.9765625 1869.921875 C954.89650023 1864.6948884 959.55530932 1859.37574638 964.03515625 1853.765625 C966.10269032 1851.23299347 968.26269591 1848.8270634 970.4765625 1846.421875 C974.99809762 1841.45367177 979.11308456 1836.22633923 983.2265625 1830.921875 C985.59158078 1827.87377242 988.00536404 1824.86909605 990.43579102 1821.87304688 C1045.61541063 1753.70730703 1090.32975617 1674.34252209 1158.1015625 1481.234375 C1158.29578796 1480.47314331 1158.49001343 1479.71191162 1158.69012451 1478.9276123 C1180.39897737 1393.69558019 1190.08202166 1304.16296631 1164.1015625 1085.234375 C1163.80862305 1084.0058783 1163.80862305 1084.0058783 1163.50976562 1082.75256348 C1157.40198983 1057.25688305 1150.12030432 1032.19021988 1142.1015625 1007.234375 C1141.85899719 1006.47616455 1141.61643188 1005.7179541 1141.36651611 1004.93676758 C1113.89170953 919.07944182 1077.27393893 834.45874199 1031.05078125 750.56640625 C1027.65672908 744.47551597 1024.40998175 738.3070578 1021.14733887 732.14526367 C1014.85644285 720.27429076 1008.39953287 708.51960172 1001.6484375 696.90283203 C999.98787881 694.03826346 998.34064604 691.16630768 996.6953125 688.29296875 C982.59001048 663.69034243 968.20021474 639.24232401 953.1015625 615.234375 C952.35084473 614.04013916 952.35084473 614.04013916 951.58496094 612.82177734 C948.59259128 608.06642403 945.58882835 603.31837438 942.58105469 598.57275391 C941.09679997 596.22684769 939.61790364 593.8776483 938.140625 591.52734375 C914.07809629 553.26027603 888.83985596 515.68612416 862.83984375 478.7109375 C861.07837712 476.20134235 859.32339375 473.68733374 857.5703125 471.171875 C850.37948687 460.85840354 843.09323787 450.62140953 835.70605469 440.44775391 C834.09651931 438.22741797 832.49263463 436.00311458 830.890625 433.77734375 C819.12073668 417.42690612 807.15429551 401.2429451 794.91796875 385.23828125 C791.55722132 380.83959439 788.22770272 376.41860999 784.9140625 371.984375 C771.45006537 353.98477884 757.64502368 336.24484759 743.73828125 318.5859375 C741.96529075 316.3344168 740.19743495 314.07900736 738.43359375 311.8203125 C732.41158269 304.1163215 726.28428391 296.50449868 720.10546875 288.92578125 C717.67040071 285.93794442 715.25418837 282.93590467 712.8515625 279.921875 C708.64921611 274.6535246 704.3761013 269.44419751 700.1015625 264.234375 C698.60127933 262.40127338 697.10127842 260.56794073 695.6015625 258.734375 C694.48394531 257.36925781 694.48394531 257.36925781 693.34375 255.9765625 C691.8675139 254.17113089 690.39349514 252.36388359 688.921875 250.5546875 C684.40372147 245.00748832 679.82035843 239.52243639 675.18798828 234.07080078 C672.28936411 230.65416768 669.43015671 227.20950503 666.6015625 223.734375 C659.08946277 214.51437338 651.33940224 205.49439868 643.58935547 196.47436523 C640.64325723 193.04297676 637.7162132 189.596578 634.80419922 186.13623047 C631.09614811 181.73007069 627.35341028 177.36920427 623.4765625 173.109375 C620.46290347 169.79701702 617.59445526 166.41224696 614.7890625 162.921875 C610.38018142 157.47061399 605.6663227 152.35724002 600.88671875 147.234375 C598.12809911 144.27561478 595.45544924 141.25042415 592.80859375 138.19140625 C590.76522819 135.8487835 588.68475391 133.54164078 586.6015625 131.234375 C583.95042256 128.29759035 581.31866079 125.34834958 578.7265625 122.359375 C574.42366182 117.42194519 569.97667221 112.61656011 565.54101562 107.79882812 C563.22413909 105.28075742 560.91314614 102.75730343 558.6015625 100.234375 C557.91707031 99.48800781 557.91707031 99.48800781 557.21875 98.7265625 C554.97372816 96.27860083 552.73116898 93.82849468 550.4921875 91.375 C549.62078125 90.42109375 548.749375 89.4671875 547.8515625 88.484375 C547.41102539 88.00186279 546.97048828 87.51935059 546.51660156 87.0222168 C543.81085318 84.06871199 541.07675838 81.144564 538.3203125 78.23828125 C524.92423322 64.11054581 514.66037424 53.02439285 514.890625 32.578125 C515.59249446 21.45219425 521.08773156 11.33108522 529.19140625 3.76171875 C532.58239397 1.05031548 536.17484296 -0.93628296 540.1015625 -2.765625 C540.75382812 -3.08660156 541.40609375 -3.40757813 542.078125 -3.73828125 C551.0060126 -7.44387166 562.99021693 -7.20768358 572.1015625 -4.140625 C583.89602351 0.97268363 592.04899341 9.58971106 600.2890625 19.203125 C602.95763893 22.193771 605.81940758 24.97556798 608.6953125 27.765625 C610.6702671 29.79187713 612.53048291 31.84852558 614.3828125 33.984375 C618.17053775 38.3498199 622.11960552 42.54645473 626.1015625 46.734375 C630.65376045 51.52203147 635.12061552 56.35455858 639.44921875 61.34570312 C641.94258541 64.19568606 644.51990695 66.96455837 647.1015625 69.734375 C650.9337482 73.86549609 654.71795815 78.02480991 658.40234375 82.2890625 C660.39562678 84.5710279 662.43649277 86.80666074 664.4765625 89.046875 C667.56793051 92.46666828 670.52615282 95.95396024 673.4140625 99.546875 C677.30347408 104.3594279 681.428995 108.8803602 685.6550293 113.39331055 C689.59946689 117.62932358 693.26636951 122.04072308 696.890625 126.5546875 C699.210912 129.36690815 701.63227384 132.05234763 704.1015625 134.734375 C708.14035336 139.12733675 711.94587853 143.6523841 715.6953125 148.29296875 C718.40742543 151.60826264 721.18283682 154.8628777 723.9765625 158.109375 C724.48485596 158.70081299 724.99314941 159.29225098 725.5168457 159.90161133 C726.54316467 161.09565178 727.56961286 162.28958116 728.59619141 163.48339844 C735.20796589 171.17390227 741.68717076 178.92098216 747.90649414 186.93359375 C751.18988329 191.13856459 754.60447289 195.20602491 758.1015625 199.234375 C762.57755493 204.39033795 766.84914621 209.66542195 771.03173828 215.0612793 C774.08159514 218.98041639 777.23706189 222.7836123 780.4765625 226.546875 C785.22855419 232.08095824 789.65164692 237.8277146 794.04760742 243.64672852 C798.00716479 248.86404825 802.10270153 253.94766834 806.2890625 258.984375 C811.59128 265.36711523 816.71294236 271.84382568 821.73535156 278.45019531 C823.86162565 281.2269664 826.01821836 283.97990347 828.17138672 286.73583984 C833.66344742 293.76692539 839.09227727 300.83816368 844.42578125 307.99023438 C848.56831132 313.54078976 852.7693116 319.04527809 856.9765625 324.546875 C863.88038168 333.58622534 870.65823871 342.71153496 877.37939453 351.88720703 C879.12446863 354.26559411 880.87563867 356.63936634 882.62890625 359.01171875 C889.98677023 368.96874539 897.27366524 378.97384126 904.50585938 389.02246094 C906.07943192 391.20369827 907.65965844 393.37994177 909.2421875 395.5546875 C916.67484891 405.78005369 923.93006776 416.12057665 931.12890625 426.51171875 C933.62802252 430.11806138 936.13872324 433.71550691 938.66796875 437.30078125 C946.87208907 448.93190974 954.81418213 460.72010647 962.67724609 472.58398438 C965.44109881 476.74956595 968.21862634 480.905989 970.99609375 485.0625 C985.06530193 506.12092328 999.03754288 527.22325625 1012.49755859 548.67822266 C1013.60086251 550.43645584 1014.70542614 552.19389898 1015.81103516 553.95068359 C1030.99305393 578.07604913 1045.74207143 602.43940417 1060.08836365 627.06929016 C1062.2877755 630.84423892 1064.49927884 634.61181504 1066.71875 638.375 C1084.78569667 669.05932474 1101.6002881 700.48065205 1117.88989258 732.13916016 C1120.81410419 737.82124619 1123.75435301 743.49171311 1126.78173828 749.11962891 C1131.99765535 758.8206157 1136.72963636 768.73510471 1141.42773438 778.6953125 C1142.95101018 781.91605435 1144.48327618 785.13228449 1146.01904297 788.34707642 C1168.63583166 835.70464323 1189.22199574 883.88213673 1207.1015625 933.234375 C1207.40126953 934.06066406 1207.70097656 934.88695312 1208.00976562 935.73828125 C1236.67996904 1014.90503648 1258.24094732 1096.98754477 1270.3046875 1237.15234375 C1270.3117077 1238.84534736 1270.31879454 1240.53835069 1270.32594299 1242.23135376 C1270.34539234 1247.62819792 1270.35037866 1253.02499935 1270.3515625 1258.421875 C1270.35200436 1259.34168026 1270.35244621 1260.26148552 1270.35290146 1261.20916367 C1270.35985068 1288.78523252 1270.09113542 1316.21815997 1267.35479736 1343.68286133 C1267.08921016 1346.35883319 1266.83482782 1349.03572796 1266.58154297 1351.71289062 C1259.59194419 1424.72872651 1244.52806552 1496.41251668 1222.1015625 1566.234375 C1221.86864502 1566.95999634 1221.63572754 1567.68561768 1221.39575195 1568.43322754 C1206.92969625 1613.32169487 1188.49213683 1656.81579418 1167.65039062 1699.08984375 C1166.24374085 1701.94571529 1164.85038443 1704.80760805 1163.4609375 1707.671875 C1157.64988559 1719.56909924 1151.20948548 1731.06211944 1144.62841797 1742.54785156 C1142.83333489 1745.70632521 1141.08584142 1748.88885455 1139.34448242 1752.07714844 C1129.16771079 1770.67527752 1117.77249486 1788.54672493 1106.1015625 1806.234375 C1105.40933594 1807.29269531 1104.71710938 1808.35101562 1104.00390625 1809.44140625 C1087.35067713 1834.72178591 1069.28213808 1859.08515544 1050.12890625 1882.51953125 C1047.73866368 1885.44535296 1045.38078277 1888.39449424 1043.0390625 1891.359375 C1035.72994943 1900.51889645 1027.98507609 1909.33046594 1020.11328125 1918.0078125 C1018.25421581 1920.06541891 1016.42227892 1922.14284263 1014.6015625 1924.234375 C1001.14957521 1939.63857814 987.04438181 1954.38583115 972.6015625 1968.859375 C972.04139435 1969.42213135 971.4812262 1969.9848877 970.90408325 1970.56469727 C965.33884585 1976.15022678 959.78361645 1981.70510789 953.75390625 1986.79638672 C951.95002085 1988.36625744 950.27551862 1990.02734265 948.6015625 1991.734375 C945.61283913 1994.77032425 942.48449771 1997.57946159 939.2578125 2000.359375 C936.90193292 2002.40796594 934.5964879 2004.50640502 932.2890625 2006.609375 C927.99547618 2010.48471243 923.57068248 2014.1565881 919.07421875 2017.79296875 C915.76403984 2020.51157823 912.52681274 2023.3054439 909.2890625 2026.109375 C903.01609192 2031.52049546 896.57531536 2036.67428198 890.0234375 2041.7421875 C887.95892391 2043.34512285 885.90473774 2044.96069558 883.8515625 2046.578125 C873.46157526 2054.74437032 862.87279316 2062.57963307 852.1015625 2070.234375 C851.37549805 2070.75273926 850.64943359 2071.27110352 849.90136719 2071.80517578 C840.09242736 2078.80748607 830.18286847 2085.6302696 820.1015625 2092.234375 C819.4528418 2092.66041016 818.80412109 2093.08644531 818.13574219 2093.52539062 C786.11710246 2114.51867068 752.92340297 2133.28280035 718.88818359 2150.79931641 C717.10028582 2151.72005086 715.31400215 2152.64393031 713.52978516 2153.57177734 C637.70085667 2192.9436366 554.0787214 2220.11911098 294.61328125 2256.4375 C292.79248531 2256.44452224 290.97168962 2256.45160906 289.15089417 2256.45875549 C283.36361334 2256.47815627 277.57637257 2256.4831896 271.7890625 2256.484375 C270.80316635 2256.48481686 269.8172702 2256.48525871 268.80149841 2256.48571396 C239.12817124 2256.49268951 209.65151378 2256.20260519 180.1015625 2253.234375 C178.30650999 2253.06070279 176.51142448 2252.88737143 174.71630859 2252.71435547 C134.87867432 2248.82064686 95.20285854 2242.82097844 56.1015625 2234.234375 C55.36305054 2234.07257751 54.62453857 2233.91078003 53.86364746 2233.74407959 C15.94805745 2225.40305672 -21.2407814 2214.63449824 -57.91381836 2201.9206543 C-59.81403997 2201.26355958 -61.71654179 2200.61307007 -63.61914062 2199.96289062 C-101.41973006 2187.02946581 -138.03664721 2170.78363585 -173.8984375 2153.234375 C-174.84025879 2152.77708008 -175.78208008 2152.31978516 -176.75244141 2151.84863281 C-190.21292043 2145.30563881 -203.26568675 2138.19436932 -216.24414062 2130.74511719 C-219.38968395 2128.95477299 -222.56035194 2127.21416218 -225.73681641 2125.47949219 C-244.33705289 2115.30335197 -262.20953414 2103.90613432 -279.8984375 2092.234375 C-280.95675781 2091.54214844 -282.01507812 2090.84992187 -283.10546875 2090.13671875 C-310.89422939 2071.83111559 -337.43851056 2051.74096052 -363.16308594 2030.65380859 C-364.70831156 2029.38988882 -366.25996531 2028.13383711 -367.8125 2026.87890625 C-378.95808808 2017.85393891 -389.72328676 2008.40056671 -400.25 1998.6640625 C-402.53937147 1996.56378365 -404.85805368 1994.51272312 -407.2109375 1992.484375 C-410.30562718 1989.80443754 -413.18495883 1986.97170715 -416.05029297 1984.05004883 C-417.71484188 1982.41474496 -419.42079619 1980.91713483 -421.20703125 1979.41796875 C-427.25435051 1974.15803912 -432.85249028 1968.42920421 -438.50756836 1962.75561523 C-440.4564062 1960.80141876 -442.41053022 1958.85262353 -444.36523438 1956.90429688 C-455.68778518 1945.58716468 -455.68778518 1945.58716468 -460.53295898 1939.81420898 C-462.07442174 1938.03076442 -463.71582321 1936.38454219 -465.3984375 1934.734375 C-468.43438675 1931.74565163 -471.24352409 1928.61731021 -474.0234375 1925.390625 C-476.07202844 1923.03474542 -478.17046752 1920.7293004 -480.2734375 1918.421875 C-484.14877493 1914.12828868 -487.8206506 1909.70349498 -491.45703125 1905.20703125 C-494.17564073 1901.89685234 -496.9695064 1898.65962524 -499.7734375 1895.421875 C-505.18455796 1889.14890442 -510.33834448 1882.70812786 -515.40625 1876.15625 C-517.00918535 1874.09173641 -518.62475808 1872.03755024 -520.2421875 1869.984375 C-528.40852248 1859.59427368 -536.24176061 1849.00433741 -543.8984375 1838.234375 C-544.91790306 1836.80854678 -545.9374335 1835.38276495 -546.95703125 1833.95703125 C-562.57564488 1812.04744654 -577.29106824 1789.44833453 -590.8984375 1766.234375 C-591.31125977 1765.53344727 -591.72408203 1764.83251953 -592.14941406 1764.11035156 C-599.68139084 1751.3043185 -606.88313968 1738.33005477 -613.8984375 1725.234375 C-614.37361816 1724.34862793 -614.84879883 1723.46288086 -615.33837891 1722.55029297 C-652.70554725 1652.62305342 -680.97867406 1578.26148147 -726.1484375 1354.109375 C-726.22556976 1353.34241302 -726.30270203 1352.57545105 -726.38217163 1351.7852478 C-726.96178584 1345.94039 -727.45089857 1340.09075522 -727.8984375 1334.234375 C-727.98564056 1333.10159119 -728.07284363 1331.96880737 -728.16268921 1330.80169678 C-729.77632904 1309.14630598 -730.24525256 1287.564183 -730.21411133 1265.85302734 C-730.20948953 1262.36786965 -730.21639515 1258.88306189 -730.23461914 1255.39794922 C-730.39888367 1223.61765212 -728.90140708 1191.99743272 -724.5859375 1160.484375 C-724.48172485 1159.70083649 -724.37751221 1158.91729797 -724.2701416 1158.11001587 C-712.76214521 1071.65538931 -688.71801621 987.18513318 -619.8984375 817.234375 C-619.47159668 816.29577637 -619.04475586 815.35717773 -618.60498047 814.39013672 C-601.90951249 777.70066779 -584.52906332 741.00899145 -564.9453125 705.765625 C-562.61350419 701.56276623 -560.34511868 697.32857458 -558.1015625 693.078125 C-551.31940526 680.23559519 -544.43803612 667.50424094 -537.04516602 654.99829102 C-532.90447663 647.9910157 -528.9072214 640.91522791 -524.9609375 633.796875 C-518.4480724 622.08103564 -511.59711779 610.58779074 -504.64746094 599.12695312 C-503.02562402 596.44471921 -501.41578575 593.75585316 -499.8125 591.0625 C-492.03354837 577.99841429 -483.99867627 565.10128421 -475.8984375 552.234375 C-475.36718262 551.38987793 -474.83592773 550.54538086 -474.28857422 549.67529297 C-471.33995575 544.99029744 -468.38227142 540.31113744 -465.41845703 535.63574219 C-463.83364407 533.13201262 -462.25462729 530.62468336 -460.67578125 528.1171875 C-452.53497478 515.21899739 -444.13861926 502.50094722 -435.64613342 489.83253479 C-432.50294221 485.1422816 -429.37267733 480.44352448 -426.24609375 475.7421875 C-425.27475787 474.28229577 -424.30340372 472.82241621 -423.33203125 471.36254883 C-421.92135186 469.242402 -420.5109187 467.12209478 -419.1015625 465.00106812 C-412.46280911 455.01197143 -405.72294717 445.09748024 -398.8984375 435.234375 C-398.18131592 434.19788818 -397.46419434 433.16140137 -396.7253418 432.09350586 C-394.80682701 429.32589386 -392.88497689 426.56064871 -390.9609375 423.796875 C-390.2805542 422.81952393 -389.6001709 421.84217285 -388.89916992 420.83520508 C-379.2347997 406.96459222 -369.45460477 393.18540394 -359.53515625 379.49609375 C-357.91334686 377.25497767 -356.29578618 375.01086185 -354.6796875 372.765625 C-347.40680153 362.66488543 -340.05334945 352.62640069 -332.65576172 342.61669922 C-330.9208396 340.2647445 -329.19188606 337.90852661 -327.46484375 335.55078125 C-319.37463941 324.51502483 -311.13433269 313.60118518 -302.81494141 302.73730469 C-300.99071263 300.35488514 -299.1687334 297.97076658 -297.34765625 295.5859375 C-294.20122218 291.466215 -291.0511136 287.34932233 -287.8984375 283.234375 C-287.46901855 282.67379395 -287.03959961 282.11321289 -286.59716797 281.53564453 C-276.58921903 268.47818206 -266.53019723 255.45955036 -256.22485352 242.63500977 C-252.93998025 238.54545461 -249.69145186 234.4294578 -246.4609375 230.296875 C-240.92140576 223.22075054 -235.25469019 216.25093657 -229.57324219 209.28857422 C-227.31687512 206.52107094 -225.06651173 203.74871516 -222.81616211 200.97631836 C-217.19295117 194.04917445 -211.5592073 187.13088267 -205.8984375 180.234375 C-205.12330811 179.28908936 -205.12330811 179.28908936 -204.33251953 178.32470703 C-197.85151149 170.42360935 -191.34892137 162.5448934 -184.7265625 154.76171875 C-181.95005097 151.49378925 -179.22304143 148.19100961 -176.5234375 144.859375 C-171.87816695 139.15422097 -167.05686954 133.61058885 -162.2265625 128.0625 C-159.07902064 124.44703089 -155.95319817 120.81346282 -152.8359375 117.171875 C-152.34722168 116.60138428 -151.85850586 116.03089355 -151.35498047 115.44311523 C-148.83241448 112.4973474 -146.31326787 109.5486988 -143.796875 106.59765625 C-139.32533266 101.35948327 -134.84671276 96.14139885 -130.2109375 91.046875 C-127.27600999 87.81897789 -124.49427724 84.51929147 -121.7734375 81.109375 C-117.24598627 75.50585701 -112.35493657 70.28496567 -107.39013672 65.06787109 C-103.6713652 61.15601899 -100.06144571 57.17491675 -96.52392578 53.09838867 C-94.27481437 50.51924094 -91.96665333 48.00170139 -89.6484375 45.484375 C-88.69397717 44.44664516 -87.73955106 43.40888384 -86.78515625 42.37109375 C-86.3061084 41.8507959 -85.82706055 41.33049805 -85.33349609 40.79443359 C-83.49103122 38.79148182 -81.65331493 36.78421137 -79.81591797 34.77661133 C-78.44752496 33.28222754 -77.07743231 31.78941735 -75.70703125 30.296875 C-73.7984746 28.21797115 -71.8958222 26.13384699 -69.99609375 24.046875 C-67.50406476 21.31498256 -64.99096036 18.60389939 -62.46191406 15.90625 C-61.40181994 14.77265779 -60.34662074 13.63447183 -59.29589844 12.4921875 C-43.47357108 -4.63360279 -21.50996856 -13.10310753 0 0 Z " fill="#35C2D6" transform="translate(860.8984375,5.765625)"/>
<path d="M0 0 C4.16593583 3.18300389 7.80886686 6.79251895 11.47999573 10.5252533 C12.2704982 11.31762894 13.06100067 12.11000458 13.87545776 12.9263916 C15.53176501 14.58937078 17.18449663 16.2559184 18.83375549 17.92588806 C21.34024125 20.46358601 23.85728793 22.99040896 26.3764801 25.51548767 C27.99494361 27.14312168 29.61280284 28.77135682 31.22999573 30.4002533 C31.97182602 31.14633347 32.71365631 31.89241364 33.47796631 32.66110229 C37.49562118 36.73327956 41.36060881 40.88670312 45.07894897 45.23461914 C47.78669803 48.31622669 50.72583338 51.16090751 53.65577698 54.02915955 C57.9549538 58.27873265 62.11117774 62.55707631 66.01905823 67.1736908 C68.6151075 70.11670608 71.43396661 72.82889575 74.24952698 75.56040955 C76.22939381 77.59170149 78.0951086 79.65404709 79.95265198 81.79478455 C83.65870148 86.06548965 87.5135964 90.17841004 91.40577698 94.27915955 C97.88840689 101.13807017 104.29644521 108.05595563 110.65577698 115.02915955 C111.61227918 116.07001055 112.56932326 117.11036382 113.52687073 118.1502533 C118.00610634 123.01668605 122.44868212 127.90558856 126.78077698 132.90415955 C129.20128137 135.64739786 131.67797113 138.33782868 134.15577698 141.02915955 C139.33737618 146.66363799 144.40245267 152.37894031 149.36280823 158.20884705 C154.26703858 163.96595221 159.19517408 169.67548835 164.34327698 175.21665955 C168.58703305 179.78627816 172.56544453 184.52372885 176.47608948 189.38072205 C178.63335096 192.00191073 180.86888698 194.52070235 183.15577698 197.02915955 C187.0746895 201.32907745 190.74748567 205.78835501 194.40577698 210.31040955 C196.59079267 212.95063684 198.84749088 215.49645675 201.15577698 218.02915955 C205.00088573 222.25280232 208.62335869 226.61613885 212.21437073 231.0565033 C214.93296837 234.36666778 217.72647794 237.60424165 220.53077698 240.84165955 C225.02051814 246.03574351 229.3070265 251.35144834 233.51075745 256.77842712 C236.77516489 260.96909412 240.17339056 265.01842649 243.65577698 269.02915955 C248.15069086 274.20779864 252.4463996 279.50419209 256.65187073 284.91978455 C259.58205914 288.68596332 262.58416831 292.37617384 265.65577698 296.02915955 C269.67611565 300.81678683 273.56807805 305.68657104 277.41407776 310.61387634 C280.26192075 314.26096552 283.1367492 317.88387406 286.03858948 321.48814392 C291.34703962 328.0820172 296.53971896 334.753814 301.66578674 341.49034119 C305.56585033 346.61368259 309.5063896 351.70351551 313.46827698 356.77915955 C325.52050684 372.24309755 337.34810657 387.86554958 348.93360901 403.68199158 C350.67868311 406.06037865 352.42985314 408.43415088 354.18312073 410.8065033 C361.53349178 420.75339013 368.81321655 430.74813628 376.0381012 440.78648376 C377.67787071 443.05978934 379.32409007 445.32828883 380.97218323 447.5955658 C387.04113063 455.95164781 393.01249263 464.36117993 398.83131409 472.89341736 C400.9824944 476.04646597 403.14370545 479.19237526 405.31063843 482.33460999 C412.59253677 492.89865246 419.79010255 503.51944463 426.96827698 514.15415955 C427.60951508 515.10414825 428.25075317 516.05413696 428.91142273 517.03291321 C437.51081988 529.78257732 446.0151098 542.56784434 454.1474762 555.62193298 C455.78114255 558.22924121 457.43662876 560.82171008 459.09718323 563.41197205 C467.48549348 576.49773604 475.62860105 589.71920205 483.65577698 603.02915955 C484.16850159 603.87687927 484.6812262 604.724599 485.20948792 605.5980072 C506.6958663 641.12671942 527.05893909 677.28956208 546.16017151 714.15562439 C547.63573191 716.99064658 549.12564637 719.81761454 550.62062073 722.6424408 C589.67015496 796.55120374 621.23105817 875.64517858 624.37895203 1340.49966431 C611.35124787 1382.36399751 595.02973606 1422.70434931 575.65577698 1462.02915955 C574.82626526 1463.72685486 574.82626526 1463.72685486 573.97999573 1465.45884705 C566.07203959 1481.63177766 557.78459504 1497.50824928 548.65577698 1513.02915955 C547.86082825 1514.38557556 547.86082825 1514.38557556 547.04981995 1515.76939392 C528.93570895 1546.5157859 508.45878012 1575.80468445 486.65577698 1604.02915955 C486.13064514 1604.71171814 485.60551331 1605.39427673 485.06446838 1606.09751892 C479.56530364 1613.23736954 473.89162945 1620.1863931 467.98805237 1626.99620056 C465.02979328 1630.40942907 462.15842066 1633.87070528 459.34327698 1637.40415955 C454.4252759 1643.46463637 449.06614455 1649.08839061 443.69483948 1654.7440033 C440.61360871 1657.98915008 437.60188497 1661.29122623 434.59718323 1664.60728455 C428.55024868 1671.24429811 422.23375539 1677.60284274 415.8752594 1683.94004822 C413.95652193 1685.85338148 412.04324944 1687.77206459 410.13038635 1689.69126892 C404.66556308 1695.15905536 399.22125007 1700.59322862 393.32691956 1705.60313416 C390.58157399 1707.9458023 387.97499601 1710.43565111 385.34327698 1712.90415955 C380.5458207 1717.36742662 375.62415325 1721.59890383 370.51124573 1725.70103455 C367.88366212 1727.84335989 365.3216218 1730.04069706 362.76661682 1732.26792908 C354.98272784 1739.04462004 346.87622497 1745.32172017 338.63526917 1751.53013611 C336.85342456 1752.87948563 335.08329576 1754.24185237 333.31983948 1755.61509705 C306.54094881 1776.45811271 278.02231219 1795.04795455 248.65577698 1812.02915955 C247.66658264 1812.6015033 246.67738831 1813.17384705 245.65821838 1813.76353455 C216.80827642 1830.36405194 187.2511032 1844.94900133 156.65577698 1858.02915955 C155.44438049 1858.5484906 154.23298401 1859.06782166 152.98487854 1859.60289001 C134.18421163 1867.60540437 115.01082319 1874.5062032 95.65577698 1881.02915955 C94.95601746 1881.26548096 94.25625793 1881.50180237 93.53529358 1881.74528503 C38.40941288 1900.30827804 -18.92092347 1912.06463994 -76.71922302 1918.27915955 C-77.7722612 1918.39485794 -77.7722612 1918.39485794 -78.84657288 1918.51289368 C-105.96652999 1921.44915911 -133.16894158 1922.41655268 -160.42949295 1922.34721756 C-162.7048932 1922.34153934 -164.98028587 1922.33874245 -167.25569153 1922.33613586 C-192.3758406 1922.29441394 -217.3386148 1921.57413007 -242.34422302 1919.02915955 C-243.18722961 1918.94430298 -244.03023621 1918.85944641 -244.89878845 1918.77201843 C-330.27613744 1910.08995199 -413.66918138 1888.53477878 -577.62156677 1810.64927673 C-580.1129528 1809.16677694 -582.61584945 1807.70705795 -585.12547302 1806.25572205 C-607.99246485 1792.93125102 -630.18254262 1777.91600459 -651.34422302 1762.02915955 C-652.16745056 1761.4141156 -652.9906781 1760.79907166 -653.83885193 1760.16539001 C-665.94416565 1751.10257637 -677.76420832 1741.75267678 -689.34422302 1732.02915955 C-690.52902218 1731.0407624 -691.71391422 1730.05247658 -692.89891052 1729.0643158 C-698.92975125 1724.01635633 -704.83102629 1718.84577974 -710.61375427 1713.51353455 C-712.78503323 1711.53795026 -714.97709632 1709.59967078 -717.19187927 1707.6736908 C-728.54990984 1697.75953406 -739.29868529 1687.17253264 -749.96922302 1676.52915955 C-750.89299744 1675.60997742 -751.81677185 1674.69079529 -752.76853943 1673.74375916 C-757.24877566 1669.253309 -761.59106333 1664.71080346 -765.72166443 1659.89683533 C-768.45807149 1656.74704387 -771.34958784 1653.74455555 -774.21922302 1650.71665955 C-779.05402501 1645.57546234 -783.67162295 1640.34291445 -788.07859802 1634.82603455 C-790.72358575 1631.5608428 -793.46734147 1628.39163907 -796.21922302 1625.21665955 C-828.9304282 1587.26053283 -856.94082147 1544.70011524 -881.34422302 1501.02915955 C-882.05264343 1499.76893982 -882.05264343 1499.76893982 -882.77537537 1498.48326111 C-902.85923285 1462.66693385 -919.92936856 1425.47230841 -934.34422302 1387.02915955 C-934.79362244 1385.83065369 -935.24302185 1384.63214783 -935.70603943 1383.39732361 C-963.30173991 1309.13659858 -979.18272865 1230.67765822 -947.34422302 889.02915955 C-947.09047913 888.27006287 -946.83673523 887.51096619 -946.57530212 886.72886658 C-935.2284311 852.83772029 -922.1435668 819.56306895 -907.34422302 787.02915955 C-906.90304138 786.05205017 -906.46185974 785.0749408 -906.00730896 784.06822205 C-889.92041833 748.44807601 -873.00835901 712.90247126 -853.88719177 678.7986908 C-852.11365191 675.615299 -850.36837567 672.41687587 -848.62547302 669.21665955 C-840.83115638 654.927781 -832.77823723 640.82953407 -824.41844177 626.8611908 C-821.59774483 622.14728957 -818.81049189 617.41598185 -816.05125427 612.6658783 C-807.96835852 598.75823498 -799.68292912 585.03130514 -790.94676208 571.5198822 C-788.89728728 568.33451627 -786.88170153 565.12857531 -784.86839294 561.92027283 C-767.68411485 534.5436828 -749.72259743 507.61767631 -731.34422302 481.02915955 C-730.71806091 480.12214294 -730.0918988 479.21512634 -729.44676208 478.28062439 C-722.06461492 467.59650657 -714.62850939 456.95832474 -706.99436951 446.45249939 C-703.4189044 441.53048809 -699.89993022 436.57230807 -696.40672302 431.59165955 C-686.45605641 417.43223682 -676.05827719 403.59583321 -665.65232849 389.76939392 C-663.79424803 387.29750189 -661.94515867 384.81890423 -660.09422302 382.34165955 C-650.38922685 369.40166466 -640.567583 356.54509424 -630.67381287 343.74888611 C-629.7072987 342.4987712 -628.74158439 341.24803778 -627.77635193 339.99693298 C-620.87323977 331.05412928 -613.89631649 322.18388021 -606.74729919 313.43614197 C-604.07309195 310.16282013 -601.42193055 306.87954599 -598.84422302 303.52915955 C-595.12090163 298.69068496 -591.24588787 293.97751815 -587.38548279 289.24839783 C-583.79558969 284.84166432 -580.2688123 280.39246709 -576.78172302 275.90415955 C-572.56669036 270.49120261 -568.17493289 265.2571988 -563.6860199 260.06993103 C-559.91647066 255.71276838 -556.25360859 251.27923473 -552.62156677 246.8065033 C-549.5993708 243.12077201 -546.51275095 239.49171133 -543.42552185 235.86045837 C-540.56562807 232.49045639 -537.7515932 229.08880698 -534.96922302 225.65415955 C-530.32395247 219.94900551 -525.50265507 214.40537339 -520.67234802 208.85728455 C-517.52480616 205.24181544 -514.3989837 201.60824736 -511.28172302 197.96665955 C-510.54864929 197.11092346 -510.54864929 197.11092346 -509.80076599 196.23789978 C-507.2782 193.29213194 -504.75905339 190.34348335 -502.24266052 187.3924408 C-497.77111818 182.15426781 -493.29249828 176.9361834 -488.65672302 171.84165955 C-485.55454295 168.43094438 -482.61184028 164.93182194 -479.71922302 161.34165955 C-476.66122699 157.56163667 -473.50663516 154.07167772 -470.01609802 150.69322205 C-467.61673974 148.30507572 -465.43034903 145.7508658 -463.21922302 143.1893158 C-459.65446365 139.08241593 -455.98750478 135.0663096 -452.34422302 131.02915955 C-451.62234802 130.22478455 -450.90047302 129.42040955 -450.15672302 128.59165955 C-445.18426999 123.05092617 -440.16533773 117.55595357 -435.11766052 112.08384705 C-433.02482848 109.79843013 -430.98235425 107.47367953 -428.94969177 105.1346283 C-425.48242455 101.15885366 -421.90353195 97.30148758 -418.28172302 93.46665955 C-416.95603554 92.05796219 -415.63051857 90.64910435 -414.30516052 89.24009705 C-413.64226013 88.53594666 -412.97935974 87.83179626 -412.29637146 87.10630798 C-409.89439289 84.55052588 -407.50155479 81.98634636 -405.11058044 79.42027283 C-402.79727089 76.93758353 -400.48067612 74.45797003 -398.16404724 71.9783783 C-396.91999656 70.64587217 -395.67687487 69.31249828 -394.43455505 67.9783783 C-386.38969063 59.34271602 -378.26087494 50.82311872 -369.83494568 42.55674744 C-366.74468944 39.50886217 -363.77037064 36.42142309 -360.93406677 33.1346283 C-356.96495233 28.53696394 -352.74839563 24.21239275 -348.46922302 19.90415955 C-347.71769958 19.13201111 -346.96617615 18.35986267 -346.19187927 17.5643158 C-336.30706003 7.61167618 -325.62834834 1.03882697 -311.28172302 0.77915955 C-299.17724349 0.9578834 -289.31971075 4.79209774 -280.27781677 12.8768158 C-271.98486879 21.59963582 -268.44479448 32.96515734 -268.31297302 44.8455658 C-269.24178509 61.16943788 -278.09395596 71.15285122 -289.34422302 82.09165955 C-294.29925081 86.93445097 -299.08786827 91.8049079 -303.60203552 97.06211853 C-307.31573447 101.25512195 -311.38653933 105.10897937 -315.38328552 109.02915955 C-319.37534739 112.97498132 -323.15377119 117.02629937 -326.81687927 121.27915955 C-329.12647406 123.92544718 -331.63207168 126.34156514 -334.15672302 128.77915955 C-336.04707423 130.72352078 -337.82591157 132.70828072 -339.60203552 134.75572205 C-343.36064122 139.08302461 -347.27270841 143.2486084 -351.21922302 147.40415955 C-356.28260819 152.75929573 -361.30332037 158.14041352 -366.20750427 163.6424408 C-368.7296463 166.45967805 -371.28518936 169.245503 -373.84422302 172.02915955 C-380.47368069 179.24780005 -387.04212975 186.51557999 -393.47312927 193.91197205 C-395.68905261 196.4193425 -397.9546321 198.87817543 -400.21922302 201.34165955 C-403.50854541 204.94307125 -406.66439938 208.60223229 -409.71922302 212.40415955 C-413.58511811 217.19896229 -417.691456 221.69631783 -421.89793396 226.18833923 C-425.84226862 230.42428818 -429.50910303 234.83559855 -433.13328552 239.34947205 C-435.45357253 242.16169269 -437.87493436 244.84713217 -440.34422302 247.52915955 C-444.36028149 251.89685447 -448.13807757 256.3976519 -451.86375427 261.01353455 C-454.79390791 264.57586306 -457.81188269 268.05383916 -460.84422302 271.52915955 C-465.33827484 276.68338009 -469.72860432 281.90104232 -474.03172302 287.21665955 C-476.77410091 290.55198401 -479.58608912 293.82252734 -482.40672302 297.09165955 C-486.47637103 301.81163832 -490.43478393 306.59414165 -494.29734802 311.4861908 C-496.69516778 314.46516152 -499.17270277 317.37226287 -501.65672302 320.27915955 C-505.92609232 325.28599884 -510.03599984 330.39517629 -514.0778656 335.58677673 C-517.60906196 340.11558124 -521.21213445 344.58097338 -524.84422302 349.02915955 C-530.30963215 355.72903057 -535.67978826 362.49701628 -541.00144958 369.31138611 C-543.27656261 372.22187615 -545.5609961 375.12503386 -547.84422302 378.02915955 C-548.76350124 379.19972666 -549.68277209 380.37029957 -550.60203552 381.5408783 C-552.40632245 383.83753451 -554.21379453 386.13162647 -556.02391052 388.4236908 C-562.61586572 396.77781624 -569.10158216 405.20932256 -575.54930115 413.67515564 C-577.44120801 416.1563534 -579.33772709 418.63397785 -581.23484802 421.1111908 C-589.47834673 431.88607095 -597.60526875 442.73753438 -605.62205505 453.68199158 C-607.36712916 456.06037865 -609.11829919 458.43415088 -610.87156677 460.8065033 C-622.35360495 476.34400749 -633.67685148 491.98862316 -644.77879333 507.80015564 C-646.4107456 510.12388056 -648.0455006 512.44562002 -649.68016052 514.7674408 C-669.142528 542.44872278 -688.13049335 570.50823329 -706.34422302 599.02915955 C-706.87144958 599.85222595 -707.39867615 600.67529236 -707.94187927 601.52330017 C-722.84811881 624.79944414 -737.20969239 648.36254229 -751.24729919 672.16990662 C-752.26463775 673.8942649 -753.2838436 675.61752115 -754.3032074 677.34068298 C-768.27909289 700.97881579 -781.43680502 725.00762998 -793.95750427 749.44322205 C-796.34066963 754.09320405 -798.76270812 758.71862276 -801.22874451 763.32505798 C-834.84735728 826.22844371 -861.85921102 894.12496273 -880.34422302 963.02915955 C-880.64135193 964.11938416 -880.93848083 965.20960876 -881.24461365 966.33287048 C-891.79280913 1005.31982828 -899.39091972 1046.73914254 -899.54734802 1087.20103455 C-899.55436234 1088.42553818 -899.56137665 1089.65004181 -899.56860352 1090.91165161 C-899.58606924 1094.8675045 -899.59304197 1098.82327632 -899.59422302 1102.77915955 C-899.59466488 1103.45610493 -899.59510674 1104.13305031 -899.59556198 1104.83050919 C-899.60370835 1128.66629552 -898.90663217 1152.31591259 -896.34422302 1176.02915955 C-896.25936646 1176.81669617 -896.17450989 1177.60423279 -896.08708191 1178.41563416 C-887.24817871 1259.26481694 -865.47094676 1338.6445024 -830.68260193 1412.19664001 C-829.32282305 1415.07445005 -827.97948435 1417.9595643 -826.63719177 1420.8455658 C-820.38528356 1434.20262866 -813.61643119 1447.20047169 -806.34422302 1460.02915955 C-805.72837341 1461.11938416 -805.1125238 1462.20960876 -804.47801208 1463.33287048 C-796.42077945 1477.52590348 -787.97874746 1491.39730407 -778.90672302 1504.96665955 C-778.29679504 1505.87919495 -778.29679504 1505.87919495 -777.67454529 1506.81016541 C-769.88743064 1518.42685318 -761.82638613 1529.86127458 -753.40672302 1541.02915955 C-752.91003113 1541.68940125 -752.41333923 1542.34964294 -751.90159607 1543.02989197 C-737.49223449 1562.11687687 -722.30672333 1580.57144761 -706.04344177 1598.1111908 C-704.28351882 1600.01374136 -702.53546696 1601.92736329 -700.80125427 1603.8533783 C-693.96156479 1611.4292625 -686.80116182 1618.67996357 -679.59422302 1625.90415955 C-679.09853821 1626.40243256 -678.60285339 1626.90070557 -678.09214783 1627.41407776 C-672.91420545 1632.61333251 -667.69869252 1637.71978718 -662.12303162 1642.49546814 C-659.35128654 1644.88527085 -656.70054895 1647.40087159 -654.03172302 1649.90415955 C-649.21666859 1654.38336114 -644.27890458 1658.63685725 -639.14891052 1662.75572205 C-636.60110112 1664.82093803 -634.10128853 1666.9289164 -631.61058044 1669.06187439 C-625.25441884 1674.50190918 -618.74816397 1679.68972831 -612.06736755 1684.72691345 C-610.29843614 1686.06376244 -608.53790428 1687.41116266 -606.77781677 1688.7596283 C-575.69915267 1712.45462752 -542.55287872 1733.14590888 -508.10203552 1751.55406189 C-506.27928681 1752.529013 -504.45892013 1753.50843209 -502.64109802 1754.49253845 C-430.19707182 1793.68507069 -349.24765676 1818.74237938 -245.34422302 1833.27915955 C-243.41860535 1833.50599426 -243.41860535 1833.50599426 -241.4540863 1833.7374115 C-237.0875508 1834.21874689 -232.72003844 1834.6424591 -228.34422302 1835.02915955 C-226.87056778 1835.15996414 -226.87056778 1835.15996414 -225.36714172 1835.29341125 C-205.18301707 1837.02214283 -185.09897437 1837.39312535 -164.8535347 1837.34701538 C-162.36852619 1837.34157594 -159.8835272 1837.33920826 -157.39851379 1837.33714294 C-133.5864044 1837.3062997 -110.01675749 1836.80747142 -86.34422302 1834.02915955 C-84.3584604 1833.81794461 -82.37269651 1833.60673494 -80.38671875 1833.39755249 C2.61268764 1824.55705921 84.01039627 1800.35159571 209.65577698 1737.02915955 C211.18476624 1736.11964539 211.18476624 1736.11964539 212.74464417 1735.1917572 C245.66415053 1715.4930365 277.58456739 1693.56544913 306.71046448 1668.5408783 C309.50956776 1666.15384459 312.35262788 1663.83555803 315.21827698 1661.52915955 C320.28833477 1657.40511837 325.08692113 1653.03517088 329.87452698 1648.59165955 C332.1636492 1646.48258065 334.48052862 1644.42937243 336.84327698 1642.40415955 C340.55994751 1639.18766207 343.98275091 1635.71828203 347.43312073 1632.2205658 C349.46783648 1630.21445765 351.55163134 1628.32802439 353.71827698 1626.46665955 C359.90011766 1621.14340785 365.43211878 1615.34437799 370.74171448 1609.16197205 C372.96029525 1606.68983918 375.29284367 1604.36353777 377.65577698 1602.02915955 C381.87222411 1597.85069843 385.81307544 1593.5495319 389.65577698 1589.02915955 C390.51558167 1588.03529236 391.37538635 1587.04142517 392.26124573 1586.0174408 C405.69434044 1570.48053146 418.48773608 1554.57875096 430.65577698 1538.02915955 C431.21651917 1537.26990173 431.77726135 1536.51064392 432.35499573 1535.7283783 C477.43710141 1474.58376465 511.94137914 1406.74287091 536.65577698 1335.02915955 C537.23102112 1333.36941101 537.23102112 1333.36941101 537.81788635 1331.6761322 C553.64839849 1285.54340616 563.75387123 1237.39350233 569.65577698 1189.02915955 C569.80740295 1187.79955505 569.95902893 1186.56995056 570.11524963 1185.30308533 C579.99484047 1103.23927862 573.11582543 1023.5201113 501.85743713 819.64292908 C500.53408232 816.7644576 499.22621954 813.87915468 497.91749573 810.9940033 C485.31818243 783.3821315 471.87821944 756.06988134 457.06544495 729.57505798 C455.53111989 726.80402547 454.02998746 724.01674726 452.53468323 721.22447205 C445.49214957 708.07436728 438.15405121 695.13434788 430.57276917 682.28794861 C428.50834189 678.77852741 426.45957876 675.26028304 424.41358948 671.74009705 C416.90325411 658.83072926 409.26819836 646.03598974 401.20411682 633.46226501 C398.85663735 629.7733687 396.55447934 626.0565979 394.24732971 622.34239197 C371.54785601 585.82356948 347.3880657 550.19628338 322.65577698 515.02915955 C322.13628479 514.28923767 321.6167926 513.5493158 321.08155823 512.78697205 C309.41577455 496.17297678 297.49153796 479.75479513 285.42628479 463.42906189 C283.65209734 461.02417184 281.88357049 458.61522118 280.11671448 456.2049408 C272.94102619 446.42252931 265.6594107 436.73192449 258.26026917 427.11753845 C256.65063219 425.02246318 255.04675076 422.92311529 253.44483948 420.8221283 C245.57967246 410.50721375 237.63898828 400.2529363 229.65577698 390.02915955 C229.16867249 389.40412537 228.68156799 388.77909119 228.17970276 388.13511658 C222.36887092 380.68089933 216.46569996 373.30954131 210.48927307 365.9874115 C207.0165144 361.72585666 203.59740488 357.42770862 200.21827698 353.09165955 C195.53612621 347.08748974 190.70843925 341.2119131 185.84962463 335.35020447 C182.18896888 330.92344651 178.61056911 326.44533426 175.09327698 321.90415955 C170.69917445 316.24287133 166.07316439 310.81658661 161.3530426 305.42539978 C157.45730447 300.97304471 153.6877947 296.43566951 149.96437073 291.8377533 C147.242337 288.52617589 144.45441374 285.27599838 141.65577698 282.02915955 C138.11972472 277.92680802 134.62714527 273.80114278 131.21827698 269.59165955 C124.0457869 260.76598211 116.55667288 252.1924699 108.90577698 243.77915955 C105.91714445 240.48622989 103.07194092 237.11599186 100.28077698 233.65415955 C96.12015623 228.51157411 91.71221393 223.65464218 87.21827698 218.8065033 C84.55711353 215.92222401 81.9687869 212.98578821 79.39796448 210.02134705 C77.34077299 207.66895319 75.24980783 205.34880989 73.15577698 203.02915955 C70.46594267 200.04853234 67.79267334 197.05670722 65.15577698 194.02915955 C61.80080243 190.1794422 58.38939626 186.38262956 54.96827698 182.59165955 C52.73460204 180.11650624 50.50759982 177.63547643 48.28077698 175.15415955 C44.45896592 170.90622321 40.60229857 166.69101878 36.73561096 162.48399353 C33.91644569 159.41384363 31.12105092 156.32426193 28.34327698 153.21665955 C23.96510712 148.33812742 19.49458702 143.54927996 15.01539612 138.76377869 C11.25273685 134.74332716 7.50849916 130.70699967 3.78077698 126.65415955 C-10.83862341 110.74843923 -10.83862341 110.74843923 -26.03562927 95.4002533 C-27.9051174 93.48015297 -29.63206734 91.5350486 -31.36766052 89.49790955 C-34.44941159 85.94477834 -37.71405813 82.60951236 -41.06687927 79.3143158 C-41.57934708 78.80972336 -42.09181488 78.30513092 -42.61981201 77.7852478 C-44.74890548 75.69247272 -46.88066385 73.6026135 -49.02220154 71.52256775 C-60.54457128 60.31213441 -68.53716053 50.71307833 -68.78172302 34.15415955 C-68.70119434 21.84585316 -64.74871046 11.94650633 -56.34422302 2.8690033 C-40.16730492 -12.58573096 -17.82522821 -12.64069061 0 0 Z " fill="#36C2D6" transform="translate(1294.344223022461,140.97084045410156)"/>
<path d="M0 0 C3.55941068 0.58150417 5.21856624 1.84747032 7.73950195 4.38305664 C8.45737381 5.0979274 9.17524567 5.81279816 9.91487122 6.54933167 C11.06495918 7.71793983 11.06495918 7.71793983 12.23828125 8.91015625 C13.03727341 9.71102158 13.83626556 10.5118869 14.6594696 11.33702087 C16.35160732 13.03588533 18.04014117 14.73834582 19.7253418 16.4440918 C22.28519576 19.03486595 24.85534084 21.61504151 27.42773438 24.19335938 C29.07353654 25.84834213 30.71873791 27.5039226 32.36328125 29.16015625 C33.12393387 29.92505875 33.88458649 30.68996124 34.66828918 31.4780426 C38.74026539 35.60380702 42.66374998 39.80596476 46.43058777 44.21287537 C49.13511642 47.29258232 52.07260656 50.13424443 55 53 C59.29917683 57.24957311 63.45540076 61.52791676 67.36328125 66.14453125 C69.95933052 69.08754654 72.77818963 71.79973621 75.59375 74.53125 C78.22479066 77.23062938 80.67858519 80.04837097 83.1484375 82.89453125 C86.10312591 86.25439845 89.17656977 89.49905477 92.25 92.75 C100.84010682 101.87579277 109.3104109 111.10049387 117.6796875 120.4296875 C120.31079856 123.34428527 122.96658302 126.23533777 125.625 129.125 C129.22410319 133.0397491 132.77372759 136.99027919 136.2578125 141.0078125 C138.31500399 143.36020635 140.40596915 145.68034966 142.5 148 C147.32121275 153.34789986 152.07894027 158.74302215 156.75 164.22265625 C161.49079323 169.78122479 166.24086217 175.30937974 171.1875 180.6875 C175.21393836 185.07355646 178.98109722 189.61741628 182.71875 194.25 C185.06718968 197.08099578 187.50909902 199.79383598 190 202.5 C194.01851651 206.87036819 197.79787076 211.37474475 201.52734375 215.9921875 C204.4168038 219.50701252 207.38681826 222.94410851 210.375 226.375 C215.85462835 232.66810387 221.26838372 239.01204459 226.64404297 245.39404297 C228.04116533 247.04875505 229.44367766 248.69875874 230.84765625 250.34765625 C235.62996236 255.96879098 240.33559571 261.63557911 244.91796875 267.421875 C247.33084514 270.40967691 249.81813723 273.33040735 252.3125 276.25 C256.56142069 281.2318467 260.64456815 286.31876865 264.66333008 291.48730469 C268.3610598 296.22674922 272.1649019 300.87127204 276 305.5 C280.73493651 311.21884439 285.39552971 316.98403325 289.96142578 322.83862305 C292.73802542 326.39845728 295.54365006 329.93233044 298.37475586 333.44897461 C303.75485914 340.13185961 309.01279712 346.89716116 314.20776367 353.72485352 C317.6634841 358.26356325 321.15414492 362.77148813 324.6875 367.25 C329.33606418 373.14557837 333.93813773 379.07522664 338.49951172 385.03857422 C339.58892948 386.46265204 340.67921261 387.88606799 341.77001953 389.30908203 C355.26646998 406.92134964 368.42825095 424.7584155 381.39111328 442.76611328 C383.54897962 445.76224029 385.71094481 448.75539623 387.87329102 451.74829102 C388.95616679 453.24721992 390.03868743 454.74640544 391.12084961 456.24584961 C393.84837352 460.02479066 396.58021999 463.80047295 399.3203125 467.5703125 C405.88603132 476.61269324 412.32172297 485.72805094 418.61083984 494.96484375 C420.00121737 497.00178347 421.3998228 499.0328258 422.80078125 501.0625 C437.54738538 522.46091944 452.05516351 544.06937642 466 566 C466.45955078 566.72155273 466.91910156 567.44310547 467.39257812 568.18652344 C483.47982113 593.47412713 498.96427777 619.0754637 514 645 C514.5146582 645.88461914 515.02931641 646.76923828 515.55957031 647.68066406 C524.41500955 662.91903376 532.7840298 678.41007058 541 694 C541.31729065 694.60193176 541.6345813 695.20386353 541.96148682 695.82403564 C582.17124702 772.18188655 618.3892114 855.31812629 629 950 C629.08612549 951.08982178 629.17225098 952.17964355 629.26098633 953.30249023 C634.51677755 1025.1565977 622.73298338 1099.61522792 601 1168 C600.66564941 1169.07121094 600.33129883 1170.14242188 599.98681641 1171.24609375 C576.39803604 1246.49754673 536.87403437 1317.99940399 485.6015625 1377.9296875 C483.25742299 1380.67734045 481.00116684 1383.48800228 478.75 1386.3125 C469.9123219 1397.16885637 459.98159487 1407.20025605 450 1417 C446.89360496 1420.08963392 443.81434931 1423.20443916 440.7421875 1426.328125 C425.47019534 1441.80230179 425.47019534 1441.80230179 417.45703125 1448.04296875 C414.74414098 1450.20379232 412.2263173 1452.51254048 409.6875 1454.875 C403.40565641 1460.63483124 396.76903921 1465.83241247 390 1471 C389.2663623 1471.56348145 388.53272461 1472.12696289 387.77685547 1472.70751953 C335.16091217 1513.04385114 277.30576649 1544.52196459 215 1567 C213.25807373 1567.62962646 213.25807373 1567.62962646 211.48095703 1568.27197266 C146.21526686 1591.56264021 76.91145451 1602.25208992 7.75 1602.1875 C6.55346802 1602.18689575 5.35693604 1602.1862915 4.12414551 1602.18566895 C-14.00303285 1602.160843 -31.9538835 1601.8454848 -50 1600 C-50.65389709 1599.93447937 -51.30779419 1599.86895874 -51.98150635 1599.80145264 C-118.41422045 1593.12549625 -182.75789625 1576.60509831 -244 1550 C-244.9492334 1549.59152832 -245.8984668 1549.18305664 -246.87646484 1548.76220703 C-258.34606883 1543.81107481 -269.45127617 1538.32929083 -280.43505859 1532.38183594 C-283.15264613 1530.91776346 -285.88206015 1529.47752734 -288.61328125 1528.0390625 C-316.49869589 1513.26694166 -343.00288795 1496.26784695 -368 1477 C-369.55654297 1475.824375 -369.55654297 1475.824375 -371.14453125 1474.625 C-377.91172932 1469.50019848 -384.44873355 1464.15919424 -390.89453125 1458.63671875 C-393.65252903 1456.27889771 -396.47446369 1454.01109619 -399.3125 1451.75 C-406.15965146 1446.17304475 -412.49853923 1440.06279382 -418.89746094 1433.98486328 C-420.98354953 1432.01552976 -423.08601422 1430.0655262 -425.1953125 1428.12109375 C-432.33922139 1421.52270135 -439.19174206 1414.82784296 -445.67578125 1407.578125 C-447.64389414 1405.39500818 -449.65184897 1403.30646591 -451.75 1401.25 C-455.37787395 1397.67334309 -458.68529963 1393.8661061 -462 1390 C-462.90715539 1388.9566862 -463.81474081 1387.91374621 -464.72265625 1386.87109375 C-481.4236298 1367.6279523 -496.88698618 1347.21187036 -511 1326 C-511.65597168 1325.01797607 -511.65597168 1325.01797607 -512.32519531 1324.01611328 C-520.35021337 1311.95517257 -527.75389222 1299.5413404 -535 1287 C-535.43666992 1286.2467041 -535.87333984 1285.4934082 -536.32324219 1284.71728516 C-578.72641521 1211.19267151 -604.02657297 1128.2413018 -615 1020 C-615.05784668 1019.1651709 -615.11569336 1018.3303418 -615.17529297 1017.47021484 C-620.62579533 936.03615137 -600.89800598 858.83915717 -523.32519531 684.45898438 C-521.7951934 681.6199683 -520.28437918 678.77107931 -518.7734375 675.921875 C-511.8559196 662.92105904 -504.66452463 650.12027264 -497.1875 637.43359375 C-494.45901662 632.80146106 -491.80216382 628.1345983 -489.1875 623.4375 C-484.95312753 615.85839327 -480.52444309 608.40881407 -476 601 C-475.42862305 600.06365723 -474.85724609 599.12731445 -474.26855469 598.16259766 C-465.0069408 583.00485105 -455.61406227 567.93679023 -446 553 C-445.61894104 552.40706146 -445.23788208 551.81412292 -444.84527588 551.20321655 C-437.8854321 540.37967462 -430.81021428 529.6364939 -423.66601562 518.93383789 C-421.99957182 516.43685841 -420.33561254 513.93823637 -418.671875 511.43945312 C-409.62749461 497.8697542 -400.43003714 484.41127608 -391.0625 471.0625 C-390.47605713 470.22605957 -389.88961426 469.38961914 -389.28540039 468.52783203 C-387.52467123 466.0178008 -385.76253401 463.5087641 -384 461 C-383.47760742 460.25572754 -382.95521484 459.51145508 -382.41699219 458.74462891 C-371.32334101 442.94598548 -360.00965675 427.31310679 -348.53515625 411.7890625 C-346.18011245 408.60263558 -343.83422272 405.40979549 -341.49609375 402.2109375 C-335.21271398 393.62514347 -328.82324476 385.14542094 -322.25439453 376.77587891 C-318.02096281 371.36366664 -313.92598666 365.86224012 -309.875 360.3125 C-304.69172375 353.21754849 -299.32810614 346.30937458 -293.80078125 339.48046875 C-291.12624506 336.17285195 -288.5210075 332.81648415 -285.9375 329.4375 C-278.06068103 319.14886587 -270.02799656 308.99780054 -261.83447266 298.95947266 C-258.36140508 294.69749177 -254.94208071 290.39885984 -251.5625 286.0625 C-245.71120945 278.56330819 -239.64871133 271.24194701 -233.58349609 263.91552734 C-231.44268 261.32581981 -229.31397469 258.72649871 -227.1875 256.125 C-226.48753906 255.2690625 -225.78757812 254.413125 -225.06640625 253.53125 C-223.65589226 251.80343702 -222.24711257 250.07420714 -220.83984375 248.34375 C-216.31407775 242.78831237 -211.72448466 237.29387115 -207.08422852 231.83422852 C-204.20479732 228.4408462 -201.36810273 225.01750083 -198.5625 221.5625 C-194.60723975 216.70156299 -190.54026529 211.9459244 -186.44824219 207.20043945 C-183.34573369 203.59454054 -180.30541477 199.94805175 -177.3125 196.25 C-173.76137934 191.87348373 -170.04202602 187.6916854 -166.24609375 183.52734375 C-163.93812402 180.93037607 -161.74444137 178.26595987 -159.5625 175.5625 C-155.69941783 170.78571491 -151.62088565 166.26053118 -147.4609375 161.7421875 C-145.08960105 159.09984117 -142.84747003 156.39305833 -140.625 153.625 C-136.24055753 148.19108991 -131.54499937 143.10173982 -126.78515625 138 C-124.02653661 135.04123978 -121.35388674 132.01604915 -118.70703125 128.95703125 C-116.66366569 126.6144085 -114.58319141 124.30726578 -112.5 122 C-109.81016569 119.01937279 -107.13689636 116.02754767 -104.5 113 C-100.38916189 108.28295535 -96.19182811 103.64499871 -92 99 C-91.278125 98.195625 -90.55625 97.39125 -89.8125 96.5625 C-84.38355388 90.5131029 -78.90199901 84.51328114 -73.40283203 78.52783203 C-72.02643728 77.02879298 -70.65158261 75.52835924 -69.27734375 74.02734375 C-37.90951918 39.76576672 -37.90951918 39.76576672 -27.671875 29.703125 C-25.94740305 27.94641993 -24.34808886 26.12204695 -22.75 24.25 C-19.18598596 20.09743318 -15.32008571 16.29122892 -11.4296875 12.44921875 C-7.41705638 8.46714066 -3.6253992 4.34026665 0 0 Z M1 122 C-9.72996529 133.6100846 -20.44290695 145.23205756 -31 157 C-32.49971128 158.66692647 -33.99971321 160.33359149 -35.5 162 C-36.23992187 162.82242188 -36.97984375 163.64484375 -37.7421875 164.4921875 C-39.26708244 166.18592894 -40.79315402 167.87861169 -42.3203125 169.5703125 C-47.86114741 175.71218712 -53.35464937 181.88701749 -58.71484375 188.1875 C-63.61574527 193.94265032 -68.54185014 199.64903856 -73.6875 205.1875 C-77.91076845 209.73453987 -81.86328724 214.45135687 -85.75390625 219.28515625 C-88.0883059 222.10673495 -90.51990598 224.80590712 -93 227.5 C-97.11378909 231.9698512 -100.97087297 236.59044893 -104.78515625 241.31640625 C-106.95632827 243.94708557 -109.20241357 246.47942424 -111.5 249 C-115.34191939 253.22013944 -118.96115221 257.58027184 -122.55078125 262.015625 C-125.31810802 265.38761487 -128.15150415 268.69662321 -131 272 C-135.3225777 277.01655087 -139.55779121 282.09183187 -143.73046875 287.234375 C-146.24099976 290.29367957 -148.80519944 293.30306309 -151.375 296.3125 C-155.67702564 301.35943914 -159.7986944 306.52441333 -163.86791992 311.76000977 C-167.49419153 316.40574629 -171.26437404 320.91149307 -175.09033203 325.39331055 C-178.4005491 329.27533539 -181.61354815 333.22017553 -184.78125 337.21875 C-187.06032785 340.07562224 -189.36823725 342.90723417 -191.68041992 345.73730469 C-197.05589177 352.32014732 -202.31856053 358.96469281 -207.47265625 365.72265625 C-210.2601463 369.35933011 -213.12845751 372.92956838 -216 376.5 C-221.43247559 383.2597036 -226.73455184 390.10983359 -232 397 C-233.60354051 399.08381533 -235.20771692 401.16714145 -236.8125 403.25 C-242.28125752 410.35723172 -247.72905657 417.4804303 -253.17138672 424.60791016 C-255.12327346 427.16125946 -257.07915293 429.71152189 -259.03515625 432.26171875 C-265.23038751 440.35026173 -271.40736234 448.43719553 -277.28076172 456.76342773 C-280.72475257 461.64205736 -284.26169139 466.44868923 -287.8125 471.25 C-298.1765515 485.27856429 -308.37610372 499.42162984 -318.38818359 513.70361328 C-319.47749994 515.25558383 -320.56903099 516.80600189 -321.66259766 518.35498047 C-333.95175369 535.76490691 -345.73433715 553.50711413 -357.52032471 571.2593689 C-360.45708191 575.6820267 -363.4013222 580.09936885 -366.359375 584.5078125 C-373.77016873 595.55239406 -380.9676525 606.71075034 -388 618 C-388.50853516 618.8137207 -389.01707031 619.62744141 -389.54101562 620.46582031 C-403.84164779 643.35929808 -417.65964805 666.53396489 -431 690 C-431.91217285 691.60367432 -431.91217285 691.60367432 -432.84277344 693.23974609 C-442.7375634 710.6963439 -452.03567462 728.42613936 -461.12255859 746.3125 C-462.71999627 749.45526422 -464.33564349 752.58826366 -465.95703125 755.71875 C-501.11225777 824.08835505 -532.30711191 903.13881392 -532.1875 980.9375 C-532.18689575 981.67232605 -532.1862915 982.4071521 -532.18566895 983.16424561 C-532.00053485 1067.16319521 -510.62803507 1149.4994957 -412 1317 C-410.94232422 1318.31871094 -410.94232422 1318.31871094 -409.86328125 1319.6640625 C-405.27306948 1325.35175945 -400.51426525 1330.83051758 -395.5546875 1336.19921875 C-393.59569147 1338.34692541 -391.6868254 1340.5169167 -389.78930664 1342.71777344 C-386.27562092 1346.73735467 -382.5966782 1350.54853925 -378.81640625 1354.31640625 C-378.15720688 1354.97656235 -377.49800751 1355.63671844 -376.8188324 1356.31687927 C-375.43603165 1357.70035506 -374.05198924 1359.08259083 -372.66674805 1360.46362305 C-370.56769657 1362.55731669 -368.4740406 1364.65629874 -366.38085938 1366.75585938 C-365.02636214 1368.10969571 -363.67155469 1369.46322175 -362.31640625 1370.81640625 C-361.70156876 1371.43326797 -361.08673126 1372.0501297 -360.45326233 1372.6856842 C-356.12988123 1376.98625486 -351.62553329 1381.02780957 -347 1385 C-346.22530869 1385.67400093 -346.22530869 1385.67400093 -345.43496704 1386.36161804 C-336.27064718 1394.32820948 -326.71067075 1401.71595903 -317 1409 C-315.84226074 1409.87325928 -315.84226074 1409.87325928 -314.66113281 1410.76416016 C-303.72949126 1418.99776996 -292.63669626 1426.79610799 -281 1434 C-279.64358398 1434.84449707 -279.64358398 1434.84449707 -278.25976562 1435.70605469 C-262.2464003 1445.63306097 -245.85196071 1454.58298209 -229 1463 C-228.01821777 1463.49483887 -227.03643555 1463.98967773 -226.02490234 1464.49951172 C-171.12616931 1492.05678038 -110.01629555 1508.68838883 -49 1515 C-48.18997528 1515.08613556 -47.37995056 1515.17227112 -46.54537964 1515.26101685 C-29.58850593 1517.01687458 -12.69008583 1517.3640373 4.34528732 1517.31805801 C6.47011135 1517.31241337 8.59492738 1517.3095956 10.71975708 1517.30697632 C31.29237847 1517.27011478 51.58425173 1516.80378484 72 1514 C73.9505127 1513.75056641 73.9505127 1513.75056641 75.94042969 1513.49609375 C152.43617696 1503.69207294 226.74337506 1477.12526884 358.25 1386.875 C358.75571533 1386.44493652 359.26143066 1386.01487305 359.7824707 1385.57177734 C370.2571521 1376.56133431 380.16188066 1367.00124327 389.91088867 1357.21948242 C391.82422194 1355.30074495 393.74290504 1353.38747246 395.66210938 1351.47460938 C401.65239849 1345.48790546 407.56395263 1339.50276513 413 1333 C413.90025584 1331.95505163 414.80126739 1330.91075374 415.703125 1329.8671875 C431.32015895 1311.51956786 446.02322355 1292.31399966 459 1272 C459.48259277 1271.24589844 459.96518555 1270.49179688 460.46240234 1269.71484375 C505.762544 1198.5594999 534.44763174 1118.9635904 546.25 982.625 C546.25067474 981.90143311 546.25134949 981.17786621 546.25204468 980.43237305 C546.12304891 891.98226531 505.71556443 806.01882005 450.60009766 702.80175781 C448.99314133 699.98799052 447.40564758 697.16412181 445.82421875 694.3359375 C433.22048174 671.81203889 419.77024156 649.82635166 406 628 C405.14438477 626.6382666 405.14438477 626.6382666 404.27148438 625.24902344 C380.64736799 587.66024771 355.52962017 550.88234982 329.43017578 514.97558594 C327.28894862 512.01778289 325.1766856 509.03965379 323.0625 506.0625 C317.41243151 498.12467372 311.6112354 490.29856376 305.81884766 482.46435547 C304.02434468 480.0329846 302.23578173 477.59736583 300.44921875 475.16015625 C293.27768043 465.38277652 285.99966047 455.69760213 278.60449219 446.08837891 C276.99485521 443.99330363 275.39097379 441.89395574 273.7890625 439.79296875 C265.92389548 429.47805421 257.9832113 419.22377675 250 409 C249.51289551 408.37496582 249.02579102 407.74993164 248.52392578 407.10595703 C242.71309394 399.65173978 236.80992298 392.28038176 230.83349609 384.95825195 C227.36073479 380.69669387 223.94176015 376.39844852 220.5625 372.0625 C214.71120945 364.56330819 208.64871133 357.24194701 202.58349609 349.91552734 C200.44268 347.32581981 198.31397469 344.72649871 196.1875 342.125 C195.13755859 340.84109375 195.13755859 340.84109375 194.06640625 339.53125 C192.65589226 337.80343702 191.24711257 336.07420714 189.83984375 334.34375 C185.31407775 328.78831237 180.72448466 323.29387115 176.08422852 317.83422852 C173.20479732 314.4408462 170.36810273 311.01750083 167.5625 307.5625 C162.66559992 301.55029171 157.61377326 295.67658753 152.55273438 289.80273438 C150.01037661 286.85104102 147.47349874 283.89465714 144.9375 280.9375 C144.43943848 280.35693848 143.94137695 279.77637695 143.42822266 279.17822266 C140.12231477 275.32079152 136.83786812 271.44587058 133.5625 267.5625 C125.92240668 258.51323083 118.21980734 249.5112342 110.25 240.75 C107.2992512 237.49989987 104.49702373 234.17382667 101.75 230.75 C97.09341188 224.99053574 92.07165823 219.62051301 87.0078125 214.22265625 C84.1552359 211.17938059 81.3907379 208.07055866 78.6640625 204.9140625 C75.16707067 200.891701 71.57140635 196.95620434 68 193 C66.49971321 191.33359149 64.99971128 189.66692647 63.5 188 C62.7575 187.175 62.015 186.35 61.25 185.5 C59 183 56.75 180.5 54.5 178 C53.38044922 176.75669922 53.38044922 176.75669922 52.23828125 175.48828125 C50.77560745 173.86223726 49.31459667 172.23469538 47.85546875 170.60546875 C42.63336506 164.78117653 37.34369276 159.02291332 32.03125 153.28125 C29.21787727 150.23937999 26.42034951 147.18344123 23.625 144.125 C22.26233833 142.6411687 20.89964792 141.1573635 19.53613281 139.67431641 C18.42411855 138.46227035 17.31438153 137.24813369 16.20605469 136.03271484 C14.3093714 133.95435131 12.405278 131.88298404 10.5 129.8125 C9.90010254 129.1520166 9.30020508 128.4915332 8.68212891 127.81103516 C7.83400635 126.89330322 7.83400635 126.89330322 6.96875 125.95703125 C6.46794922 125.41022705 5.96714844 124.86342285 5.45117188 124.30004883 C3.9155023 122.75100966 3.9155023 122.75100966 1 122 Z " fill="#35C2D6" transform="translate(1124,262)"/>
</svg>
